# MagicaVoxel @ Ephtracy

# group
g char-zombie

# material
mtllib char-zombie.mtl
usemtl palette

# normals
vn -1 0 0
vn 1 0 0
vn 0 0 1
vn 0 0 -1
vn 0 -1 0
vn 0 1 0

# texcoords
vt 0.0644531 0.5
vt 0.576172 0.5
vt 0.615234 0.5
vt 0.638672 0.5
vt 0.958984 0.5
vt 0.966797 0.5
vt 0.994141 0.5

# verts
v -24 32 -0
v -24 32 -3
v -24 35 -0
v -24 35 -3
v -5 0 4
v -5 0 -3
v -5 2 4
v -5 2 -0
v -5 3 -2
v -5 3 -3
v -5 4 -2
v -5 4 -3
v -5 10 -0
v -5 10 -3
v -5 11 -0
v -5 11 -3
v -5 13 -0
v -5 13 -3
v -5 16 -0
v -5 16 -3
v -5 32 -0
v -5 32 -3
v -3 36 2
v -3 36 -4
v -3 38 -4
v -3 38 -5
v -3 39 2
v -3 39 1
v -3 41 2
v -3 41 1
v -3 42 2
v -3 42 -4
v -3 43 -4
v -3 43 -5
v -3 44 2
v -3 44 -4
v -2 35 -0
v -2 35 -3
v -2 36 -0
v -2 36 -3
v 2 0 4
v 2 0 -3
v 2 2 4
v 2 2 -0
v 2 19 -0
v 2 19 -3
v -2 0 4
v -2 0 -3
v -2 2 4
v -2 2 -0
v -2 6 -1
v -2 6 -2
v -2 7 -0
v -2 7 -1
v -2 8 -0
v -2 8 -1
v -2 9 -1
v -2 9 -2
v -2 19 -0
v -2 19 -3
v 2 35 -0
v 2 35 -3
v 2 36 -0
v 2 36 -3
v 3 36 2
v 3 36 1
v 3 36 -3
v 3 36 -4
v 3 37 2
v 3 37 1
v 3 37 -3
v 3 37 -4
v 3 38 2
v 3 38 1
v 3 38 -4
v 3 38 -5
v 3 39 2
v 3 39 1
v 3 41 2
v 3 41 1
v 3 42 2
v 3 42 -4
v 3 43 -4
v 3 43 -5
v 3 44 2
v 3 44 -4
v 5 0 4
v 5 0 -3
v 5 1 1
v 5 1 -1
v 5 2 4
v 5 2 1
v 5 2 -0
v 5 2 -1
v 5 4 -1
v 5 4 -2
v 5 4 -3
v 5 6 -1
v 5 6 -2
v 5 9 -2
v 5 9 -3
v 5 13 -0
v 5 13 -1
v 5 14 -2
v 5 14 -3
v 5 15 -1
v 5 15 -2
v 5 15 -3
v 5 16 -0
v 5 16 -1
v 5 17 -1
v 5 17 -3
v 5 21 -0
v 5 21 -1
v 5 22 -1
v 5 22 -3
v 5 23 -0
v 5 23 -1
v 5 25 -1
v 5 25 -2
v 5 26 -1
v 5 26 -2
v 5 28 -2
v 5 28 -3
v 5 32 -0
v 5 32 -2
v 5 32 -3
v 24 32 -0
v 24 32 -3
v 24 35 -0
v 24 35 -3
v -5 0 4
v -5 2 4
v -2 0 4
v -2 2 4
v 2 0 4
v 2 2 4
v 5 0 4
v 5 2 4
v -3 36 2
v -3 39 2
v -3 41 2
v -3 42 2
v -3 44 2
v -2 39 2
v -2 40 2
v -1 37 2
v -1 38 2
v -1 39 2
v -1 40 2
v -1 41 2
v 1 36 2
v 1 37 2
v 1 38 2
v 1 39 2
v 1 40 2
v 1 41 2
v 2 37 2
v 2 38 2
v 2 39 2
v 2 40 2
v 3 36 2
v 3 37 2
v 3 38 2
v 3 39 2
v 3 41 2
v 3 42 2
v 3 44 2
v -24 32 -0
v -24 35 -0
v -20 34 -0
v -20 35 -0
v -19 34 -0
v -19 35 -0
v -16 32 -0
v -16 33 -0
v -13 32 -0
v -13 33 -0
v -10 33 -0
v -10 35 -0
v -5 2 -0
v -5 10 -0
v -5 11 -0
v -5 13 -0
v -5 16 -0
v -5 32 -0
v -4 7 -0
v -4 8 -0
v -4 10 -0
v -4 11 -0
v -4 13 -0
v -4 16 -0
v -4 19 -0
v -4 22 -0
v -4 27 -0
v -4 31 -0
v -4 33 -0
v -4 35 -0
v -3 27 -0
v -3 31 -0
v -2 2 -0
v -2 7 -0
v -2 8 -0
v -2 19 -0
v -2 22 -0
v -2 35 -0
v -2 36 -0
v -1 20 -0
v -1 27 -0
v 0 33 -0
v 0 34 -0
v 1 25 -0
v 1 26 -0
v 1 27 -0
v 1 29 -0
v 2 2 -0
v 2 19 -0
v 2 32 -0
v 2 33 -0
v 2 34 -0
v 2 35 -0
v 2 36 -0
v 3 5 -0
v 3 6 -0
v 3 20 -0
v 3 25 -0
v 3 26 -0
v 3 29 -0
v 3 32 -0
v 3 34 -0
v 4 2 -0
v 4 5 -0
v 4 6 -0
v 4 13 -0
v 4 16 -0
v 4 21 -0
v 4 23 -0
v 4 29 -0
v 5 2 -0
v 5 13 -0
v 5 16 -0
v 5 21 -0
v 5 23 -0
v 5 32 -0
v 7 33 -0
v 7 34 -0
v 12 32 -0
v 12 33 -0
v 12 34 -0
v 12 35 -0
v 16 32 -0
v 16 34 -0
v 17 34 -0
v 17 35 -0
v 18 33 -0
v 18 35 -0
v 20 33 -0
v 20 35 -0
v 24 32 -0
v 24 35 -0
v -24 32 -3
v -24 35 -3
v -23 33 -3
v -23 35 -3
v -18 33 -3
v -18 35 -3
v -10 34 -3
v -10 35 -3
v -8 34 -3
v -8 35 -3
v -5 0 -3
v -5 3 -3
v -5 4 -3
v -5 10 -3
v -5 11 -3
v -5 13 -3
v -5 16 -3
v -5 32 -3
v -4 3 -3
v -4 4 -3
v -4 10 -3
v -4 11 -3
v -4 13 -3
v -4 14 -3
v -4 16 -3
v -4 18 -3
v -3 14 -3
v -3 18 -3
v -3 24 -3
v -3 26 -3
v -2 0 -3
v -2 19 -3
v -2 32 -3
v -2 34 -3
v -2 35 -3
v -2 36 -3
v -1 24 -3
v -1 26 -3
v -1 36 -3
v 0 29 -3
v 0 31 -3
v 1 21 -3
v 1 25 -3
v 2 0 -3
v 2 19 -3
v 2 29 -3
v 2 31 -3
v 2 35 -3
v 2 36 -3
v 3 21 -3
v 3 22 -3
v 3 24 -3
v 3 25 -3
v 3 28 -3
v 3 33 -3
v 3 34 -3
v 4 4 -3
v 4 9 -3
v 4 14 -3
v 4 15 -3
v 4 17 -3
v 4 22 -3
v 4 24 -3
v 5 0 -3
v 5 4 -3
v 5 9 -3
v 5 14 -3
v 5 15 -3
v 5 17 -3
v 5 22 -3
v 5 28 -3
v 5 32 -3
v 5 33 -3
v 8 33 -3
v 8 35 -3
v 11 33 -3
v 11 35 -3
v 12 34 -3
v 12 35 -3
v 15 33 -3
v 15 34 -3
v 17 34 -3
v 17 35 -3
v 19 33 -3
v 19 34 -3
v 22 34 -3
v 22 35 -3
v 23 34 -3
v 23 35 -3
v 24 32 -3
v 24 35 -3
v -3 36 -4
v -3 38 -4
v -3 43 -4
v -3 44 -4
v -2 36 -4
v -2 37 -4
v -1 36 -4
v -1 37 -4
v 2 36 -4
v 2 37 -4
v 3 36 -4
v 3 37 -4
v 3 38 -4
v 3 43 -4
v 3 44 -4
v -3 38 -5
v -3 43 -5
v 3 38 -5
v 3 43 -5
v -5 0 4
v -2 0 4
v 2 0 4
v 5 0 4
v -5 0 -3
v -2 0 -3
v 2 0 -3
v 5 0 -3
v -2 19 -0
v 2 19 -0
v -2 19 -3
v 2 19 -3
v -24 32 -0
v -16 32 -0
v -13 32 -0
v -5 32 -0
v 5 32 -0
v 12 32 -0
v 16 32 -0
v 24 32 -0
v -16 32 -1
v -13 32 -1
v 12 32 -1
v 16 32 -1
v 5 32 -2
v -24 32 -3
v -5 32 -3
v 5 32 -3
v 24 32 -3
v -3 36 2
v 1 36 2
v 3 36 2
v 1 36 1
v 3 36 1
v -2 36 -0
v 2 36 -0
v -2 36 -3
v -1 36 -3
v 2 36 -3
v 3 36 -3
v -3 36 -4
v -2 36 -4
v -1 36 -4
v 2 36 -4
v 3 36 -4
v -3 38 -4
v 3 38 -4
v -3 38 -5
v 3 38 -5
v -5 2 4
v -2 2 4
v 2 2 4
v 5 2 4
v 4 2 1
v 5 2 1
v -5 2 -0
v -2 2 -0
v 2 2 -0
v 4 2 -0
v 5 2 -0
v -24 35 -0
v -20 35 -0
v -19 35 -0
v -10 35 -0
v -4 35 -0
v -2 35 -0
v 2 35 -0
v 12 35 -0
v 17 35 -0
v 18 35 -0
v 20 35 -0
v 24 35 -0
v -20 35 -1
v -19 35 -1
v -10 35 -1
v -4 35 -1
v 18 35 -1
v 20 35 -1
v -23 35 -2
v -18 35 -2
v -10 35 -2
v -8 35 -2
v 8 35 -2
v 11 35 -2
v 22 35 -2
v 23 35 -2
v -24 35 -3
v -23 35 -3
v -18 35 -3
v -10 35 -3
v -8 35 -3
v -2 35 -3
v 2 35 -3
v 8 35 -3
v 11 35 -3
v 12 35 -3
v 17 35 -3
v 22 35 -3
v 23 35 -3
v 24 35 -3
v -3 43 -4
v 3 43 -4
v -3 43 -5
v 3 43 -5
v -3 44 2
v 3 44 2
v -3 44 -4
v 3 44 -4

# faces
f 3/3/1 2/3/1 1/3/1
f 4/3/1 2/3/1 3/3/1
f 7/3/1 6/3/1 5/3/1
f 8/3/1 6/3/1 7/3/1
f 9/3/1 6/3/1 8/3/1
f 10/3/1 6/3/1 9/3/1
f 11/3/1 9/3/1 8/3/1
f 11/4/1 10/4/1 9/4/1
f 12/4/1 10/4/1 11/4/1
f 13/3/1 11/3/1 8/3/1
f 13/3/1 12/3/1 11/3/1
f 14/3/1 12/3/1 13/3/1
f 15/4/1 14/4/1 13/4/1
f 16/4/1 14/4/1 15/4/1
f 17/3/1 16/3/1 15/3/1
f 18/3/1 16/3/1 17/3/1
f 19/4/1 18/4/1 17/4/1
f 20/4/1 18/4/1 19/4/1
f 21/3/1 20/3/1 19/3/1
f 22/3/1 20/3/1 21/3/1
f 25/3/1 24/3/1 23/3/1
f 27/3/1 25/3/1 23/3/1
f 28/3/1 25/3/1 27/3/1
f 29/5/1 28/5/1 27/5/1
f 30/3/1 25/3/1 28/3/1
f 30/5/1 28/5/1 29/5/1
f 31/3/1 30/3/1 29/3/1
f 32/7/1 26/7/1 25/7/1
f 32/3/1 30/3/1 31/3/1
f 32/3/1 25/3/1 30/3/1
f 33/7/1 32/7/1 31/7/1
f 33/7/1 26/7/1 32/7/1
f 34/7/1 26/7/1 33/7/1
f 35/7/1 33/7/1 31/7/1
f 36/7/1 33/7/1 35/7/1
f 39/3/1 38/3/1 37/3/1
f 40/3/1 38/3/1 39/3/1
f 43/3/1 42/3/1 41/3/1
f 44/3/1 42/3/1 43/3/1
f 45/3/1 42/3/1 44/3/1
f 46/3/1 42/3/1 45/3/1
f 47/3/2 48/3/2 49/3/2
f 49/3/2 48/3/2 50/3/2
f 50/3/2 48/3/2 51/3/2
f 51/3/2 48/3/2 52/3/2
f 50/3/2 51/3/2 53/3/2
f 51/4/2 52/4/2 54/4/2
f 53/3/2 51/3/2 54/3/2
f 53/4/2 54/4/2 55/4/2
f 54/4/2 52/4/2 56/4/2
f 55/4/2 54/4/2 56/4/2
f 55/3/2 56/3/2 57/3/2
f 56/4/2 52/4/2 57/4/2
f 52/3/2 48/3/2 58/3/2
f 57/4/2 52/4/2 58/4/2
f 55/3/2 57/3/2 59/3/2
f 57/3/2 58/3/2 59/3/2
f 58/3/2 48/3/2 60/3/2
f 59/3/2 58/3/2 60/3/2
f 61/3/2 62/3/2 63/3/2
f 63/3/2 62/3/2 64/3/2
f 65/1/2 66/1/2 69/1/2
f 66/3/2 67/3/2 70/3/2
f 69/1/2 66/1/2 70/1/2
f 67/4/2 68/4/2 71/4/2
f 70/3/2 67/3/2 71/3/2
f 71/4/2 68/4/2 72/4/2
f 69/4/2 70/4/2 73/4/2
f 70/3/2 71/3/2 74/3/2
f 73/4/2 70/4/2 74/4/2
f 71/3/2 72/3/2 74/3/2
f 74/3/2 72/3/2 75/3/2
f 74/3/2 75/3/2 77/3/2
f 73/3/2 74/3/2 77/3/2
f 77/3/2 75/3/2 78/3/2
f 77/5/2 78/5/2 79/5/2
f 78/3/2 75/3/2 80/3/2
f 79/5/2 78/5/2 80/5/2
f 79/3/2 80/3/2 81/3/2
f 75/7/2 76/7/2 82/7/2
f 81/3/2 80/3/2 82/3/2
f 80/3/2 75/3/2 82/3/2
f 81/7/2 82/7/2 83/7/2
f 82/7/2 76/7/2 83/7/2
f 83/7/2 76/7/2 84/7/2
f 81/7/2 83/7/2 85/7/2
f 85/7/2 83/7/2 86/7/2
f 87/3/2 88/3/2 89/3/2
f 89/3/2 88/3/2 90/3/2
f 87/3/2 89/3/2 91/3/2
f 89/4/2 90/4/2 92/4/2
f 91/3/2 89/3/2 92/3/2
f 92/4/2 90/4/2 93/4/2
f 90/3/2 88/3/2 94/3/2
f 93/4/2 90/4/2 94/4/2
f 94/3/2 88/3/2 95/3/2
f 93/3/2 94/3/2 95/3/2
f 95/3/2 88/3/2 96/3/2
f 96/3/2 88/3/2 97/3/2
f 93/3/2 95/3/2 98/3/2
f 95/4/2 96/4/2 98/4/2
f 96/1/2 97/1/2 99/1/2
f 98/4/2 96/4/2 99/4/2
f 98/3/2 99/3/2 100/3/2
f 99/1/2 97/1/2 100/1/2
f 100/1/2 97/1/2 101/1/2
f 93/3/2 98/3/2 102/3/2
f 98/3/2 100/3/2 102/3/2
f 100/3/2 101/3/2 102/3/2
f 102/3/2 101/3/2 103/3/2
f 103/3/2 101/3/2 104/3/2
f 104/3/2 101/3/2 105/3/2
f 102/4/2 103/4/2 106/4/2
f 103/3/2 104/3/2 106/3/2
f 104/4/2 105/4/2 107/4/2
f 106/3/2 104/3/2 107/3/2
f 107/4/2 105/4/2 108/4/2
f 102/4/2 106/4/2 109/4/2
f 106/1/2 107/1/2 110/1/2
f 109/4/2 106/4/2 110/4/2
f 107/1/2 108/1/2 110/1/2
f 109/1/2 110/1/2 111/1/2
f 110/1/2 108/1/2 111/1/2
f 111/1/2 108/1/2 112/1/2
f 109/1/2 111/1/2 113/1/2
f 111/3/2 112/3/2 114/3/2
f 113/1/2 111/1/2 114/1/2
f 113/3/2 114/3/2 115/3/2
f 114/3/2 112/3/2 115/3/2
f 115/3/2 112/3/2 116/3/2
f 113/3/2 115/3/2 117/3/2
f 115/1/2 116/1/2 118/1/2
f 117/3/2 115/3/2 118/3/2
f 117/1/2 118/1/2 119/1/2
f 118/1/2 116/1/2 119/1/2
f 119/1/2 116/1/2 120/1/2
f 117/1/2 119/1/2 121/1/2
f 119/3/2 120/3/2 121/3/2
f 120/1/2 116/1/2 122/1/2
f 121/3/2 120/3/2 122/3/2
f 121/1/2 122/1/2 123/1/2
f 122/1/2 116/1/2 123/1/2
f 123/1/2 116/1/2 124/1/2
f 117/1/2 121/1/2 125/1/2
f 121/1/2 123/1/2 125/1/2
f 123/3/2 124/3/2 126/3/2
f 125/1/2 123/1/2 126/1/2
f 126/3/2 124/3/2 127/3/2
f 128/3/2 129/3/2 130/3/2
f 130/3/2 129/3/2 131/3/2
f 134/3/3 133/3/3 132/3/3
f 135/3/3 133/3/3 134/3/3
f 138/3/3 137/3/3 136/3/3
f 139/3/3 137/3/3 138/3/3
f 145/3/3 141/3/3 140/3/3
f 145/5/3 142/5/3 141/5/3
f 146/5/3 142/5/3 145/5/3
f 147/3/3 145/3/3 140/3/3
f 148/3/3 145/3/3 147/3/3
f 149/6/3 146/6/3 145/6/3
f 149/3/3 145/3/3 148/3/3
f 150/5/3 142/5/3 146/5/3
f 150/6/3 146/6/3 149/6/3
f 151/3/3 143/3/3 142/3/3
f 151/5/3 142/5/3 150/5/3
f 152/3/3 147/3/3 140/3/3
f 153/2/3 148/2/3 147/2/3
f 153/3/3 147/3/3 152/3/3
f 154/3/3 150/3/3 149/3/3
f 154/2/3 148/2/3 153/2/3
f 154/3/3 149/3/3 148/3/3
f 154/3/3 151/3/3 150/3/3
f 155/3/3 151/3/3 154/3/3
f 156/3/3 151/3/3 155/3/3
f 157/3/3 143/3/3 151/3/3
f 157/3/3 151/3/3 156/3/3
f 158/1/3 153/1/3 152/1/3
f 158/3/3 154/3/3 153/3/3
f 158/3/3 155/3/3 154/3/3
f 159/3/3 155/3/3 158/3/3
f 160/6/3 156/6/3 155/6/3
f 160/3/3 155/3/3 159/3/3
f 161/5/3 157/5/3 156/5/3
f 161/6/3 156/6/3 160/6/3
f 162/1/3 158/1/3 152/1/3
f 163/4/3 159/4/3 158/4/3
f 163/1/3 158/1/3 162/1/3
f 164/3/3 160/3/3 159/3/3
f 164/4/3 159/4/3 163/4/3
f 165/5/3 161/5/3 160/5/3
f 165/3/3 160/3/3 164/3/3
f 166/3/3 143/3/3 157/3/3
f 166/5/3 161/5/3 165/5/3
f 166/5/3 157/5/3 161/5/3
f 167/7/3 144/7/3 143/7/3
f 167/3/3 143/3/3 166/3/3
f 168/7/3 144/7/3 167/7/3
f 171/3/3 170/3/3 169/3/3
f 172/3/3 170/3/3 171/3/3
f 173/3/3 171/3/3 169/3/3
f 173/1/3 172/1/3 171/1/3
f 174/1/3 172/1/3 173/1/3
f 175/3/3 173/3/3 169/3/3
f 175/3/3 174/3/3 173/3/3
f 176/3/3 174/3/3 175/3/3
f 177/1/3 176/1/3 175/1/3
f 178/3/3 174/3/3 176/3/3
f 178/1/3 176/1/3 177/1/3
f 179/3/3 178/3/3 177/3/3
f 179/3/3 174/3/3 178/3/3
f 180/3/3 174/3/3 179/3/3
f 186/3/3 179/3/3 177/3/3
f 187/3/3 182/3/3 181/3/3
f 188/3/3 182/3/3 187/3/3
f 189/4/3 183/4/3 182/4/3
f 189/3/3 182/3/3 188/3/3
f 190/3/3 184/3/3 183/3/3
f 190/4/3 183/4/3 189/4/3
f 191/4/3 185/4/3 184/4/3
f 191/3/3 184/3/3 190/3/3
f 192/3/3 186/3/3 185/3/3
f 192/4/3 185/4/3 191/4/3
f 193/3/3 186/3/3 192/3/3
f 194/3/3 186/3/3 193/3/3
f 195/3/3 186/3/3 194/3/3
f 196/3/3 186/3/3 195/3/3
f 197/4/3 180/4/3 179/4/3
f 197/3/3 186/3/3 196/3/3
f 197/3/3 179/3/3 186/3/3
f 198/4/3 180/4/3 197/4/3
f 199/4/3 196/4/3 195/4/3
f 199/3/3 195/3/3 194/3/3
f 200/3/3 198/3/3 197/3/3
f 200/4/3 196/4/3 199/4/3
f 200/3/3 197/3/3 196/3/3
f 201/3/3 187/3/3 181/3/3
f 202/4/3 188/4/3 187/4/3
f 202/3/3 187/3/3 201/3/3
f 203/3/3 190/3/3 189/3/3
f 203/4/3 188/4/3 202/4/3
f 203/3/3 191/3/3 190/3/3
f 203/3/3 189/3/3 188/3/3
f 203/3/3 192/3/3 191/3/3
f 203/3/3 193/3/3 192/3/3
f 204/4/3 194/4/3 193/4/3
f 204/3/3 193/3/3 203/3/3
f 205/3/3 200/3/3 199/3/3
f 205/4/3 194/4/3 204/4/3
f 205/3/3 199/3/3 194/3/3
f 206/3/3 198/3/3 200/3/3
f 206/3/3 200/3/3 205/3/3
f 208/3/3 206/3/3 205/3/3
f 208/3/3 207/3/3 206/3/3
f 208/3/3 205/3/3 204/3/3
f 209/3/3 207/3/3 208/3/3
f 210/3/3 207/3/3 209/3/3
f 211/3/3 207/3/3 210/3/3
f 212/4/3 209/4/3 208/4/3
f 213/4/3 209/4/3 212/4/3
f 214/3/3 210/3/3 209/3/3
f 214/4/3 209/4/3 213/4/3
f 215/3/3 210/3/3 214/3/3
f 217/3/3 208/3/3 204/3/3
f 218/3/3 210/3/3 215/3/3
f 219/4/3 211/4/3 210/4/3
f 219/3/3 210/3/3 218/3/3
f 220/3/3 207/3/3 211/3/3
f 220/4/3 211/4/3 219/4/3
f 221/3/3 207/3/3 220/3/3
f 222/3/3 207/3/3 221/3/3
f 223/3/3 217/3/3 216/3/3
f 224/3/3 217/3/3 223/3/3
f 225/4/3 212/4/3 208/4/3
f 225/3/3 217/3/3 224/3/3
f 225/3/3 208/3/3 217/3/3
f 226/3/3 213/3/3 212/3/3
f 226/4/3 212/4/3 225/4/3
f 227/1/3 214/1/3 213/1/3
f 227/3/3 213/3/3 226/3/3
f 227/1/3 215/1/3 214/1/3
f 228/3/3 218/3/3 215/3/3
f 228/1/3 215/1/3 227/1/3
f 229/1/3 219/1/3 218/1/3
f 229/3/3 218/3/3 228/3/3
f 229/1/3 220/1/3 219/1/3
f 230/3/3 221/3/3 220/3/3
f 230/1/3 220/1/3 229/1/3
f 231/3/3 223/3/3 216/3/3
f 232/4/3 224/4/3 223/4/3
f 232/3/3 223/3/3 231/3/3
f 233/3/3 228/3/3 227/3/3
f 233/4/3 224/4/3 232/4/3
f 233/3/3 225/3/3 224/3/3
f 233/3/3 227/3/3 226/3/3
f 233/3/3 226/3/3 225/3/3
f 234/3/3 228/3/3 233/3/3
f 235/3/3 228/3/3 234/3/3
f 236/3/3 228/3/3 235/3/3
f 237/3/3 228/3/3 236/3/3
f 238/1/3 229/1/3 228/1/3
f 238/3/3 228/3/3 237/3/3
f 239/3/3 232/3/3 231/3/3
f 239/3/3 233/3/3 232/3/3
f 239/3/3 234/3/3 233/3/3
f 240/4/3 235/4/3 234/4/3
f 240/3/3 234/3/3 239/3/3
f 241/1/3 236/1/3 235/1/3
f 241/4/3 235/4/3 240/4/3
f 242/3/3 237/3/3 236/3/3
f 242/1/3 236/1/3 241/1/3
f 243/1/3 238/1/3 237/1/3
f 243/3/3 237/3/3 242/3/3
f 244/1/3 229/1/3 238/1/3
f 244/1/3 238/1/3 243/1/3
f 244/3/3 230/3/3 229/3/3
f 245/3/3 230/3/3 244/3/3
f 246/3/3 221/3/3 230/3/3
f 246/3/3 230/3/3 245/3/3
f 247/3/3 245/3/3 244/3/3
f 248/4/3 246/4/3 245/4/3
f 248/3/3 245/3/3 247/3/3
f 249/3/3 221/3/3 246/3/3
f 249/4/3 246/4/3 248/4/3
f 250/3/3 221/3/3 249/3/3
f 251/4/3 248/4/3 247/4/3
f 251/4/3 249/4/3 248/4/3
f 251/4/3 250/4/3 249/4/3
f 252/4/3 250/4/3 251/4/3
f 253/3/3 252/3/3 251/3/3
f 253/4/3 250/4/3 252/4/3
f 254/4/3 250/4/3 253/4/3
f 255/3/3 253/3/3 251/3/3
f 255/3/3 254/3/3 253/3/3
f 256/3/3 254/3/3 255/3/3
f 257/3/3 255/3/3 251/3/3
f 257/4/3 256/4/3 255/4/3
f 258/4/3 256/4/3 257/4/3
f 259/3/3 257/3/3 251/3/3
f 259/3/3 258/3/3 257/3/3
f 260/3/3 258/3/3 259/3/3
f 261/3/4 262/3/4 263/3/4
f 263/3/4 262/3/4 264/3/4
f 261/3/4 263/3/4 265/3/4
f 263/4/4 264/4/4 265/4/4
f 265/4/4 264/4/4 266/4/4
f 265/3/4 266/3/4 267/3/4
f 267/3/4 266/3/4 268/3/4
f 265/3/4 267/3/4 269/3/4
f 267/4/4 268/4/4 269/4/4
f 269/4/4 268/4/4 270/4/4
f 261/3/4 265/3/4 278/3/4
f 265/3/4 269/3/4 278/3/4
f 269/3/4 270/3/4 278/3/4
f 271/3/4 272/3/4 279/3/4
f 272/4/4 273/4/4 279/4/4
f 273/3/4 274/3/4 280/3/4
f 279/4/4 273/4/4 280/4/4
f 274/4/4 275/4/4 281/4/4
f 280/3/4 274/3/4 281/3/4
f 275/3/4 276/3/4 282/3/4
f 281/4/4 275/4/4 282/4/4
f 276/4/4 277/4/4 283/4/4
f 282/3/4 276/3/4 283/3/4
f 283/4/4 277/4/4 284/4/4
f 277/3/4 278/3/4 285/3/4
f 284/4/4 277/4/4 285/4/4
f 285/3/4 278/3/4 286/3/4
f 281/3/4 282/3/4 287/3/4
f 280/3/4 281/3/4 287/3/4
f 285/4/4 286/4/4 287/4/4
f 284/4/4 285/4/4 287/4/4
f 282/3/4 283/3/4 287/3/4
f 279/3/4 280/3/4 287/3/4
f 283/3/4 284/3/4 287/3/4
f 286/3/4 278/3/4 288/3/4
f 287/4/4 286/4/4 288/4/4
f 288/3/4 278/3/4 289/3/4
f 289/3/4 278/3/4 290/3/4
f 279/3/4 287/3/4 291/3/4
f 271/3/4 279/3/4 291/3/4
f 287/3/4 288/3/4 291/3/4
f 288/3/4 289/3/4 291/3/4
f 291/3/4 289/3/4 292/3/4
f 290/3/4 278/3/4 293/3/4
f 278/3/4 270/3/4 293/3/4
f 293/3/4 270/3/4 294/3/4
f 294/3/4 270/3/4 295/3/4
f 292/3/4 289/3/4 297/3/4
f 289/4/4 290/4/4 297/4/4
f 290/3/4 293/3/4 298/3/4
f 297/4/4 290/4/4 298/4/4
f 294/3/4 295/3/4 299/3/4
f 295/3/4 296/3/4 299/3/4
f 298/3/4 293/3/4 300/3/4
f 297/3/4 298/3/4 300/3/4
f 300/3/4 293/3/4 301/3/4
f 292/3/4 297/3/4 302/3/4
f 297/3/4 300/3/4 302/3/4
f 302/3/4 300/3/4 303/3/4
f 292/3/4 302/3/4 305/3/4
f 300/4/4 301/4/4 306/4/4
f 303/3/4 300/3/4 306/3/4
f 301/3/4 293/3/4 307/3/4
f 306/4/4 301/4/4 307/4/4
f 294/3/4 299/3/4 308/3/4
f 308/3/4 299/3/4 309/3/4
f 304/3/4 305/3/4 310/3/4
f 305/3/4 302/3/4 310/3/4
f 302/4/4 303/4/4 310/4/4
f 310/4/4 303/4/4 311/4/4
f 311/4/4 303/4/4 312/4/4
f 303/3/4 306/3/4 313/3/4
f 312/4/4 303/4/4 313/4/4
f 306/3/4 307/3/4 313/3/4
f 313/3/4 307/3/4 314/3/4
f 293/4/4 294/4/4 315/4/4
f 294/3/4 308/3/4 316/3/4
f 315/4/4 294/4/4 316/4/4
f 310/3/4 311/3/4 317/3/4
f 304/3/4 310/3/4 317/3/4
f 317/3/4 311/3/4 318/3/4
f 318/3/4 311/3/4 319/3/4
f 319/3/4 311/3/4 320/3/4
f 320/3/4 311/3/4 321/3/4
f 311/4/4 312/4/4 322/4/4
f 321/3/4 311/3/4 322/3/4
f 312/1/4 313/1/4 323/1/4
f 322/4/4 312/4/4 323/4/4
f 313/1/4 314/1/4 323/1/4
f 304/3/4 317/3/4 324/3/4
f 317/1/4 318/1/4 325/1/4
f 324/3/4 317/3/4 325/3/4
f 318/3/4 319/3/4 326/3/4
f 325/1/4 318/1/4 326/1/4
f 319/4/4 320/4/4 327/4/4
f 326/3/4 319/3/4 327/3/4
f 320/1/4 321/1/4 328/1/4
f 327/4/4 320/4/4 328/4/4
f 321/3/4 322/3/4 329/3/4
f 328/1/4 321/1/4 329/1/4
f 322/1/4 323/1/4 330/1/4
f 329/3/4 322/3/4 330/3/4
f 314/3/4 307/3/4 331/3/4
f 330/1/4 323/1/4 331/1/4
f 323/1/4 314/1/4 331/1/4
f 307/3/4 293/3/4 332/3/4
f 331/3/4 307/3/4 332/3/4
f 293/4/4 315/4/4 332/4/4
f 315/3/4 316/3/4 333/3/4
f 332/4/4 315/4/4 333/4/4
f 333/3/4 316/3/4 334/3/4
f 332/3/4 333/3/4 334/3/4
f 316/3/4 308/3/4 335/3/4
f 334/3/4 316/3/4 335/3/4
f 332/3/4 334/3/4 336/3/4
f 334/4/4 335/4/4 336/4/4
f 336/4/4 335/4/4 337/4/4
f 336/3/4 337/3/4 338/3/4
f 338/3/4 337/3/4 339/3/4
f 332/3/4 336/3/4 340/3/4
f 336/3/4 338/3/4 340/3/4
f 338/4/4 339/4/4 341/4/4
f 340/3/4 338/3/4 341/3/4
f 340/4/4 341/4/4 342/4/4
f 341/4/4 339/4/4 342/4/4
f 342/4/4 339/4/4 343/4/4
f 332/3/4 340/3/4 344/3/4
f 340/4/4 342/4/4 344/4/4
f 342/3/4 343/3/4 345/3/4
f 344/4/4 342/4/4 345/4/4
f 344/3/4 345/3/4 346/3/4
f 345/3/4 343/3/4 346/3/4
f 346/3/4 343/3/4 347/3/4
f 344/3/4 346/3/4 348/3/4
f 346/4/4 347/4/4 348/4/4
f 348/4/4 347/4/4 349/4/4
f 332/3/4 344/3/4 350/3/4
f 344/3/4 348/3/4 350/3/4
f 348/3/4 349/3/4 350/3/4
f 350/3/4 349/3/4 351/3/4
f 352/3/4 353/3/4 356/3/4
f 356/3/4 353/3/4 357/3/4
f 356/4/4 357/4/4 358/4/4
f 357/3/4 353/3/4 359/3/4
f 358/4/4 357/4/4 359/4/4
f 358/3/4 359/3/4 360/3/4
f 359/3/4 353/3/4 361/3/4
f 360/3/4 359/3/4 361/3/4
f 360/4/4 361/4/4 362/4/4
f 361/3/4 353/3/4 363/3/4
f 362/4/4 361/4/4 363/4/4
f 363/3/4 353/3/4 364/3/4
f 354/7/4 355/7/4 365/7/4
f 365/7/4 355/7/4 366/7/4
f 367/7/4 368/7/4 369/7/4
f 369/7/4 368/7/4 370/7/4
f 375/3/5 372/3/5 371/3/5
f 376/3/5 372/3/5 375/3/5
f 377/3/5 374/3/5 373/3/5
f 378/3/5 374/3/5 377/3/5
f 381/3/5 380/3/5 379/3/5
f 382/3/5 380/3/5 381/3/5
f 391/3/5 384/3/5 383/3/5
f 391/1/5 385/1/5 384/1/5
f 392/3/5 386/3/5 385/3/5
f 392/1/5 385/1/5 391/1/5
f 393/4/5 389/4/5 388/4/5
f 393/3/5 388/3/5 387/3/5
f 394/3/5 390/3/5 389/3/5
f 394/4/5 389/4/5 393/4/5
f 395/3/5 393/3/5 387/3/5
f 395/3/5 394/3/5 393/3/5
f 396/3/5 391/3/5 383/3/5
f 396/3/5 392/3/5 391/3/5
f 397/3/5 386/3/5 392/3/5
f 397/3/5 392/3/5 396/3/5
f 398/3/5 394/3/5 395/3/5
f 399/3/5 390/3/5 394/3/5
f 399/3/5 394/3/5 398/3/5
f 403/3/5 401/3/5 400/3/5
f 403/1/5 402/1/5 401/1/5
f 404/1/5 402/1/5 403/1/5
f 405/3/5 403/3/5 400/3/5
f 405/3/5 404/3/5 403/3/5
f 406/3/5 404/3/5 405/3/5
f 407/3/5 405/3/5 400/3/5
f 409/3/5 404/3/5 406/3/5
f 410/3/5 404/3/5 409/3/5
f 411/3/5 407/3/5 400/3/5
f 412/4/5 408/4/5 407/4/5
f 412/3/5 407/3/5 411/3/5
f 413/3/5 409/3/5 408/3/5
f 413/4/5 408/4/5 412/4/5
f 414/4/5 410/4/5 409/4/5
f 414/3/5 409/3/5 413/3/5
f 415/4/5 410/4/5 414/4/5
f 418/7/5 417/7/5 416/7/5
f 419/7/5 417/7/5 418/7/5
f 422/3/6 423/3/6 424/3/6
f 424/3/6 423/3/6 425/3/6
f 420/3/6 421/3/6 426/3/6
f 426/3/6 421/3/6 427/3/6
f 422/3/6 424/3/6 428/3/6
f 424/4/6 425/4/6 429/4/6
f 428/3/6 424/3/6 429/3/6
f 429/4/6 425/4/6 430/4/6
f 431/3/6 432/3/6 443/3/6
f 432/1/6 433/1/6 443/1/6
f 433/3/6 434/3/6 444/3/6
f 443/1/6 433/1/6 444/1/6
f 434/4/6 435/4/6 445/4/6
f 444/3/6 434/3/6 445/3/6
f 435/3/6 436/3/6 446/3/6
f 445/4/6 435/4/6 446/4/6
f 440/4/6 441/4/6 447/4/6
f 439/3/6 440/3/6 447/3/6
f 441/3/6 442/3/6 448/3/6
f 447/4/6 441/4/6 448/4/6
f 431/3/6 443/3/6 449/3/6
f 443/3/6 444/3/6 449/3/6
f 444/3/6 445/3/6 449/3/6
f 445/3/6 446/3/6 449/3/6
f 449/3/6 446/3/6 450/3/6
f 450/3/6 446/3/6 451/3/6
f 451/3/6 446/3/6 452/3/6
f 437/3/6 438/3/6 453/3/6
f 453/3/6 438/3/6 454/3/6
f 448/3/6 442/3/6 455/3/6
f 447/3/6 448/3/6 455/3/6
f 455/3/6 442/3/6 456/3/6
f 431/3/6 449/3/6 457/3/6
f 449/4/6 450/4/6 458/4/6
f 457/3/6 449/3/6 458/3/6
f 450/3/6 451/3/6 459/3/6
f 458/4/6 450/4/6 459/4/6
f 451/4/6 452/4/6 460/4/6
f 459/3/6 451/3/6 460/3/6
f 452/3/6 446/3/6 461/3/6
f 460/4/6 452/4/6 461/4/6
f 446/3/6 436/3/6 462/3/6
f 461/3/6 446/3/6 462/3/6
f 437/3/6 453/3/6 463/3/6
f 453/4/6 454/4/6 464/4/6
f 463/3/6 453/3/6 464/3/6
f 454/3/6 438/3/6 465/3/6
f 464/4/6 454/4/6 465/4/6
f 438/4/6 439/4/6 466/4/6
f 465/3/6 438/3/6 466/3/6
f 439/3/6 447/3/6 467/3/6
f 466/4/6 439/4/6 467/4/6
f 447/3/6 455/3/6 467/3/6
f 455/4/6 456/4/6 468/4/6
f 467/3/6 455/3/6 468/3/6
f 456/3/6 442/3/6 469/3/6
f 468/4/6 456/4/6 469/4/6
f 469/3/6 442/3/6 470/3/6
f 471/7/6 472/7/6 473/7/6
f 473/7/6 472/7/6 474/7/6
f 475/7/6 476/7/6 477/7/6
f 477/7/6 476/7/6 478/7/6
