# MagicaVoxel @ Ephtracy

# group
g tree-7

# material
mtllib tree-7.mtl
usemtl palette

# normals
vn -1 0 0
vn 1 0 0
vn 0 0 1
vn 0 0 -1
vn 0 -1 0
vn 0 1 0

# texcoords
vt 0.494141 0.5
vt 0.591797 0.5
vt 0.908203 0.5

# verts
v -2.5 1 2
v -2.5 1 1
v -2.5 1 -2
v -2.5 2 2
v -2.5 2 1
v -2.5 2 -1
v -2.5 2 -2
v -2.5 3 2
v -2.5 3 1
v -2.5 3 -1
v -2.5 3 -2
v -2.5 4 2
v -2.5 4 1
v -2.5 4 -2
v -1.5 2 3
v -1.5 2 2
v -1.5 3 2
v -1.5 4 2
v -1.5 4 1
v -1.5 5 3
v -1.5 5 1
v -0.5 0 -0
v -0.5 0 -1
v -0.5 1 -0
v -0.5 1 -1
v -0.5 1 -2
v -0.5 1 -3
v -0.5 2 -2
v -0.5 2 -3
v -0.5 3 -2
v -0.5 3 -3
v -0.5 4 -2
v -0.5 4 -3
v 0.5 0 -0
v 0.5 0 -1
v 0.5 1 -0
v 0.5 1 -1
v 1.5 1 -2
v 1.5 1 -3
v 1.5 2 3
v 1.5 2 2
v 1.5 2 1
v 1.5 2 -0
v 1.5 2 -2
v 1.5 2 -3
v 1.5 3 1
v 1.5 3 -0
v 1.5 4 2
v 1.5 4 1
v 1.5 5 3
v 1.5 5 2
v 1.5 5 1
v 2.5 1 2
v 2.5 1 1
v 2.5 1 -2
v 2.5 2 2
v 2.5 2 1
v 2.5 2 -0
v 2.5 2 -1
v 2.5 2 -2
v 2.5 2 -3
v 2.5 3 1
v 2.5 3 -0
v 2.5 3 -1
v 2.5 3 -2
v 2.5 3 -3
v 2.5 4 2
v 2.5 4 -2
v 2.5 4 -3
v -1.5 2 3
v -1.5 5 3
v -0.5 3 3
v -0.5 4 3
v 0.5 3 3
v 0.5 4 3
v 1.5 2 3
v 1.5 5 3
v -2.5 1 2
v -2.5 2 2
v -2.5 3 2
v -2.5 4 2
v -1.5 1 2
v -1.5 2 2
v -1.5 3 2
v -1.5 4 2
v 1.5 1 2
v 1.5 2 2
v 1.5 4 2
v 2.5 1 2
v 2.5 2 2
v 2.5 4 2
v -0.5 0 -0
v -0.5 1 -0
v 0.5 0 -0
v 0.5 1 -0
v 1.5 2 -0
v 1.5 3 -0
v 2.5 2 -0
v 2.5 3 -0
v -1.5 4 1
v -1.5 5 1
v 0.5 4 1
v 0.5 5 1
v 1.5 2 1
v 1.5 3 1
v 1.5 4 1
v 1.5 5 1
v 2.5 2 1
v 2.5 3 1
v -0.5 0 -1
v -0.5 1 -1
v 0.5 0 -1
v 0.5 1 -1
v -2.5 1 -2
v -2.5 2 -2
v -2.5 3 -2
v -2.5 4 -2
v -1.5 2 -2
v -1.5 3 -2
v -0.5 1 -2
v -0.5 2 -2
v -0.5 3 -2
v -0.5 4 -2
v 1.5 1 -2
v 1.5 2 -2
v 2.5 1 -2
v 2.5 2 -2
v -0.5 1 -3
v -0.5 2 -3
v -0.5 3 -3
v -0.5 4 -3
v 0.5 2 -3
v 0.5 3 -3
v 1.5 1 -3
v 1.5 2 -3
v 1.5 3 -3
v 1.5 4 -3
v 2.5 2 -3
v 2.5 3 -3
v 2.5 4 -3
v -0.5 0 -0
v 0.5 0 -0
v -0.5 0 -1
v 0.5 0 -1
v -2.5 1 2
v -1.5 1 2
v 1.5 1 2
v 2.5 1 2
v -2.5 1 1
v -1.5 1 1
v 1.5 1 1
v 2.5 1 1
v -0.5 1 -0
v 0.5 1 -0
v -0.5 1 -1
v 0.5 1 -1
v -2.5 1 -2
v -0.5 1 -2
v 1.5 1 -2
v 2.5 1 -2
v -0.5 1 -3
v 1.5 1 -3
v -1.5 2 3
v 1.5 2 3
v -1.5 2 2
v 1.5 2 2
v 1.5 2 -2
v 2.5 2 -2
v 1.5 2 -3
v 2.5 2 -3
v 1.5 3 1
v 2.5 3 1
v 1.5 3 -0
v 2.5 3 -0
v 1.5 2 1
v 2.5 2 1
v 1.5 2 -0
v 2.5 2 -0
v -2.5 4 2
v -1.5 4 2
v 1.5 4 2
v 2.5 4 2
v -2.5 4 1
v -1.5 4 1
v 0.5 4 1
v 1.5 4 1
v -0.5 4 -0
v 0.5 4 -0
v -0.5 4 -1
v 0.5 4 -1
v -2.5 4 -2
v -0.5 4 -2
v 1.5 4 -2
v 2.5 4 -2
v -0.5 4 -3
v 1.5 4 -3
v 2.5 4 -3
v -1.5 5 3
v 1.5 5 3
v 0.5 5 2
v 1.5 5 2
v -1.5 5 1
v 0.5 5 1
v 1.5 5 1

# faces
f 4/1/1 2/1/1 1/1/1
f 5/2/1 3/2/1 2/2/1
f 5/1/1 2/1/1 4/1/1
f 6/2/1 3/2/1 5/2/1
f 7/2/1 3/2/1 6/2/1
f 8/2/1 5/2/1 4/2/1
f 8/2/1 6/2/1 5/2/1
f 9/2/1 6/2/1 8/2/1
f 10/1/1 7/1/1 6/1/1
f 10/2/1 6/2/1 9/2/1
f 11/1/1 7/1/1 10/1/1
f 12/1/1 9/1/1 8/1/1
f 13/2/1 10/2/1 9/2/1
f 13/1/1 9/1/1 12/1/1
f 13/2/1 11/2/1 10/2/1
f 14/2/1 11/2/1 13/2/1
f 17/2/1 16/2/1 15/2/1
f 18/2/1 17/2/1 15/2/1
f 20/2/1 18/2/1 15/2/1
f 20/2/1 19/2/1 18/2/1
f 21/2/1 19/2/1 20/2/1
f 24/3/1 23/3/1 22/3/1
f 25/3/1 23/3/1 24/3/1
f 28/2/1 27/2/1 26/2/1
f 29/2/1 27/2/1 28/2/1
f 30/1/1 29/1/1 28/1/1
f 31/1/1 29/1/1 30/1/1
f 32/2/1 31/2/1 30/2/1
f 33/2/1 31/2/1 32/2/1
f 34/3/2 35/3/2 36/3/2
f 36/3/2 35/3/2 37/3/2
f 38/2/2 39/2/2 44/2/2
f 44/2/2 39/2/2 45/2/2
f 42/2/2 43/2/2 46/2/2
f 46/2/2 43/2/2 47/2/2
f 40/2/2 41/2/2 48/2/2
f 40/2/2 48/2/2 50/2/2
f 48/1/2 49/1/2 51/1/2
f 50/2/2 48/2/2 51/2/2
f 51/1/2 49/1/2 52/1/2
f 53/1/2 54/1/2 56/1/2
f 54/2/2 55/2/2 57/2/2
f 56/1/2 54/1/2 57/1/2
f 57/2/2 55/2/2 58/2/2
f 58/2/2 55/2/2 59/2/2
f 59/2/2 55/2/2 60/2/2
f 56/2/2 57/2/2 62/2/2
f 58/2/2 59/2/2 63/2/2
f 59/1/2 60/1/2 64/1/2
f 63/2/2 59/2/2 64/2/2
f 60/2/2 61/2/2 65/2/2
f 64/1/2 60/1/2 65/1/2
f 65/2/2 61/2/2 66/2/2
f 63/2/2 64/2/2 67/2/2
f 62/2/2 63/2/2 67/2/2
f 56/2/2 62/2/2 67/2/2
f 64/2/2 65/2/2 67/2/2
f 65/1/2 66/1/2 68/1/2
f 67/2/2 65/2/2 68/2/2
f 68/1/2 66/1/2 69/1/2
f 72/2/3 71/2/3 70/2/3
f 73/2/3 71/2/3 72/2/3
f 74/2/3 72/2/3 70/2/3
f 74/1/3 73/1/3 72/1/3
f 75/2/3 71/2/3 73/2/3
f 75/1/3 73/1/3 74/1/3
f 76/2/3 74/2/3 70/2/3
f 76/2/3 75/2/3 74/2/3
f 77/2/3 71/2/3 75/2/3
f 77/2/3 75/2/3 76/2/3
f 82/1/3 79/1/3 78/1/3
f 83/2/3 80/2/3 79/2/3
f 83/1/3 79/1/3 82/1/3
f 84/1/3 81/1/3 80/1/3
f 84/2/3 80/2/3 83/2/3
f 85/1/3 81/1/3 84/1/3
f 86/2/3 83/2/3 82/2/3
f 87/2/3 83/2/3 86/2/3
f 89/1/3 87/1/3 86/1/3
f 90/2/3 88/2/3 87/2/3
f 90/1/3 87/1/3 89/1/3
f 91/2/3 88/2/3 90/2/3
f 94/3/3 93/3/3 92/3/3
f 95/3/3 93/3/3 94/3/3
f 98/2/3 97/2/3 96/2/3
f 99/2/3 97/2/3 98/2/3
f 100/2/4 101/2/4 102/2/4
f 102/2/4 101/2/4 103/2/4
f 102/1/4 103/1/4 106/1/4
f 106/1/4 103/1/4 107/1/4
f 104/2/4 105/2/4 108/2/4
f 108/2/4 105/2/4 109/2/4
f 110/3/4 111/3/4 112/3/4
f 112/3/4 111/3/4 113/3/4
f 114/2/4 115/2/4 118/2/4
f 115/1/4 116/1/4 118/1/4
f 116/2/4 117/2/4 119/2/4
f 118/1/4 116/1/4 119/1/4
f 114/2/4 118/2/4 120/2/4
f 118/2/4 119/2/4 120/2/4
f 120/2/4 119/2/4 121/2/4
f 119/2/4 117/2/4 122/2/4
f 121/2/4 119/2/4 122/2/4
f 122/2/4 117/2/4 123/2/4
f 124/2/4 125/2/4 126/2/4
f 126/2/4 125/2/4 127/2/4
f 128/2/4 129/2/4 132/2/4
f 129/1/4 130/1/4 132/1/4
f 130/2/4 131/2/4 133/2/4
f 132/1/4 130/1/4 133/1/4
f 128/2/4 132/2/4 134/2/4
f 132/2/4 133/2/4 134/2/4
f 134/2/4 133/2/4 135/2/4
f 133/2/4 131/2/4 136/2/4
f 135/2/4 133/2/4 136/2/4
f 136/2/4 131/2/4 137/2/4
f 135/2/4 136/2/4 138/2/4
f 136/1/4 137/1/4 139/1/4
f 138/2/4 136/2/4 139/2/4
f 139/1/4 137/1/4 140/1/4
f 143/3/5 142/3/5 141/3/5
f 144/3/5 142/3/5 143/3/5
f 149/1/5 146/1/5 145/1/5
f 150/2/5 147/2/5 146/2/5
f 150/1/5 146/1/5 149/1/5
f 151/1/5 148/1/5 147/1/5
f 151/2/5 147/2/5 150/2/5
f 152/1/5 148/1/5 151/1/5
f 153/2/5 150/2/5 149/2/5
f 153/2/5 151/2/5 150/2/5
f 153/2/5 152/2/5 151/2/5
f 154/2/5 152/2/5 153/2/5
f 155/2/5 153/2/5 149/2/5
f 156/2/5 152/2/5 154/2/5
f 157/2/5 155/2/5 149/2/5
f 157/2/5 156/2/5 155/2/5
f 158/2/5 156/2/5 157/2/5
f 159/2/5 152/2/5 156/2/5
f 159/2/5 156/2/5 158/2/5
f 160/2/5 152/2/5 159/2/5
f 161/2/5 159/2/5 158/2/5
f 162/2/5 159/2/5 161/2/5
f 165/2/5 164/2/5 163/2/5
f 166/2/5 164/2/5 165/2/5
f 169/2/5 168/2/5 167/2/5
f 170/2/5 168/2/5 169/2/5
f 173/2/5 172/2/5 171/2/5
f 174/2/5 172/2/5 173/2/5
f 175/2/6 176/2/6 177/2/6
f 177/2/6 176/2/6 178/2/6
f 179/1/6 180/1/6 183/1/6
f 183/1/6 180/1/6 184/1/6
f 181/2/6 182/2/6 186/2/6
f 184/2/6 185/2/6 187/2/6
f 185/2/6 186/2/6 187/2/6
f 183/2/6 184/2/6 187/2/6
f 187/2/6 186/2/6 188/2/6
f 183/2/6 187/2/6 189/2/6
f 187/1/6 188/1/6 189/1/6
f 188/2/6 186/2/6 190/2/6
f 189/1/6 188/1/6 190/1/6
f 183/2/6 189/2/6 191/2/6
f 189/2/6 190/2/6 191/2/6
f 191/2/6 190/2/6 192/2/6
f 186/2/6 182/2/6 193/2/6
f 192/2/6 190/2/6 193/2/6
f 190/2/6 186/2/6 193/2/6
f 193/2/6 182/2/6 194/2/6
f 192/2/6 193/2/6 195/2/6
f 193/1/6 194/1/6 196/1/6
f 195/2/6 193/2/6 196/2/6
f 196/1/6 194/1/6 197/1/6
f 198/2/6 199/2/6 200/2/6
f 200/2/6 199/2/6 201/2/6
f 198/2/6 200/2/6 202/2/6
f 200/1/6 201/1/6 203/1/6
f 202/2/6 200/2/6 203/2/6
f 203/1/6 201/1/6 204/1/6
