# MagicaVoxel @ Ephtracy

# group
g prototype-cornermountain

# material
mtllib prototype-cornermountain.mtl
usemtl palette

# normals
vn -1 0 0
vn 1 0 0
vn 0 0 1
vn 0 0 -1
vn 0 -1 0
vn 0 1 0

# texcoords
vt 0.525391 0.5
vt 0.533203 0.5
vt 0.568359 0.5
vt 0.982422 0.5

# verts
v -20 0 20
v -20 0 7
v -20 0 6
v -20 0 -20
v -20 1 20
v -20 1 7
v -20 1 6
v -20 1 -0
v -20 1 -18
v -20 1 -20
v -20 5 -0
v -20 5 -18
v -20 16 -0
v -20 16 -20
v -20 21 -0
v -20 21 -20
v -20 25 -0
v -20 25 -20
v -17 1 1
v -17 1 -0
v -17 5 1
v -17 5 -0
v -17 16 1
v -17 16 -0
v -17 21 1
v -17 21 -0
v -17 25 1
v -17 25 -0
v -14 1 2
v -14 1 1
v -14 5 2
v -14 5 1
v -14 16 2
v -14 16 1
v -14 21 2
v -14 21 1
v -14 25 2
v -14 25 1
v -8 1 2
v -8 1 1
v -8 5 2
v -8 5 1
v -8 16 2
v -8 16 1
v -8 21 2
v -8 21 1
v -8 25 2
v -8 25 1
v -5 1 3
v -5 1 2
v -5 5 3
v -5 5 2
v -5 16 3
v -5 16 2
v -5 21 3
v -5 21 2
v -5 25 3
v -5 25 2
v -4 1 4
v -4 1 3
v -4 5 4
v -4 5 3
v -4 16 4
v -4 16 3
v -4 21 4
v -4 21 3
v -4 25 4
v -4 25 3
v -3 1 5
v -3 1 4
v -3 5 5
v -3 5 4
v -3 16 5
v -3 16 4
v -3 21 5
v -3 21 4
v -3 25 5
v -3 25 4
v -2 1 6
v -2 1 5
v -2 5 6
v -2 5 5
v -2 16 6
v -2 16 5
v -2 21 6
v -2 21 5
v -2 25 6
v -2 25 5
v -1 1 10
v -1 1 6
v -1 5 10
v -1 5 6
v -1 16 10
v -1 16 6
v -1 21 10
v -1 21 6
v -1 25 10
v -1 25 6
v 0 1 20
v 0 1 17
v 0 1 14
v 0 1 10
v 0 5 20
v 0 5 17
v 0 5 14
v 0 5 10
v 0 16 20
v 0 16 17
v 0 16 14
v 0 16 10
v 0 21 20
v 0 21 17
v 0 21 14
v 0 21 10
v 0 25 20
v 0 25 17
v 0 25 14
v 0 25 10
v 1 1 17
v 1 1 14
v 1 5 17
v 1 5 14
v 1 16 17
v 1 16 14
v 1 21 17
v 1 21 14
v 1 25 17
v 1 25 14
v -10 1 2
v -10 1 1
v -10 5 2
v -10 5 1
v -10 16 2
v -10 16 1
v -10 21 2
v -10 21 1
v -10 25 2
v -10 25 1
v 20 0 20
v 20 0 -20
v 20 1 -18
v 20 1 -20
v 20 5 20
v 20 5 -18
v 20 16 20
v 20 16 -20
v 20 21 20
v 20 21 -20
v 20 25 20
v 20 25 -20
v -20 0 20
v -20 1 20
v 0 1 20
v 0 5 20
v 0 16 20
v 0 21 20
v 0 25 20
v 20 0 20
v 20 5 20
v 20 16 20
v 20 21 20
v 20 25 20
v 0 1 14
v 0 5 14
v 0 16 14
v 0 21 14
v 0 25 14
v 1 1 14
v 1 5 14
v 1 16 14
v 1 21 14
v 1 25 14
v -1 1 10
v -1 5 10
v -1 16 10
v -1 21 10
v -1 25 10
v 0 1 10
v 0 5 10
v 0 16 10
v 0 21 10
v 0 25 10
v -2 1 6
v -2 5 6
v -2 16 6
v -2 21 6
v -2 25 6
v -1 1 6
v -1 5 6
v -1 16 6
v -1 21 6
v -1 25 6
v -3 1 5
v -3 5 5
v -3 16 5
v -3 21 5
v -3 25 5
v -2 1 5
v -2 5 5
v -2 16 5
v -2 21 5
v -2 25 5
v -4 1 4
v -4 5 4
v -4 16 4
v -4 21 4
v -4 25 4
v -3 1 4
v -3 5 4
v -3 16 4
v -3 21 4
v -3 25 4
v -5 1 3
v -5 5 3
v -5 16 3
v -5 21 3
v -5 25 3
v -4 1 3
v -4 5 3
v -4 16 3
v -4 21 3
v -4 25 3
v -14 1 2
v -14 5 2
v -14 16 2
v -14 21 2
v -14 25 2
v -10 1 2
v -10 5 2
v -10 16 2
v -10 21 2
v -10 25 2
v -8 1 2
v -8 5 2
v -8 16 2
v -8 21 2
v -8 25 2
v -5 1 2
v -5 5 2
v -5 16 2
v -5 21 2
v -5 25 2
v -17 1 1
v -17 5 1
v -17 16 1
v -17 21 1
v -17 25 1
v -14 1 1
v -14 5 1
v -14 16 1
v -14 21 1
v -14 25 1
v -10 1 1
v -10 5 1
v -10 16 1
v -10 21 1
v -10 25 1
v -8 1 1
v -8 5 1
v -8 16 1
v -8 21 1
v -8 25 1
v -20 1 -0
v -20 5 -0
v -20 16 -0
v -20 21 -0
v -20 25 -0
v -17 1 -0
v -17 5 -0
v -17 16 -0
v -17 21 -0
v -17 25 -0
v 0 1 17
v 0 5 17
v 0 16 17
v 0 21 17
v 0 25 17
v 1 1 17
v 1 5 17
v 1 16 17
v 1 21 17
v 1 25 17
v -20 0 -20
v -20 1 -20
v -20 16 -20
v -20 21 -20
v -20 25 -20
v 20 0 -20
v 20 1 -20
v 20 16 -20
v 20 21 -20
v 20 25 -20
v -20 0 20
v 20 0 20
v -15 0 19
v -14 0 19
v -4 0 19
v -3 0 19
v -15 0 18
v -14 0 18
v -4 0 18
v -3 0 18
v -19 0 17
v -18 0 17
v -10 0 17
v -9 0 17
v -19 0 16
v -18 0 16
v -10 0 16
v -9 0 16
v -2 0 15
v -1 0 15
v -2 0 14
v -1 0 14
v -12 0 12
v -11 0 12
v -7 0 12
v -6 0 12
v -12 0 11
v -11 0 11
v -7 0 11
v -6 0 11
v -16 0 10
v -15 0 10
v -16 0 9
v -15 0 9
v -11 0 8
v -10 0 8
v -20 0 7
v -19 0 7
v -11 0 7
v -10 0 7
v -6 0 7
v -5 0 7
v -20 0 6
v -19 0 6
v -6 0 6
v -5 0 6
v -16 0 5
v -15 0 5
v -16 0 4
v -15 0 4
v -20 0 -20
v 20 0 -20
v -20 1 20
v 0 1 20
v -15 1 19
v -14 1 19
v -4 1 19
v -3 1 19
v -15 1 18
v -14 1 18
v -4 1 18
v -3 1 18
v -19 1 17
v -18 1 17
v -10 1 17
v -9 1 17
v 0 1 17
v 1 1 17
v -19 1 16
v -18 1 16
v -10 1 16
v -9 1 16
v -2 1 15
v -1 1 15
v -2 1 14
v -1 1 14
v 0 1 14
v 1 1 14
v -12 1 12
v -11 1 12
v -7 1 12
v -6 1 12
v -12 1 11
v -11 1 11
v -7 1 11
v -6 1 11
v -16 1 10
v -15 1 10
v -1 1 10
v 0 1 10
v -16 1 9
v -15 1 9
v -11 1 8
v -10 1 8
v -20 1 7
v -19 1 7
v -11 1 7
v -10 1 7
v -6 1 7
v -5 1 7
v -20 1 6
v -19 1 6
v -6 1 6
v -5 1 6
v -2 1 6
v -1 1 6
v -16 1 5
v -15 1 5
v -3 1 5
v -2 1 5
v -16 1 4
v -15 1 4
v -4 1 4
v -3 1 4
v -5 1 3
v -4 1 3
v -14 1 2
v -10 1 2
v -8 1 2
v -5 1 2
v -17 1 1
v -14 1 1
v -10 1 1
v -8 1 1
v -20 1 -0
v -17 1 -0
v 0 25 20
v 20 25 20
v 0 25 17
v 1 25 17
v 0 25 14
v 1 25 14
v -1 25 10
v 0 25 10
v -2 25 6
v -1 25 6
v -3 25 5
v -2 25 5
v -4 25 4
v -3 25 4
v -5 25 3
v -4 25 3
v -14 25 2
v -10 25 2
v -8 25 2
v -5 25 2
v -17 25 1
v -14 25 1
v -10 25 1
v -8 25 1
v -20 25 -0
v -17 25 -0
v -20 25 -20
v 20 25 -20

# faces
f 5/3/1 2/3/1 1/3/1
f 6/1/1 3/1/1 2/1/1
f 6/3/1 2/3/1 5/3/1
f 7/3/1 4/3/1 3/3/1
f 7/1/1 3/1/1 6/1/1
f 8/3/1 4/3/1 7/3/1
f 9/3/1 4/3/1 8/3/1
f 10/3/1 4/3/1 9/3/1
f 11/3/1 9/3/1 8/3/1
f 12/1/1 10/1/1 9/1/1
f 12/3/1 9/3/1 11/3/1
f 13/1/1 12/1/1 11/1/1
f 14/1/1 10/1/1 12/1/1
f 14/1/1 12/1/1 13/1/1
f 15/2/1 14/2/1 13/2/1
f 16/2/1 14/2/1 15/2/1
f 17/4/1 16/4/1 15/4/1
f 18/4/1 16/4/1 17/4/1
f 21/3/1 20/3/1 19/3/1
f 22/3/1 20/3/1 21/3/1
f 23/1/1 22/1/1 21/1/1
f 24/1/1 22/1/1 23/1/1
f 25/2/1 24/2/1 23/2/1
f 26/2/1 24/2/1 25/2/1
f 27/4/1 26/4/1 25/4/1
f 28/4/1 26/4/1 27/4/1
f 31/3/1 30/3/1 29/3/1
f 32/3/1 30/3/1 31/3/1
f 33/1/1 32/1/1 31/1/1
f 34/1/1 32/1/1 33/1/1
f 35/2/1 34/2/1 33/2/1
f 36/2/1 34/2/1 35/2/1
f 37/4/1 36/4/1 35/4/1
f 38/4/1 36/4/1 37/4/1
f 41/3/1 40/3/1 39/3/1
f 42/3/1 40/3/1 41/3/1
f 43/1/1 42/1/1 41/1/1
f 44/1/1 42/1/1 43/1/1
f 45/2/1 44/2/1 43/2/1
f 46/2/1 44/2/1 45/2/1
f 47/4/1 46/4/1 45/4/1
f 48/4/1 46/4/1 47/4/1
f 51/3/1 50/3/1 49/3/1
f 52/3/1 50/3/1 51/3/1
f 53/1/1 52/1/1 51/1/1
f 54/1/1 52/1/1 53/1/1
f 55/2/1 54/2/1 53/2/1
f 56/2/1 54/2/1 55/2/1
f 57/4/1 56/4/1 55/4/1
f 58/4/1 56/4/1 57/4/1
f 61/3/1 60/3/1 59/3/1
f 62/3/1 60/3/1 61/3/1
f 63/1/1 62/1/1 61/1/1
f 64/1/1 62/1/1 63/1/1
f 65/2/1 64/2/1 63/2/1
f 66/2/1 64/2/1 65/2/1
f 67/4/1 66/4/1 65/4/1
f 68/4/1 66/4/1 67/4/1
f 71/3/1 70/3/1 69/3/1
f 72/3/1 70/3/1 71/3/1
f 73/1/1 72/1/1 71/1/1
f 74/1/1 72/1/1 73/1/1
f 75/2/1 74/2/1 73/2/1
f 76/2/1 74/2/1 75/2/1
f 77/4/1 76/4/1 75/4/1
f 78/4/1 76/4/1 77/4/1
f 81/3/1 80/3/1 79/3/1
f 82/3/1 80/3/1 81/3/1
f 83/1/1 82/1/1 81/1/1
f 84/1/1 82/1/1 83/1/1
f 85/2/1 84/2/1 83/2/1
f 86/2/1 84/2/1 85/2/1
f 87/4/1 86/4/1 85/4/1
f 88/4/1 86/4/1 87/4/1
f 91/3/1 90/3/1 89/3/1
f 92/3/1 90/3/1 91/3/1
f 93/1/1 92/1/1 91/1/1
f 94/1/1 92/1/1 93/1/1
f 95/2/1 94/2/1 93/2/1
f 96/2/1 94/2/1 95/2/1
f 97/4/1 96/4/1 95/4/1
f 98/4/1 96/4/1 97/4/1
f 103/3/1 100/3/1 99/3/1
f 104/3/1 100/3/1 103/3/1
f 105/3/1 102/3/1 101/3/1
f 106/3/1 102/3/1 105/3/1
f 107/1/1 104/1/1 103/1/1
f 108/1/1 104/1/1 107/1/1
f 109/1/1 106/1/1 105/1/1
f 110/1/1 106/1/1 109/1/1
f 111/2/1 108/2/1 107/2/1
f 112/2/1 108/2/1 111/2/1
f 113/2/1 110/2/1 109/2/1
f 114/2/1 110/2/1 113/2/1
f 115/4/1 112/4/1 111/4/1
f 116/4/1 112/4/1 115/4/1
f 117/4/1 114/4/1 113/4/1
f 118/4/1 114/4/1 117/4/1
f 121/3/1 120/3/1 119/3/1
f 122/3/1 120/3/1 121/3/1
f 123/1/1 122/1/1 121/1/1
f 124/1/1 122/1/1 123/1/1
f 125/2/1 124/2/1 123/2/1
f 126/2/1 124/2/1 125/2/1
f 127/4/1 126/4/1 125/4/1
f 128/4/1 126/4/1 127/4/1
f 129/3/2 130/3/2 131/3/2
f 131/3/2 130/3/2 132/3/2
f 131/1/2 132/1/2 133/1/2
f 133/1/2 132/1/2 134/1/2
f 133/2/2 134/2/2 135/2/2
f 135/2/2 134/2/2 136/2/2
f 135/4/2 136/4/2 137/4/2
f 137/4/2 136/4/2 138/4/2
f 139/3/2 140/3/2 141/3/2
f 141/3/2 140/3/2 142/3/2
f 139/3/2 141/3/2 143/3/2
f 141/1/2 142/1/2 144/1/2
f 143/3/2 141/3/2 144/3/2
f 143/1/2 144/1/2 145/1/2
f 144/1/2 142/1/2 146/1/2
f 145/1/2 144/1/2 146/1/2
f 145/2/2 146/2/2 147/2/2
f 147/2/2 146/2/2 148/2/2
f 147/4/2 148/4/2 149/4/2
f 149/4/2 148/4/2 150/4/2
f 153/3/3 152/3/3 151/3/3
f 158/3/3 153/3/3 151/3/3
f 158/3/3 154/3/3 153/3/3
f 159/1/3 155/1/3 154/1/3
f 159/3/3 154/3/3 158/3/3
f 160/2/3 156/2/3 155/2/3
f 160/1/3 155/1/3 159/1/3
f 161/4/3 157/4/3 156/4/3
f 161/2/3 156/2/3 160/2/3
f 162/4/3 157/4/3 161/4/3
f 168/3/3 164/3/3 163/3/3
f 169/1/3 165/1/3 164/1/3
f 169/3/3 164/3/3 168/3/3
f 170/2/3 166/2/3 165/2/3
f 170/1/3 165/1/3 169/1/3
f 171/4/3 167/4/3 166/4/3
f 171/2/3 166/2/3 170/2/3
f 172/4/3 167/4/3 171/4/3
f 178/3/3 174/3/3 173/3/3
f 179/1/3 175/1/3 174/1/3
f 179/3/3 174/3/3 178/3/3
f 180/2/3 176/2/3 175/2/3
f 180/1/3 175/1/3 179/1/3
f 181/4/3 177/4/3 176/4/3
f 181/2/3 176/2/3 180/2/3
f 182/4/3 177/4/3 181/4/3
f 188/3/3 184/3/3 183/3/3
f 189/1/3 185/1/3 184/1/3
f 189/3/3 184/3/3 188/3/3
f 190/2/3 186/2/3 185/2/3
f 190/1/3 185/1/3 189/1/3
f 191/4/3 187/4/3 186/4/3
f 191/2/3 186/2/3 190/2/3
f 192/4/3 187/4/3 191/4/3
f 198/3/3 194/3/3 193/3/3
f 199/1/3 195/1/3 194/1/3
f 199/3/3 194/3/3 198/3/3
f 200/2/3 196/2/3 195/2/3
f 200/1/3 195/1/3 199/1/3
f 201/4/3 197/4/3 196/4/3
f 201/2/3 196/2/3 200/2/3
f 202/4/3 197/4/3 201/4/3
f 208/3/3 204/3/3 203/3/3
f 209/1/3 205/1/3 204/1/3
f 209/3/3 204/3/3 208/3/3
f 210/2/3 206/2/3 205/2/3
f 210/1/3 205/1/3 209/1/3
f 211/4/3 207/4/3 206/4/3
f 211/2/3 206/2/3 210/2/3
f 212/4/3 207/4/3 211/4/3
f 218/3/3 214/3/3 213/3/3
f 219/1/3 215/1/3 214/1/3
f 219/3/3 214/3/3 218/3/3
f 220/2/3 216/2/3 215/2/3
f 220/1/3 215/1/3 219/1/3
f 221/4/3 217/4/3 216/4/3
f 221/2/3 216/2/3 220/2/3
f 222/4/3 217/4/3 221/4/3
f 228/3/3 224/3/3 223/3/3
f 229/1/3 225/1/3 224/1/3
f 229/3/3 224/3/3 228/3/3
f 230/2/3 226/2/3 225/2/3
f 230/1/3 225/1/3 229/1/3
f 231/4/3 227/4/3 226/4/3
f 231/2/3 226/2/3 230/2/3
f 232/4/3 227/4/3 231/4/3
f 238/3/3 234/3/3 233/3/3
f 239/1/3 235/1/3 234/1/3
f 239/3/3 234/3/3 238/3/3
f 240/2/3 236/2/3 235/2/3
f 240/1/3 235/1/3 239/1/3
f 241/4/3 237/4/3 236/4/3
f 241/2/3 236/2/3 240/2/3
f 242/4/3 237/4/3 241/4/3
f 248/3/3 244/3/3 243/3/3
f 249/1/3 245/1/3 244/1/3
f 249/3/3 244/3/3 248/3/3
f 250/2/3 246/2/3 245/2/3
f 250/1/3 245/1/3 249/1/3
f 251/4/3 247/4/3 246/4/3
f 251/2/3 246/2/3 250/2/3
f 252/4/3 247/4/3 251/4/3
f 258/3/3 254/3/3 253/3/3
f 259/1/3 255/1/3 254/1/3
f 259/3/3 254/3/3 258/3/3
f 260/2/3 256/2/3 255/2/3
f 260/1/3 255/1/3 259/1/3
f 261/4/3 257/4/3 256/4/3
f 261/2/3 256/2/3 260/2/3
f 262/4/3 257/4/3 261/4/3
f 268/3/3 264/3/3 263/3/3
f 269/1/3 265/1/3 264/1/3
f 269/3/3 264/3/3 268/3/3
f 270/2/3 266/2/3 265/2/3
f 270/1/3 265/1/3 269/1/3
f 271/4/3 267/4/3 266/4/3
f 271/2/3 266/2/3 270/2/3
f 272/4/3 267/4/3 271/4/3
f 273/3/4 274/3/4 278/3/4
f 274/1/4 275/1/4 279/1/4
f 278/3/4 274/3/4 279/3/4
f 275/2/4 276/2/4 280/2/4
f 279/1/4 275/1/4 280/1/4
f 276/4/4 277/4/4 281/4/4
f 280/2/4 276/2/4 281/2/4
f 281/4/4 277/4/4 282/4/4
f 283/3/4 284/3/4 288/3/4
f 284/1/4 285/1/4 289/1/4
f 288/3/4 284/3/4 289/3/4
f 285/2/4 286/2/4 290/2/4
f 289/1/4 285/1/4 290/1/4
f 286/4/4 287/4/4 291/4/4
f 290/2/4 286/2/4 291/2/4
f 291/4/4 287/4/4 292/4/4
f 295/3/5 294/3/5 293/3/5
f 296/3/5 294/3/5 295/3/5
f 297/3/5 294/3/5 296/3/5
f 298/3/5 294/3/5 297/3/5
f 299/3/5 295/3/5 293/3/5
f 299/1/5 296/1/5 295/1/5
f 300/3/5 297/3/5 296/3/5
f 300/1/5 296/1/5 299/1/5
f 301/1/5 298/1/5 297/1/5
f 301/3/5 297/3/5 300/3/5
f 302/3/5 294/3/5 298/3/5
f 302/1/5 298/1/5 301/1/5
f 303/3/5 301/3/5 300/3/5
f 303/3/5 300/3/5 299/3/5
f 303/3/5 302/3/5 301/3/5
f 303/3/5 299/3/5 293/3/5
f 304/3/5 302/3/5 303/3/5
f 305/3/5 302/3/5 304/3/5
f 306/3/5 302/3/5 305/3/5
f 307/3/5 303/3/5 293/3/5
f 307/1/5 304/1/5 303/1/5
f 308/3/5 305/3/5 304/3/5
f 308/1/5 304/1/5 307/1/5
f 309/1/5 306/1/5 305/1/5
f 309/3/5 305/3/5 308/3/5
f 310/3/5 302/3/5 306/3/5
f 310/1/5 306/1/5 309/1/5
f 311/3/5 294/3/5 302/3/5
f 311/3/5 302/3/5 310/3/5
f 311/3/5 310/3/5 309/3/5
f 311/3/5 309/3/5 308/3/5
f 311/3/5 308/3/5 307/3/5
f 312/3/5 294/3/5 311/3/5
f 313/3/5 311/3/5 307/3/5
f 313/1/5 312/1/5 311/1/5
f 314/3/5 294/3/5 312/3/5
f 314/1/5 312/1/5 313/1/5
f 315/3/5 313/3/5 307/3/5
f 315/3/5 314/3/5 313/3/5
f 316/3/5 314/3/5 315/3/5
f 317/3/5 314/3/5 316/3/5
f 318/3/5 314/3/5 317/3/5
f 319/3/5 315/3/5 307/3/5
f 319/1/5 316/1/5 315/1/5
f 320/3/5 317/3/5 316/3/5
f 320/1/5 316/1/5 319/1/5
f 321/1/5 318/1/5 317/1/5
f 321/3/5 317/3/5 320/3/5
f 322/3/5 314/3/5 318/3/5
f 322/1/5 318/1/5 321/1/5
f 323/3/5 321/3/5 320/3/5
f 323/3/5 320/3/5 319/3/5
f 323/3/5 322/3/5 321/3/5
f 323/3/5 319/3/5 307/3/5
f 324/3/5 322/3/5 323/3/5
f 325/3/5 323/3/5 307/3/5
f 325/1/5 324/1/5 323/1/5
f 326/3/5 322/3/5 324/3/5
f 326/1/5 324/1/5 325/1/5
f 327/3/5 326/3/5 325/3/5
f 327/3/5 322/3/5 326/3/5
f 328/3/5 322/3/5 327/3/5
f 329/3/5 307/3/5 293/3/5
f 329/3/5 325/3/5 307/3/5
f 329/3/5 327/3/5 325/3/5
f 330/3/5 327/3/5 329/3/5
f 331/1/5 328/1/5 327/1/5
f 331/3/5 327/3/5 330/3/5
f 332/3/5 322/3/5 328/3/5
f 332/1/5 328/1/5 331/1/5
f 333/3/5 314/3/5 322/3/5
f 333/3/5 322/3/5 332/3/5
f 334/3/5 314/3/5 333/3/5
f 335/1/5 330/1/5 329/1/5
f 336/3/5 331/3/5 330/3/5
f 336/1/5 330/1/5 335/1/5
f 336/3/5 332/3/5 331/3/5
f 336/3/5 333/3/5 332/3/5
f 337/1/5 334/1/5 333/1/5
f 337/3/5 333/3/5 336/3/5
f 338/3/5 314/3/5 334/3/5
f 338/1/5 334/1/5 337/1/5
f 339/3/5 336/3/5 335/3/5
f 339/3/5 337/3/5 336/3/5
f 339/3/5 338/3/5 337/3/5
f 340/3/5 338/3/5 339/3/5
f 341/3/5 339/3/5 335/3/5
f 341/1/5 340/1/5 339/1/5
f 342/3/5 338/3/5 340/3/5
f 342/1/5 340/1/5 341/1/5
f 343/3/5 341/3/5 335/3/5
f 343/3/5 342/3/5 341/3/5
f 344/3/5 294/3/5 314/3/5
f 344/3/5 342/3/5 343/3/5
f 344/3/5 314/3/5 338/3/5
f 344/3/5 338/3/5 342/3/5
f 345/3/6 346/3/6 347/3/6
f 347/3/6 346/3/6 348/3/6
f 348/3/6 346/3/6 349/3/6
f 349/3/6 346/3/6 350/3/6
f 345/3/6 347/3/6 351/3/6
f 347/1/6 348/1/6 351/1/6
f 348/3/6 349/3/6 352/3/6
f 351/1/6 348/1/6 352/1/6
f 349/1/6 350/1/6 353/1/6
f 352/3/6 349/3/6 353/3/6
f 350/3/6 346/3/6 354/3/6
f 353/1/6 350/1/6 354/1/6
f 352/3/6 353/3/6 355/3/6
f 351/3/6 352/3/6 355/3/6
f 353/3/6 354/3/6 355/3/6
f 345/3/6 351/3/6 355/3/6
f 355/3/6 354/3/6 356/3/6
f 356/3/6 354/3/6 357/3/6
f 357/3/6 354/3/6 358/3/6
f 354/3/6 346/3/6 359/3/6
f 358/3/6 354/3/6 359/3/6
f 345/3/6 355/3/6 361/3/6
f 355/1/6 356/1/6 361/1/6
f 356/3/6 357/3/6 362/3/6
f 361/1/6 356/1/6 362/1/6
f 357/1/6 358/1/6 363/1/6
f 362/3/6 357/3/6 363/3/6
f 359/3/6 360/3/6 364/3/6
f 363/1/6 358/1/6 364/1/6
f 358/3/6 359/3/6 364/3/6
f 361/3/6 362/3/6 365/3/6
f 364/3/6 360/3/6 365/3/6
f 363/3/6 364/3/6 365/3/6
f 362/3/6 363/3/6 365/3/6
f 365/3/6 360/3/6 366/3/6
f 361/3/6 365/3/6 367/3/6
f 365/1/6 366/1/6 367/1/6
f 366/3/6 360/3/6 368/3/6
f 367/1/6 366/1/6 368/1/6
f 368/3/6 360/3/6 369/3/6
f 369/3/6 360/3/6 370/3/6
f 361/3/6 367/3/6 371/3/6
f 367/3/6 368/3/6 371/3/6
f 368/3/6 369/3/6 371/3/6
f 371/3/6 369/3/6 372/3/6
f 372/3/6 369/3/6 373/3/6
f 373/3/6 369/3/6 374/3/6
f 361/3/6 371/3/6 375/3/6
f 371/1/6 372/1/6 375/1/6
f 372/3/6 373/3/6 376/3/6
f 375/1/6 372/1/6 376/1/6
f 373/1/6 374/1/6 377/1/6
f 376/3/6 373/3/6 377/3/6
f 374/3/6 369/3/6 378/3/6
f 377/1/6 374/1/6 378/1/6
f 376/3/6 377/3/6 379/3/6
f 375/3/6 376/3/6 379/3/6
f 377/3/6 378/3/6 379/3/6
f 361/3/6 375/3/6 379/3/6
f 379/3/6 378/3/6 380/3/6
f 378/3/6 369/3/6 381/3/6
f 380/3/6 378/3/6 381/3/6
f 381/3/6 369/3/6 382/3/6
f 379/1/6 380/1/6 383/1/6
f 361/3/6 379/3/6 383/3/6
f 380/3/6 381/3/6 384/3/6
f 383/1/6 380/1/6 384/1/6
f 383/3/6 384/3/6 385/3/6
f 384/3/6 381/3/6 385/3/6
f 385/3/6 381/3/6 386/3/6
f 345/3/6 361/3/6 387/3/6
f 361/3/6 383/3/6 387/3/6
f 383/3/6 385/3/6 387/3/6
f 387/3/6 385/3/6 388/3/6
f 385/1/6 386/1/6 389/1/6
f 388/3/6 385/3/6 389/3/6
f 386/3/6 381/3/6 390/3/6
f 389/1/6 386/1/6 390/1/6
f 390/3/6 381/3/6 391/3/6
f 391/3/6 381/3/6 392/3/6
f 387/1/6 388/1/6 393/1/6
f 388/3/6 389/3/6 394/3/6
f 393/1/6 388/1/6 394/1/6
f 389/3/6 390/3/6 394/3/6
f 390/3/6 391/3/6 394/3/6
f 391/1/6 392/1/6 395/1/6
f 394/3/6 391/3/6 395/3/6
f 392/3/6 381/3/6 396/3/6
f 395/1/6 392/1/6 396/1/6
f 396/3/6 381/3/6 397/3/6
f 397/3/6 381/3/6 398/3/6
f 394/3/6 395/3/6 399/3/6
f 393/3/6 394/3/6 399/3/6
f 396/3/6 397/3/6 399/3/6
f 395/3/6 396/3/6 399/3/6
f 399/3/6 397/3/6 400/3/6
f 400/3/6 397/3/6 401/3/6
f 401/3/6 397/3/6 402/3/6
f 393/3/6 399/3/6 403/3/6
f 399/1/6 400/1/6 403/1/6
f 400/3/6 401/3/6 404/3/6
f 403/1/6 400/1/6 404/1/6
f 404/3/6 401/3/6 405/3/6
f 405/3/6 401/3/6 406/3/6
f 403/3/6 404/3/6 407/3/6
f 404/3/6 405/3/6 407/3/6
f 407/3/6 405/3/6 408/3/6
f 403/3/6 407/3/6 409/3/6
f 409/3/6 407/3/6 410/3/6
f 410/3/6 407/3/6 411/3/6
f 411/3/6 407/3/6 412/3/6
f 393/3/6 403/3/6 413/3/6
f 403/3/6 409/3/6 413/3/6
f 413/3/6 409/3/6 414/3/6
f 410/3/6 411/3/6 415/3/6
f 415/3/6 411/3/6 416/3/6
f 393/3/6 413/3/6 417/3/6
f 417/3/6 413/3/6 418/3/6
f 419/4/6 420/4/6 421/4/6
f 421/4/6 420/4/6 422/4/6
f 422/4/6 420/4/6 424/4/6
f 423/4/6 424/4/6 426/4/6
f 425/4/6 426/4/6 428/4/6
f 427/4/6 428/4/6 430/4/6
f 429/4/6 430/4/6 432/4/6
f 431/4/6 432/4/6 434/4/6
f 433/4/6 434/4/6 438/4/6
f 435/4/6 436/4/6 440/4/6
f 440/4/6 436/4/6 441/4/6
f 437/4/6 438/4/6 442/4/6
f 440/4/6 441/4/6 444/4/6
f 441/4/6 442/4/6 444/4/6
f 439/4/6 440/4/6 444/4/6
f 443/4/6 444/4/6 445/4/6
f 424/4/6 420/4/6 446/4/6
f 445/4/6 444/4/6 446/4/6
f 426/4/6 424/4/6 446/4/6
f 444/4/6 442/4/6 446/4/6
f 428/4/6 426/4/6 446/4/6
f 430/4/6 428/4/6 446/4/6
f 432/4/6 430/4/6 446/4/6
f 438/4/6 434/4/6 446/4/6
f 434/4/6 432/4/6 446/4/6
f 442/4/6 438/4/6 446/4/6
