# MagicaVoxel @ Ephtracy

# group
g prototype-halfmountain

# material
mtllib prototype-halfmountain.mtl
usemtl palette

# normals
vn -1 0 0
vn 1 0 0
vn 0 0 1
vn 0 0 -1
vn 0 -1 0
vn 0 1 0

# texcoords
vt 0.525391 0.5
vt 0.533203 0.5
vt 0.568359 0.5
vt 0.982422 0.5

# verts
v -20 0 20
v -20 0 -20
v -20 1 20
v -20 1 -1
v -20 5 -1
v -20 5 -20
v -20 16 -1
v -20 16 -20
v -20 21 -1
v -20 21 -20
v -20 25 -1
v -20 25 -20
v -1 1 -3
v -1 1 -4
v -1 5 -3
v -1 5 -4
v -1 16 -3
v -1 16 -4
v -1 21 -3
v -1 21 -4
v -1 25 -3
v -1 25 -4
v 4 1 -2
v 4 1 -3
v 4 5 -2
v 4 5 -3
v 4 16 -2
v 4 16 -3
v 4 21 -2
v 4 21 -3
v 4 25 -2
v 4 25 -3
v 10 1 -2
v 10 1 -3
v 10 5 -2
v 10 5 -3
v 10 16 -2
v 10 16 -3
v 10 21 -2
v 10 21 -3
v 10 25 -2
v 10 25 -3
v 16 1 -1
v 16 1 -2
v 16 5 -1
v 16 5 -2
v 16 16 -1
v 16 16 -2
v 16 21 -1
v 16 21 -2
v 16 25 -1
v 16 25 -2
v -16 1 -1
v -16 1 -2
v -16 5 -1
v -16 5 -2
v -16 16 -1
v -16 16 -2
v -16 21 -1
v -16 21 -2
v -16 25 -1
v -16 25 -2
v -12 1 -2
v -12 1 -3
v -12 5 -2
v -12 5 -3
v -12 16 -2
v -12 16 -3
v -12 21 -2
v -12 21 -3
v -12 25 -2
v -12 25 -3
v -6 1 -3
v -6 1 -4
v -6 5 -3
v -6 5 -4
v -6 16 -3
v -6 16 -4
v -6 21 -3
v -6 21 -4
v -6 25 -3
v -6 25 -4
v 8 1 -2
v 8 1 -3
v 8 5 -2
v 8 5 -3
v 8 16 -2
v 8 16 -3
v 8 21 -2
v 8 21 -3
v 8 25 -2
v 8 25 -3
v 20 0 20
v 20 0 -20
v 20 1 20
v 20 1 -1
v 20 5 -1
v 20 5 -20
v 20 16 -1
v 20 16 -20
v 20 21 -1
v 20 21 -20
v 20 25 -1
v 20 25 -20
v -20 0 20
v -20 1 20
v 11 0 20
v 11 1 20
v 12 0 20
v 12 1 20
v 20 0 20
v 20 1 20
v -20 1 -1
v -20 5 -1
v -20 16 -1
v -20 21 -1
v -20 25 -1
v -16 1 -1
v -16 5 -1
v -16 16 -1
v -16 21 -1
v -16 25 -1
v 16 1 -1
v 16 5 -1
v 16 16 -1
v 16 21 -1
v 16 25 -1
v 20 1 -1
v 20 5 -1
v 20 16 -1
v 20 21 -1
v 20 25 -1
v -16 1 -2
v -16 5 -2
v -16 16 -2
v -16 21 -2
v -16 25 -2
v -12 1 -2
v -12 5 -2
v -12 16 -2
v -12 21 -2
v -12 25 -2
v 4 1 -2
v 4 5 -2
v 4 16 -2
v 4 21 -2
v 4 25 -2
v 8 1 -2
v 8 5 -2
v 8 16 -2
v 8 21 -2
v 8 25 -2
v 10 1 -2
v 10 5 -2
v 10 16 -2
v 10 21 -2
v 10 25 -2
v 16 1 -2
v 16 5 -2
v 16 16 -2
v 16 21 -2
v 16 25 -2
v -12 1 -3
v -12 5 -3
v -12 16 -3
v -12 21 -3
v -12 25 -3
v -6 1 -3
v -6 5 -3
v -6 16 -3
v -6 21 -3
v -6 25 -3
v -1 1 -3
v -1 5 -3
v -1 16 -3
v -1 21 -3
v -1 25 -3
v 4 1 -3
v 4 5 -3
v 4 16 -3
v 4 21 -3
v 4 25 -3
v 8 1 -3
v 8 5 -3
v 8 16 -3
v 8 21 -3
v 8 25 -3
v 10 1 -3
v 10 5 -3
v 10 16 -3
v 10 21 -3
v 10 25 -3
v -6 1 -4
v -6 5 -4
v -6 16 -4
v -6 21 -4
v -6 25 -4
v -1 1 -4
v -1 5 -4
v -1 16 -4
v -1 21 -4
v -1 25 -4
v -20 0 -20
v -20 5 -20
v -20 16 -20
v -20 21 -20
v -20 25 -20
v 20 0 -20
v 20 5 -20
v 20 16 -20
v 20 21 -20
v 20 25 -20
v -20 0 20
v 11 0 20
v 12 0 20
v 20 0 20
v -19 0 19
v -18 0 19
v -8 0 19
v -7 0 19
v 11 0 19
v 12 0 19
v 16 0 19
v 17 0 19
v -19 0 18
v -18 0 18
v -8 0 18
v -7 0 18
v 16 0 18
v 17 0 18
v 6 0 17
v 7 0 17
v 6 0 16
v 7 0 16
v -13 0 15
v -12 0 15
v 0 0 15
v 1 0 15
v -13 0 14
v -12 0 14
v 0 0 14
v 1 0 14
v 15 0 13
v 16 0 13
v 15 0 12
v 16 0 12
v -17 0 11
v -16 0 11
v -7 0 11
v -6 0 11
v -17 0 10
v -16 0 10
v -11 0 10
v -10 0 10
v -7 0 10
v -6 0 10
v -11 0 9
v -10 0 9
v 11 0 9
v 12 0 9
v -17 0 8
v -16 0 8
v -2 0 8
v -1 0 8
v 4 0 8
v 5 0 8
v 11 0 8
v 12 0 8
v -17 0 7
v -16 0 7
v -2 0 7
v -1 0 7
v 4 0 7
v 5 0 7
v -11 0 5
v -10 0 5
v -11 0 4
v -10 0 4
v -9 0 4
v -8 0 4
v 9 0 4
v 10 0 4
v -13 0 3
v -12 0 3
v -9 0 3
v -8 0 3
v 9 0 3
v 10 0 3
v 17 0 3
v 18 0 3
v -13 0 2
v -12 0 2
v 0 0 2
v 1 0 2
v 17 0 2
v 18 0 2
v 0 0 1
v 1 0 1
v -20 0 -20
v 20 0 -20
v -20 1 20
v 11 1 20
v 12 1 20
v 20 1 20
v -19 1 19
v -18 1 19
v -8 1 19
v -7 1 19
v 11 1 19
v 12 1 19
v 16 1 19
v 17 1 19
v -19 1 18
v -18 1 18
v -8 1 18
v -7 1 18
v 16 1 18
v 17 1 18
v 6 1 17
v 7 1 17
v 6 1 16
v 7 1 16
v -13 1 15
v -12 1 15
v 0 1 15
v 1 1 15
v -13 1 14
v -12 1 14
v 0 1 14
v 1 1 14
v 15 1 13
v 16 1 13
v 15 1 12
v 16 1 12
v -17 1 11
v -16 1 11
v -7 1 11
v -6 1 11
v -17 1 10
v -16 1 10
v -11 1 10
v -10 1 10
v -7 1 10
v -6 1 10
v -11 1 9
v -10 1 9
v 11 1 9
v 12 1 9
v -17 1 8
v -16 1 8
v -2 1 8
v -1 1 8
v 4 1 8
v 5 1 8
v 11 1 8
v 12 1 8
v -17 1 7
v -16 1 7
v -2 1 7
v -1 1 7
v 4 1 7
v 5 1 7
v -11 1 5
v -10 1 5
v -11 1 4
v -10 1 4
v -9 1 4
v -8 1 4
v 9 1 4
v 10 1 4
v -13 1 3
v -12 1 3
v -9 1 3
v -8 1 3
v 9 1 3
v 10 1 3
v 17 1 3
v 18 1 3
v -13 1 2
v -12 1 2
v 0 1 2
v 1 1 2
v 17 1 2
v 18 1 2
v 0 1 1
v 1 1 1
v -20 1 -1
v -16 1 -1
v 16 1 -1
v 20 1 -1
v -16 1 -2
v -12 1 -2
v 4 1 -2
v 8 1 -2
v 10 1 -2
v 16 1 -2
v -12 1 -3
v -6 1 -3
v -1 1 -3
v 4 1 -3
v 8 1 -3
v 10 1 -3
v -6 1 -4
v -1 1 -4
v -20 25 -1
v -16 25 -1
v 16 25 -1
v 20 25 -1
v -16 25 -2
v -12 25 -2
v 4 25 -2
v 8 25 -2
v 10 25 -2
v 16 25 -2
v -12 25 -3
v -6 25 -3
v -1 25 -3
v 4 25 -3
v 8 25 -3
v 10 25 -3
v -6 25 -4
v -1 25 -4
v -20 25 -20
v 20 25 -20

# faces
f 3/3/1 2/3/1 1/3/1
f 4/3/1 2/3/1 3/3/1
f 5/3/1 2/3/1 4/3/1
f 6/3/1 2/3/1 5/3/1
f 7/1/1 6/1/1 5/1/1
f 8/1/1 6/1/1 7/1/1
f 9/2/1 8/2/1 7/2/1
f 10/2/1 8/2/1 9/2/1
f 11/4/1 10/4/1 9/4/1
f 12/4/1 10/4/1 11/4/1
f 15/3/1 14/3/1 13/3/1
f 16/3/1 14/3/1 15/3/1
f 17/1/1 16/1/1 15/1/1
f 18/1/1 16/1/1 17/1/1
f 19/2/1 18/2/1 17/2/1
f 20/2/1 18/2/1 19/2/1
f 21/4/1 20/4/1 19/4/1
f 22/4/1 20/4/1 21/4/1
f 25/3/1 24/3/1 23/3/1
f 26/3/1 24/3/1 25/3/1
f 27/1/1 26/1/1 25/1/1
f 28/1/1 26/1/1 27/1/1
f 29/2/1 28/2/1 27/2/1
f 30/2/1 28/2/1 29/2/1
f 31/4/1 30/4/1 29/4/1
f 32/4/1 30/4/1 31/4/1
f 35/3/1 34/3/1 33/3/1
f 36/3/1 34/3/1 35/3/1
f 37/1/1 36/1/1 35/1/1
f 38/1/1 36/1/1 37/1/1
f 39/2/1 38/2/1 37/2/1
f 40/2/1 38/2/1 39/2/1
f 41/4/1 40/4/1 39/4/1
f 42/4/1 40/4/1 41/4/1
f 45/3/1 44/3/1 43/3/1
f 46/3/1 44/3/1 45/3/1
f 47/1/1 46/1/1 45/1/1
f 48/1/1 46/1/1 47/1/1
f 49/2/1 48/2/1 47/2/1
f 50/2/1 48/2/1 49/2/1
f 51/4/1 50/4/1 49/4/1
f 52/4/1 50/4/1 51/4/1
f 53/3/2 54/3/2 55/3/2
f 55/3/2 54/3/2 56/3/2
f 55/1/2 56/1/2 57/1/2
f 57/1/2 56/1/2 58/1/2
f 57/2/2 58/2/2 59/2/2
f 59/2/2 58/2/2 60/2/2
f 59/4/2 60/4/2 61/4/2
f 61/4/2 60/4/2 62/4/2
f 63/3/2 64/3/2 65/3/2
f 65/3/2 64/3/2 66/3/2
f 65/1/2 66/1/2 67/1/2
f 67/1/2 66/1/2 68/1/2
f 67/2/2 68/2/2 69/2/2
f 69/2/2 68/2/2 70/2/2
f 69/4/2 70/4/2 71/4/2
f 71/4/2 70/4/2 72/4/2
f 73/3/2 74/3/2 75/3/2
f 75/3/2 74/3/2 76/3/2
f 75/1/2 76/1/2 77/1/2
f 77/1/2 76/1/2 78/1/2
f 77/2/2 78/2/2 79/2/2
f 79/2/2 78/2/2 80/2/2
f 79/4/2 80/4/2 81/4/2
f 81/4/2 80/4/2 82/4/2
f 83/3/2 84/3/2 85/3/2
f 85/3/2 84/3/2 86/3/2
f 85/1/2 86/1/2 87/1/2
f 87/1/2 86/1/2 88/1/2
f 87/2/2 88/2/2 89/2/2
f 89/2/2 88/2/2 90/2/2
f 89/4/2 90/4/2 91/4/2
f 91/4/2 90/4/2 92/4/2
f 93/3/2 94/3/2 95/3/2
f 95/3/2 94/3/2 96/3/2
f 96/3/2 94/3/2 97/3/2
f 97/3/2 94/3/2 98/3/2
f 97/1/2 98/1/2 99/1/2
f 99/1/2 98/1/2 100/1/2
f 99/2/2 100/2/2 101/2/2
f 101/2/2 100/2/2 102/2/2
f 101/4/2 102/4/2 103/4/2
f 103/4/2 102/4/2 104/4/2
f 107/3/3 106/3/3 105/3/3
f 108/3/3 106/3/3 107/3/3
f 109/1/3 108/1/3 107/1/3
f 110/1/3 108/1/3 109/1/3
f 111/3/3 110/3/3 109/3/3
f 112/3/3 110/3/3 111/3/3
f 118/3/3 114/3/3 113/3/3
f 119/1/3 115/1/3 114/1/3
f 119/3/3 114/3/3 118/3/3
f 120/2/3 116/2/3 115/2/3
f 120/1/3 115/1/3 119/1/3
f 121/4/3 117/4/3 116/4/3
f 121/2/3 116/2/3 120/2/3
f 122/4/3 117/4/3 121/4/3
f 128/3/3 124/3/3 123/3/3
f 129/1/3 125/1/3 124/1/3
f 129/3/3 124/3/3 128/3/3
f 130/2/3 126/2/3 125/2/3
f 130/1/3 125/1/3 129/1/3
f 131/4/3 127/4/3 126/4/3
f 131/2/3 126/2/3 130/2/3
f 132/4/3 127/4/3 131/4/3
f 138/3/3 134/3/3 133/3/3
f 139/1/3 135/1/3 134/1/3
f 139/3/3 134/3/3 138/3/3
f 140/2/3 136/2/3 135/2/3
f 140/1/3 135/1/3 139/1/3
f 141/4/3 137/4/3 136/4/3
f 141/2/3 136/2/3 140/2/3
f 142/4/3 137/4/3 141/4/3
f 148/3/3 144/3/3 143/3/3
f 149/1/3 145/1/3 144/1/3
f 149/3/3 144/3/3 148/3/3
f 150/2/3 146/2/3 145/2/3
f 150/1/3 145/1/3 149/1/3
f 151/4/3 147/4/3 146/4/3
f 151/2/3 146/2/3 150/2/3
f 152/4/3 147/4/3 151/4/3
f 158/3/3 154/3/3 153/3/3
f 159/1/3 155/1/3 154/1/3
f 159/3/3 154/3/3 158/3/3
f 160/2/3 156/2/3 155/2/3
f 160/1/3 155/1/3 159/1/3
f 161/4/3 157/4/3 156/4/3
f 161/2/3 156/2/3 160/2/3
f 162/4/3 157/4/3 161/4/3
f 168/3/3 164/3/3 163/3/3
f 169/1/3 165/1/3 164/1/3
f 169/3/3 164/3/3 168/3/3
f 170/2/3 166/2/3 165/2/3
f 170/1/3 165/1/3 169/1/3
f 171/4/3 167/4/3 166/4/3
f 171/2/3 166/2/3 170/2/3
f 172/4/3 167/4/3 171/4/3
f 178/3/3 174/3/3 173/3/3
f 179/1/3 175/1/3 174/1/3
f 179/3/3 174/3/3 178/3/3
f 180/2/3 176/2/3 175/2/3
f 180/1/3 175/1/3 179/1/3
f 181/4/3 177/4/3 176/4/3
f 181/2/3 176/2/3 180/2/3
f 182/4/3 177/4/3 181/4/3
f 188/3/3 184/3/3 183/3/3
f 189/1/3 185/1/3 184/1/3
f 189/3/3 184/3/3 188/3/3
f 190/2/3 186/2/3 185/2/3
f 190/1/3 185/1/3 189/1/3
f 191/4/3 187/4/3 186/4/3
f 191/2/3 186/2/3 190/2/3
f 192/4/3 187/4/3 191/4/3
f 198/3/3 194/3/3 193/3/3
f 199/1/3 195/1/3 194/1/3
f 199/3/3 194/3/3 198/3/3
f 200/2/3 196/2/3 195/2/3
f 200/1/3 195/1/3 199/1/3
f 201/4/3 197/4/3 196/4/3
f 201/2/3 196/2/3 200/2/3
f 202/4/3 197/4/3 201/4/3
f 203/3/4 204/3/4 208/3/4
f 204/1/4 205/1/4 209/1/4
f 208/3/4 204/3/4 209/3/4
f 205/2/4 206/2/4 210/2/4
f 209/1/4 205/1/4 210/1/4
f 206/4/4 207/4/4 211/4/4
f 210/2/4 206/2/4 211/2/4
f 211/4/4 207/4/4 212/4/4
f 217/3/5 214/3/5 213/3/5
f 218/3/5 214/3/5 217/3/5
f 219/3/5 214/3/5 218/3/5
f 220/3/5 214/3/5 219/3/5
f 221/1/5 215/1/5 214/1/5
f 221/3/5 214/3/5 220/3/5
f 222/3/5 216/3/5 215/3/5
f 222/1/5 215/1/5 221/1/5
f 223/3/5 216/3/5 222/3/5
f 224/3/5 216/3/5 223/3/5
f 225/3/5 217/3/5 213/3/5
f 225/1/5 218/1/5 217/1/5
f 226/3/5 219/3/5 218/3/5
f 226/1/5 218/1/5 225/1/5
f 227/1/5 220/1/5 219/1/5
f 227/3/5 219/3/5 226/3/5
f 228/3/5 221/3/5 220/3/5
f 228/1/5 220/1/5 227/1/5
f 228/3/5 222/3/5 221/3/5
f 228/3/5 223/3/5 222/3/5
f 229/1/5 224/1/5 223/1/5
f 229/3/5 223/3/5 228/3/5
f 230/3/5 216/3/5 224/3/5
f 230/1/5 224/1/5 229/1/5
f 231/3/5 227/3/5 226/3/5
f 231/3/5 226/3/5 225/3/5
f 231/3/5 230/3/5 229/3/5
f 231/3/5 229/3/5 228/3/5
f 231/3/5 228/3/5 227/3/5
f 232/3/5 230/3/5 231/3/5
f 233/3/5 231/3/5 225/3/5
f 233/1/5 232/1/5 231/1/5
f 234/3/5 230/3/5 232/3/5
f 234/1/5 232/1/5 233/1/5
f 235/3/5 233/3/5 225/3/5
f 235/3/5 234/3/5 233/3/5
f 236/3/5 234/3/5 235/3/5
f 237/3/5 234/3/5 236/3/5
f 238/3/5 234/3/5 237/3/5
f 239/3/5 235/3/5 225/3/5
f 239/1/5 236/1/5 235/1/5
f 240/3/5 237/3/5 236/3/5
f 240/1/5 236/1/5 239/1/5
f 241/1/5 238/1/5 237/1/5
f 241/3/5 237/3/5 240/3/5
f 242/3/5 234/3/5 238/3/5
f 242/1/5 238/1/5 241/1/5
f 243/3/5 230/3/5 234/3/5
f 243/3/5 234/3/5 242/3/5
f 243/3/5 242/3/5 241/3/5
f 243/3/5 241/3/5 240/3/5
f 243/3/5 240/3/5 239/3/5
f 244/3/5 230/3/5 243/3/5
f 245/3/5 243/3/5 239/3/5
f 245/1/5 244/1/5 243/1/5
f 246/3/5 230/3/5 244/3/5
f 246/1/5 244/1/5 245/1/5
f 247/3/5 239/3/5 225/3/5
f 247/3/5 245/3/5 239/3/5
f 247/3/5 246/3/5 245/3/5
f 248/3/5 246/3/5 247/3/5
f 249/3/5 246/3/5 248/3/5
f 250/3/5 246/3/5 249/3/5
f 251/3/5 247/3/5 225/3/5
f 251/1/5 248/1/5 247/1/5
f 252/3/5 249/3/5 248/3/5
f 252/1/5 248/1/5 251/1/5
f 253/3/5 249/3/5 252/3/5
f 254/3/5 249/3/5 253/3/5
f 255/1/5 250/1/5 249/1/5
f 255/3/5 249/3/5 254/3/5
f 256/3/5 246/3/5 250/3/5
f 256/1/5 250/1/5 255/1/5
f 257/1/5 254/1/5 253/1/5
f 257/3/5 252/3/5 251/3/5
f 257/3/5 253/3/5 252/3/5
f 258/3/5 255/3/5 254/3/5
f 258/1/5 254/1/5 257/1/5
f 258/3/5 256/3/5 255/3/5
f 259/3/5 246/3/5 256/3/5
f 259/3/5 256/3/5 258/3/5
f 260/3/5 246/3/5 259/3/5
f 261/3/5 257/3/5 251/3/5
f 261/3/5 258/3/5 257/3/5
f 261/3/5 251/3/5 225/3/5
f 261/3/5 259/3/5 258/3/5
f 262/3/5 259/3/5 261/3/5
f 263/3/5 259/3/5 262/3/5
f 264/3/5 259/3/5 263/3/5
f 265/3/5 259/3/5 264/3/5
f 266/3/5 259/3/5 265/3/5
f 267/1/5 260/1/5 259/1/5
f 267/3/5 259/3/5 266/3/5
f 268/3/5 246/3/5 260/3/5
f 268/1/5 260/1/5 267/1/5
f 269/3/5 261/3/5 225/3/5
f 269/1/5 262/1/5 261/1/5
f 270/3/5 263/3/5 262/3/5
f 270/1/5 262/1/5 269/1/5
f 271/1/5 264/1/5 263/1/5
f 271/3/5 263/3/5 270/3/5
f 272/3/5 265/3/5 264/3/5
f 272/1/5 264/1/5 271/1/5
f 273/1/5 266/1/5 265/1/5
f 273/3/5 265/3/5 272/3/5
f 274/3/5 267/3/5 266/3/5
f 274/1/5 266/1/5 273/1/5
f 274/3/5 268/3/5 267/3/5
f 275/3/5 273/3/5 272/3/5
f 275/3/5 272/3/5 271/3/5
f 275/3/5 274/3/5 273/3/5
f 275/3/5 270/3/5 269/3/5
f 275/3/5 271/3/5 270/3/5
f 276/3/5 274/3/5 275/3/5
f 277/3/5 275/3/5 269/3/5
f 277/1/5 276/1/5 275/1/5
f 278/3/5 274/3/5 276/3/5
f 278/1/5 276/1/5 277/1/5
f 279/3/5 274/3/5 278/3/5
f 280/3/5 274/3/5 279/3/5
f 281/3/5 268/3/5 274/3/5
f 281/3/5 274/3/5 280/3/5
f 282/3/5 268/3/5 281/3/5
f 283/3/5 277/3/5 269/3/5
f 283/3/5 278/3/5 277/3/5
f 283/3/5 279/3/5 278/3/5
f 284/3/5 279/3/5 283/3/5
f 285/1/5 280/1/5 279/1/5
f 285/3/5 279/3/5 284/3/5
f 286/3/5 281/3/5 280/3/5
f 286/1/5 280/1/5 285/1/5
f 287/1/5 282/1/5 281/1/5
f 287/3/5 281/3/5 286/3/5
f 288/3/5 268/3/5 282/3/5
f 288/1/5 282/1/5 287/1/5
f 289/3/5 216/3/5 230/3/5
f 289/3/5 268/3/5 288/3/5
f 289/3/5 230/3/5 246/3/5
f 289/3/5 246/3/5 268/3/5
f 290/3/5 216/3/5 289/3/5
f 291/3/5 283/3/5 269/3/5
f 291/1/5 284/1/5 283/1/5
f 292/3/5 288/3/5 287/3/5
f 292/1/5 284/1/5 291/1/5
f 292/3/5 285/3/5 284/3/5
f 292/3/5 289/3/5 288/3/5
f 292/3/5 286/3/5 285/3/5
f 292/3/5 287/3/5 286/3/5
f 293/3/5 289/3/5 292/3/5
f 294/3/5 289/3/5 293/3/5
f 295/1/5 290/1/5 289/1/5
f 295/3/5 289/3/5 294/3/5
f 296/3/5 216/3/5 290/3/5
f 296/1/5 290/1/5 295/1/5
f 297/1/5 294/1/5 293/1/5
f 297/3/5 292/3/5 291/3/5
f 297/3/5 293/3/5 292/3/5
f 298/3/5 295/3/5 294/3/5
f 298/1/5 294/1/5 297/1/5
f 298/3/5 296/3/5 295/3/5
f 299/3/5 291/3/5 269/3/5
f 299/3/5 225/3/5 213/3/5
f 299/3/5 298/3/5 297/3/5
f 299/3/5 269/3/5 225/3/5
f 299/3/5 297/3/5 291/3/5
f 300/3/5 296/3/5 298/3/5
f 300/3/5 298/3/5 299/3/5
f 300/3/5 216/3/5 296/3/5
f 301/3/6 302/3/6 305/3/6
f 305/3/6 302/3/6 306/3/6
f 306/3/6 302/3/6 307/3/6
f 307/3/6 302/3/6 308/3/6
f 302/1/6 303/1/6 309/1/6
f 308/3/6 302/3/6 309/3/6
f 303/3/6 304/3/6 310/3/6
f 309/1/6 303/1/6 310/1/6
f 310/3/6 304/3/6 311/3/6
f 311/3/6 304/3/6 312/3/6
f 301/3/6 305/3/6 313/3/6
f 305/1/6 306/1/6 313/1/6
f 306/3/6 307/3/6 314/3/6
f 313/1/6 306/1/6 314/1/6
f 307/1/6 308/1/6 315/1/6
f 314/3/6 307/3/6 315/3/6
f 308/3/6 309/3/6 316/3/6
f 315/1/6 308/1/6 316/1/6
f 309/3/6 310/3/6 316/3/6
f 310/3/6 311/3/6 316/3/6
f 311/1/6 312/1/6 317/1/6
f 316/3/6 311/3/6 317/3/6
f 312/3/6 304/3/6 318/3/6
f 317/1/6 312/1/6 318/1/6
f 314/3/6 315/3/6 319/3/6
f 313/3/6 314/3/6 319/3/6
f 317/3/6 318/3/6 319/3/6
f 316/3/6 317/3/6 319/3/6
f 315/3/6 316/3/6 319/3/6
f 319/3/6 318/3/6 320/3/6
f 313/3/6 319/3/6 321/3/6
f 319/1/6 320/1/6 321/1/6
f 320/3/6 318/3/6 322/3/6
f 321/1/6 320/1/6 322/1/6
f 313/3/6 321/3/6 323/3/6
f 321/3/6 322/3/6 323/3/6
f 323/3/6 322/3/6 324/3/6
f 324/3/6 322/3/6 325/3/6
f 325/3/6 322/3/6 326/3/6
f 313/3/6 323/3/6 327/3/6
f 323/1/6 324/1/6 327/1/6
f 324/3/6 325/3/6 328/3/6
f 327/1/6 324/1/6 328/1/6
f 325/1/6 326/1/6 329/1/6
f 328/3/6 325/3/6 329/3/6
f 326/3/6 322/3/6 330/3/6
f 329/1/6 326/1/6 330/1/6
f 322/3/6 318/3/6 331/3/6
f 330/3/6 322/3/6 331/3/6
f 329/3/6 330/3/6 331/3/6
f 328/3/6 329/3/6 331/3/6
f 327/3/6 328/3/6 331/3/6
f 331/3/6 318/3/6 332/3/6
f 327/3/6 331/3/6 333/3/6
f 331/1/6 332/1/6 333/1/6
f 332/3/6 318/3/6 334/3/6
f 333/1/6 332/1/6 334/1/6
f 313/3/6 327/3/6 335/3/6
f 327/3/6 333/3/6 335/3/6
f 333/3/6 334/3/6 335/3/6
f 335/3/6 334/3/6 336/3/6
f 336/3/6 334/3/6 337/3/6
f 337/3/6 334/3/6 338/3/6
f 313/3/6 335/3/6 339/3/6
f 335/1/6 336/1/6 339/1/6
f 336/3/6 337/3/6 340/3/6
f 339/1/6 336/1/6 340/1/6
f 340/3/6 337/3/6 341/3/6
f 341/3/6 337/3/6 342/3/6
f 337/1/6 338/1/6 343/1/6
f 342/3/6 337/3/6 343/3/6
f 338/3/6 334/3/6 344/3/6
f 343/1/6 338/1/6 344/1/6
f 341/1/6 342/1/6 345/1/6
f 339/3/6 340/3/6 345/3/6
f 340/3/6 341/3/6 345/3/6
f 342/3/6 343/3/6 346/3/6
f 345/1/6 342/1/6 346/1/6
f 343/3/6 344/3/6 346/3/6
f 344/3/6 334/3/6 347/3/6
f 346/3/6 344/3/6 347/3/6
f 347/3/6 334/3/6 348/3/6
f 339/3/6 345/3/6 349/3/6
f 345/3/6 346/3/6 349/3/6
f 313/3/6 339/3/6 349/3/6
f 346/3/6 347/3/6 349/3/6
f 349/3/6 347/3/6 350/3/6
f 350/3/6 347/3/6 351/3/6
f 351/3/6 347/3/6 352/3/6
f 352/3/6 347/3/6 353/3/6
f 353/3/6 347/3/6 354/3/6
f 347/1/6 348/1/6 355/1/6
f 354/3/6 347/3/6 355/3/6
f 348/3/6 334/3/6 356/3/6
f 355/1/6 348/1/6 356/1/6
f 313/3/6 349/3/6 357/3/6
f 349/1/6 350/1/6 357/1/6
f 350/3/6 351/3/6 358/3/6
f 357/1/6 350/1/6 358/1/6
f 351/1/6 352/1/6 359/1/6
f 358/3/6 351/3/6 359/3/6
f 352/3/6 353/3/6 360/3/6
f 359/1/6 352/1/6 360/1/6
f 353/1/6 354/1/6 361/1/6
f 360/3/6 353/3/6 361/3/6
f 354/3/6 355/3/6 362/3/6
f 361/1/6 354/1/6 362/1/6
f 355/3/6 356/3/6 362/3/6
f 360/3/6 361/3/6 363/3/6
f 359/3/6 360/3/6 363/3/6
f 361/3/6 362/3/6 363/3/6
f 357/3/6 358/3/6 363/3/6
f 358/3/6 359/3/6 363/3/6
f 363/3/6 362/3/6 364/3/6
f 357/3/6 363/3/6 365/3/6
f 363/1/6 364/1/6 365/1/6
f 364/3/6 362/3/6 366/3/6
f 365/1/6 364/1/6 366/1/6
f 366/3/6 362/3/6 367/3/6
f 367/3/6 362/3/6 368/3/6
f 362/3/6 356/3/6 369/3/6
f 368/3/6 362/3/6 369/3/6
f 369/3/6 356/3/6 370/3/6
f 357/3/6 365/3/6 371/3/6
f 365/3/6 366/3/6 371/3/6
f 366/3/6 367/3/6 371/3/6
f 371/3/6 367/3/6 372/3/6
f 367/1/6 368/1/6 373/1/6
f 372/3/6 367/3/6 373/3/6
f 368/3/6 369/3/6 374/3/6
f 373/1/6 368/1/6 374/1/6
f 369/1/6 370/1/6 375/1/6
f 374/3/6 369/3/6 375/3/6
f 370/3/6 356/3/6 376/3/6
f 375/1/6 370/1/6 376/1/6
f 318/3/6 304/3/6 377/3/6
f 376/3/6 356/3/6 377/3/6
f 334/3/6 318/3/6 377/3/6
f 356/3/6 334/3/6 377/3/6
f 377/3/6 304/3/6 378/3/6
f 357/3/6 371/3/6 379/3/6
f 371/1/6 372/1/6 379/1/6
f 375/3/6 376/3/6 380/3/6
f 379/1/6 372/1/6 380/1/6
f 372/3/6 373/3/6 380/3/6
f 376/3/6 377/3/6 380/3/6
f 373/3/6 374/3/6 380/3/6
f 374/3/6 375/3/6 380/3/6
f 380/3/6 377/3/6 381/3/6
f 381/3/6 377/3/6 382/3/6
f 377/1/6 378/1/6 383/1/6
f 382/3/6 377/3/6 383/3/6
f 378/3/6 304/3/6 384/3/6
f 383/1/6 378/1/6 384/1/6
f 381/1/6 382/1/6 385/1/6
f 379/3/6 380/3/6 385/3/6
f 380/3/6 381/3/6 385/3/6
f 382/3/6 383/3/6 386/3/6
f 385/1/6 382/1/6 386/1/6
f 383/3/6 384/3/6 386/3/6
f 357/3/6 379/3/6 387/3/6
f 301/3/6 313/3/6 387/3/6
f 385/3/6 386/3/6 387/3/6
f 313/3/6 357/3/6 387/3/6
f 379/3/6 385/3/6 387/3/6
f 387/3/6 386/3/6 388/3/6
f 386/3/6 384/3/6 389/3/6
f 388/3/6 386/3/6 389/3/6
f 384/3/6 304/3/6 390/3/6
f 389/3/6 384/3/6 390/3/6
f 388/3/6 389/3/6 391/3/6
f 391/3/6 389/3/6 392/3/6
f 392/3/6 389/3/6 393/3/6
f 393/3/6 389/3/6 394/3/6
f 394/3/6 389/3/6 395/3/6
f 395/3/6 389/3/6 396/3/6
f 392/3/6 393/3/6 397/3/6
f 397/3/6 393/3/6 398/3/6
f 398/3/6 393/3/6 399/3/6
f 399/3/6 393/3/6 400/3/6
f 394/3/6 395/3/6 401/3/6
f 401/3/6 395/3/6 402/3/6
f 398/3/6 399/3/6 403/3/6
f 403/3/6 399/3/6 404/3/6
f 405/4/6 406/4/6 409/4/6
f 407/4/6 408/4/6 414/4/6
f 409/4/6 410/4/6 415/4/6
f 411/4/6 412/4/6 418/4/6
f 418/4/6 412/4/6 419/4/6
f 413/4/6 414/4/6 420/4/6
f 415/4/6 416/4/6 421/4/6
f 419/4/6 420/4/6 422/4/6
f 418/4/6 419/4/6 422/4/6
f 417/4/6 418/4/6 422/4/6
f 415/4/6 421/4/6 423/4/6
f 421/4/6 422/4/6 423/4/6
f 405/4/6 409/4/6 423/4/6
f 409/4/6 415/4/6 423/4/6
f 422/4/6 420/4/6 424/4/6
f 423/4/6 422/4/6 424/4/6
f 420/4/6 414/4/6 424/4/6
f 414/4/6 408/4/6 424/4/6
