# MagicaVoxel @ Ephtracy

# group
g tile-fullmountain-1

# material
mtllib tile-fullmountain-1.mtl
usemtl palette

# normals
vn -1 0 0
vn 1 0 0
vn 0 0 1
vn 0 0 -1
vn 0 -1 0
vn 0 1 0

# texcoords
vt 0.525391 0.5
vt 0.533203 0.5
vt 0.568359 0.5
vt 0.974609 0.5
vt 0.982422 0.5

# verts
v -20 0 20
v -20 0 -20
v -20 5 20
v -20 5 -20
v -20 16 20
v -20 16 -20
v -20 21 20
v -20 21 -20
v -20 25 20
v -20 25 -20
v 20 0 20
v 20 0 -20
v 20 5 20
v 20 5 -20
v 20 16 20
v 20 16 -20
v 20 21 20
v 20 21 -20
v 20 25 20
v 20 25 -20
v -20 0 20
v -20 5 20
v -20 16 20
v -20 21 20
v -20 25 20
v 20 0 20
v 20 5 20
v 20 16 20
v 20 21 20
v 20 25 20
v -20 0 -20
v -20 5 -20
v -20 16 -20
v -20 21 -20
v -20 25 -20
v 20 0 -20
v 20 5 -20
v 20 16 -20
v 20 21 -20
v 20 25 -20
v -20 0 20
v 20 0 20
v -20 0 -20
v 20 0 -20
v -20 25 20
v 20 25 20
v 9 25 16
v 10 25 16
v -11 25 15
v -10 25 15
v 9 25 15
v 10 25 15
v -11 25 14
v -10 25 14
v -3 25 14
v -2 25 14
v -17 25 13
v -16 25 13
v -3 25 13
v -2 25 13
v -17 25 12
v -16 25 12
v 10 25 11
v 11 25 11
v 10 25 10
v 11 25 10
v -2 25 8
v -1 25 8
v -10 25 7
v -9 25 7
v -2 25 7
v -1 25 7
v -10 25 6
v -9 25 6
v 0 25 5
v 1 25 5
v -17 25 4
v -16 25 4
v 0 25 4
v 1 25 4
v -17 25 3
v -16 25 3
v 6 25 1
v 7 25 1
v -5 25 -0
v -4 25 -0
v 6 25 -0
v 7 25 -0
v -5 25 -1
v -4 25 -1
v 8 25 -3
v 9 25 -3
v 18 25 -3
v 19 25 -3
v 8 25 -4
v 9 25 -4
v 18 25 -4
v 19 25 -4
v -14 25 -7
v -13 25 -7
v -3 25 -7
v -2 25 -7
v -14 25 -8
v -13 25 -8
v -3 25 -8
v -2 25 -8
v 15 25 -12
v 16 25 -12
v 15 25 -13
v 16 25 -13
v -5 25 -14
v -4 25 -14
v -17 25 -15
v -16 25 -15
v -5 25 -15
v -4 25 -15
v 6 25 -15
v 7 25 -15
v -17 25 -16
v -16 25 -16
v 6 25 -16
v 7 25 -16
v -20 25 -20
v 20 25 -20

# faces
f 3/3/1 2/3/1 1/3/1
f 4/3/1 2/3/1 3/3/1
f 5/1/1 4/1/1 3/1/1
f 6/1/1 4/1/1 5/1/1
f 7/2/1 6/2/1 5/2/1
f 8/2/1 6/2/1 7/2/1
f 9/5/1 8/5/1 7/5/1
f 10/5/1 8/5/1 9/5/1
f 11/3/2 12/3/2 13/3/2
f 13/3/2 12/3/2 14/3/2
f 13/1/2 14/1/2 15/1/2
f 15/1/2 14/1/2 16/1/2
f 15/2/2 16/2/2 17/2/2
f 17/2/2 16/2/2 18/2/2
f 17/5/2 18/5/2 19/5/2
f 19/5/2 18/5/2 20/5/2
f 26/3/3 22/3/3 21/3/3
f 27/1/3 23/1/3 22/1/3
f 27/3/3 22/3/3 26/3/3
f 28/2/3 24/2/3 23/2/3
f 28/1/3 23/1/3 27/1/3
f 29/5/3 25/5/3 24/5/3
f 29/2/3 24/2/3 28/2/3
f 30/5/3 25/5/3 29/5/3
f 31/3/4 32/3/4 36/3/4
f 32/1/4 33/1/4 37/1/4
f 36/3/4 32/3/4 37/3/4
f 33/2/4 34/2/4 38/2/4
f 37/1/4 33/1/4 38/1/4
f 34/5/4 35/5/4 39/5/4
f 38/2/4 34/2/4 39/2/4
f 39/5/4 35/5/4 40/5/4
f 43/3/5 42/3/5 41/3/5
f 44/3/5 42/3/5 43/3/5
f 45/5/6 46/5/6 47/5/6
f 47/5/6 46/5/6 48/5/6
f 45/5/6 47/5/6 49/5/6
f 49/5/6 47/5/6 50/5/6
f 47/4/6 48/4/6 51/4/6
f 50/5/6 47/5/6 51/5/6
f 48/5/6 46/5/6 52/5/6
f 51/4/6 48/4/6 52/4/6
f 49/4/6 50/4/6 53/4/6
f 45/5/6 49/5/6 53/5/6
f 50/5/6 51/5/6 54/5/6
f 53/4/6 50/4/6 54/4/6
f 51/5/6 52/5/6 54/5/6
f 54/5/6 52/5/6 55/5/6
f 55/5/6 52/5/6 56/5/6
f 45/5/6 53/5/6 57/5/6
f 53/5/6 54/5/6 57/5/6
f 54/5/6 55/5/6 57/5/6
f 57/5/6 55/5/6 58/5/6
f 55/4/6 56/4/6 59/4/6
f 58/5/6 55/5/6 59/5/6
f 56/5/6 52/5/6 60/5/6
f 59/4/6 56/4/6 60/4/6
f 57/4/6 58/4/6 61/4/6
f 45/5/6 57/5/6 61/5/6
f 58/5/6 59/5/6 62/5/6
f 61/4/6 58/4/6 62/4/6
f 59/5/6 60/5/6 62/5/6
f 52/5/6 46/5/6 63/5/6
f 62/5/6 60/5/6 63/5/6
f 61/5/6 62/5/6 63/5/6
f 60/5/6 52/5/6 63/5/6
f 63/5/6 46/5/6 64/5/6
f 61/5/6 63/5/6 65/5/6
f 63/4/6 64/4/6 65/4/6
f 64/5/6 46/5/6 66/5/6
f 65/4/6 64/4/6 66/4/6
f 61/5/6 65/5/6 67/5/6
f 65/5/6 66/5/6 67/5/6
f 67/5/6 66/5/6 68/5/6
f 61/5/6 67/5/6 69/5/6
f 69/5/6 67/5/6 70/5/6
f 67/4/6 68/4/6 71/4/6
f 70/5/6 67/5/6 71/5/6
f 68/5/6 66/5/6 72/5/6
f 71/4/6 68/4/6 72/4/6
f 69/4/6 70/4/6 73/4/6
f 61/5/6 69/5/6 73/5/6
f 70/5/6 71/5/6 74/5/6
f 73/4/6 70/4/6 74/4/6
f 71/5/6 72/5/6 74/5/6
f 72/5/6 66/5/6 75/5/6
f 74/5/6 72/5/6 75/5/6
f 73/5/6 74/5/6 75/5/6
f 75/5/6 66/5/6 76/5/6
f 45/5/6 61/5/6 77/5/6
f 61/5/6 73/5/6 77/5/6
f 73/5/6 75/5/6 77/5/6
f 77/5/6 75/5/6 78/5/6
f 75/4/6 76/4/6 79/4/6
f 78/5/6 75/5/6 79/5/6
f 76/5/6 66/5/6 80/5/6
f 79/4/6 76/4/6 80/4/6
f 77/4/6 78/4/6 81/4/6
f 45/5/6 77/5/6 81/5/6
f 78/5/6 79/5/6 82/5/6
f 81/4/6 78/4/6 82/4/6
f 79/5/6 80/5/6 82/5/6
f 80/5/6 66/5/6 83/5/6
f 82/5/6 80/5/6 83/5/6
f 81/5/6 82/5/6 83/5/6
f 83/5/6 66/5/6 84/5/6
f 81/5/6 83/5/6 85/5/6
f 85/5/6 83/5/6 86/5/6
f 83/4/6 84/4/6 87/4/6
f 86/5/6 83/5/6 87/5/6
f 84/5/6 66/5/6 88/5/6
f 87/4/6 84/4/6 88/4/6
f 85/4/6 86/4/6 89/4/6
f 81/5/6 85/5/6 89/5/6
f 86/5/6 87/5/6 90/5/6
f 89/4/6 86/4/6 90/4/6
f 87/5/6 88/5/6 90/5/6
f 88/5/6 66/5/6 91/5/6
f 90/5/6 88/5/6 91/5/6
f 89/5/6 90/5/6 91/5/6
f 91/5/6 66/5/6 92/5/6
f 66/5/6 46/5/6 93/5/6
f 92/5/6 66/5/6 93/5/6
f 93/5/6 46/5/6 94/5/6
f 91/4/6 92/4/6 95/4/6
f 89/5/6 91/5/6 95/5/6
f 92/5/6 93/5/6 96/5/6
f 95/4/6 92/4/6 96/4/6
f 93/4/6 94/4/6 97/4/6
f 96/5/6 93/5/6 97/5/6
f 94/5/6 46/5/6 98/5/6
f 97/4/6 94/4/6 98/4/6
f 96/5/6 97/5/6 99/5/6
f 81/5/6 89/5/6 99/5/6
f 97/5/6 98/5/6 99/5/6
f 89/5/6 95/5/6 99/5/6
f 95/5/6 96/5/6 99/5/6
f 99/5/6 98/5/6 100/5/6
f 100/5/6 98/5/6 101/5/6
f 101/5/6 98/5/6 102/5/6
f 81/5/6 99/5/6 103/5/6
f 99/4/6 100/4/6 103/4/6
f 100/5/6 101/5/6 104/5/6
f 103/4/6 100/4/6 104/4/6
f 101/4/6 102/4/6 105/4/6
f 104/5/6 101/5/6 105/5/6
f 102/5/6 98/5/6 106/5/6
f 105/4/6 102/4/6 106/4/6
f 104/5/6 105/5/6 107/5/6
f 106/5/6 98/5/6 107/5/6
f 105/5/6 106/5/6 107/5/6
f 103/5/6 104/5/6 107/5/6
f 107/5/6 98/5/6 108/5/6
f 103/5/6 107/5/6 109/5/6
f 107/4/6 108/4/6 109/4/6
f 108/5/6 98/5/6 110/5/6
f 109/4/6 108/4/6 110/4/6
f 103/5/6 109/5/6 111/5/6
f 109/5/6 110/5/6 111/5/6
f 111/5/6 110/5/6 112/5/6
f 45/5/6 81/5/6 113/5/6
f 81/5/6 103/5/6 113/5/6
f 103/5/6 111/5/6 113/5/6
f 113/5/6 111/5/6 114/5/6
f 111/4/6 112/4/6 115/4/6
f 114/5/6 111/5/6 115/5/6
f 112/5/6 110/5/6 116/5/6
f 115/4/6 112/4/6 116/4/6
f 116/5/6 110/5/6 117/5/6
f 117/5/6 110/5/6 118/5/6
f 113/4/6 114/4/6 119/4/6
f 45/5/6 113/5/6 119/5/6
f 114/5/6 115/5/6 120/5/6
f 119/4/6 114/4/6 120/4/6
f 115/5/6 116/5/6 120/5/6
f 116/5/6 117/5/6 120/5/6
f 117/4/6 118/4/6 121/4/6
f 120/5/6 117/5/6 121/5/6
f 118/5/6 110/5/6 122/5/6
f 121/4/6 118/4/6 122/4/6
f 45/5/6 119/5/6 123/5/6
f 120/5/6 121/5/6 123/5/6
f 121/5/6 122/5/6 123/5/6
f 119/5/6 120/5/6 123/5/6
f 122/5/6 110/5/6 124/5/6
f 123/5/6 122/5/6 124/5/6
f 98/5/6 46/5/6 124/5/6
f 110/5/6 98/5/6 124/5/6
