# MagicaVoxel @ Ephtracy

# group
g prototype-fullmountain-3

# material
mtllib prototype-fullmountain-3.mtl
usemtl palette

# normals
vn -1 0 0
vn 1 0 0
vn 0 0 1
vn 0 0 -1
vn 0 -1 0
vn 0 1 0

# texcoords
vt 0.525391 0.5
vt 0.533203 0.5
vt 0.568359 0.5
vt 0.978516 0.5
vt 0.982422 0.5
vt 0.986328 0.5

# verts
v -20 0 20
v -20 0 -20
v -20 5 20
v -20 5 -20
v -20 16 20
v -20 16 -20
v -20 21 20
v -20 21 -20
v -20 25 20
v -20 25 -20
v 20 0 20
v 20 0 -20
v 20 5 20
v 20 5 -20
v 20 16 20
v 20 16 -20
v 20 21 20
v 20 21 -20
v 20 25 20
v 20 25 -20
v -20 0 20
v -20 5 20
v -20 16 20
v -20 21 20
v -20 25 20
v 20 0 20
v 20 5 20
v 20 16 20
v 20 21 20
v 20 25 20
v -20 0 -20
v -20 5 -20
v -20 16 -20
v -20 21 -20
v -20 25 -20
v 20 0 -20
v 20 5 -20
v 20 16 -20
v 20 21 -20
v 20 25 -20
v -20 0 20
v 20 0 20
v -20 0 -20
v 20 0 -20
v -20 25 20
v 20 25 20
v -17 25 18
v -13 25 18
v -5 25 18
v -3 25 18
v 8 25 18
v 10 25 18
v -17 25 17
v -14 25 17
v -6 25 17
v -5 25 17
v -4 25 17
v -3 25 17
v -2 25 17
v 8 25 17
v 10 25 17
v -14 25 16
v -13 25 16
v -6 25 16
v -5 25 16
v -4 25 16
v -3 25 16
v -2 25 16
v 8 25 16
v 10 25 16
v 15 25 16
v 16 25 16
v -12 25 15
v -10 25 15
v 15 25 15
v 16 25 15
v -12 25 14
v -10 25 14
v -9 25 14
v -12 25 13
v -10 25 13
v -9 25 13
v -5 25 12
v -4 25 12
v 7 25 12
v 8 25 12
v 15 25 12
v 16 25 12
v -4 25 11
v -3 25 11
v 6 25 11
v 7 25 11
v -5 25 10
v -3 25 10
v 6 25 10
v 8 25 10
v -15 25 8
v -14 25 8
v 15 25 8
v 16 25 8
v -14 25 7
v -13 25 7
v -6 25 7
v -4 25 7
v -3 25 7
v -15 25 6
v -14 25 6
v -6 25 6
v -5 25 6
v -3 25 6
v -1 25 6
v -14 25 5
v -13 25 5
v -5 25 5
v -4 25 5
v -1 25 5
v 3 25 3
v 4 25 3
v 13 25 3
v 14 25 3
v 2 25 2
v 3 25 2
v 4 25 2
v 5 25 2
v 2 25 1
v 3 25 1
v 4 25 1
v 5 25 1
v 2 25 -0
v 4 25 -0
v -7 25 -1
v -5 25 -1
v 14 25 -1
v 15 25 -1
v -14 25 -2
v -13 25 -2
v -7 25 -2
v -6 25 -2
v -5 25 -2
v 13 25 -2
v 14 25 -2
v -7 25 -3
v -6 25 -3
v 8 25 -3
v 9 25 -3
v 14 25 -3
v 15 25 -3
v -14 25 -5
v -13 25 -5
v 8 25 -5
v 9 25 -5
v 2 25 -7
v 3 25 -7
v -7 25 -8
v -6 25 -8
v -5 25 -8
v -4 25 -8
v -14 25 -9
v -12 25 -9
v -7 25 -9
v -6 25 -9
v -5 25 -9
v -4 25 -9
v 1 25 -9
v 2 25 -9
v 3 25 -9
v 4 25 -9
v -14 25 -10
v -13 25 -10
v -6 25 -10
v -5 25 -10
v 1 25 -10
v 2 25 -10
v 4 25 -10
v -14 25 -11
v -13 25 -11
v -15 25 -12
v -14 25 -12
v -13 25 -12
v -12 25 -12
v -15 25 -13
v -14 25 -13
v -13 25 -13
v 8 25 -13
v 12 25 -13
v -14 25 -14
v -13 25 -14
v 8 25 -14
v 11 25 -14
v -4 25 -15
v -2 25 -15
v -1 25 -15
v 11 25 -15
v 12 25 -15
v -4 25 -16
v -3 25 -16
v -2 25 -16
v -1 25 -16
v 17 25 -17
v 18 25 -17
v -3 25 -18
v -2 25 -18
v 17 25 -18
v 18 25 -18
v -20 25 -20
v 20 25 -20

# faces
f 3/3/1 2/3/1 1/3/1
f 4/3/1 2/3/1 3/3/1
f 5/1/1 4/1/1 3/1/1
f 6/1/1 4/1/1 5/1/1
f 7/2/1 6/2/1 5/2/1
f 8/2/1 6/2/1 7/2/1
f 9/5/1 8/5/1 7/5/1
f 10/5/1 8/5/1 9/5/1
f 11/3/2 12/3/2 13/3/2
f 13/3/2 12/3/2 14/3/2
f 13/1/2 14/1/2 15/1/2
f 15/1/2 14/1/2 16/1/2
f 15/2/2 16/2/2 17/2/2
f 17/2/2 16/2/2 18/2/2
f 17/5/2 18/5/2 19/5/2
f 19/5/2 18/5/2 20/5/2
f 26/3/3 22/3/3 21/3/3
f 27/1/3 23/1/3 22/1/3
f 27/3/3 22/3/3 26/3/3
f 28/2/3 24/2/3 23/2/3
f 28/1/3 23/1/3 27/1/3
f 29/5/3 25/5/3 24/5/3
f 29/2/3 24/2/3 28/2/3
f 30/5/3 25/5/3 29/5/3
f 31/3/4 32/3/4 36/3/4
f 32/1/4 33/1/4 37/1/4
f 36/3/4 32/3/4 37/3/4
f 33/2/4 34/2/4 38/2/4
f 37/1/4 33/1/4 38/1/4
f 34/5/4 35/5/4 39/5/4
f 38/2/4 34/2/4 39/2/4
f 39/5/4 35/5/4 40/5/4
f 43/3/5 42/3/5 41/3/5
f 44/3/5 42/3/5 43/3/5
f 45/5/6 46/5/6 47/5/6
f 47/5/6 46/5/6 48/5/6
f 48/5/6 46/5/6 49/5/6
f 49/5/6 46/5/6 50/5/6
f 50/5/6 46/5/6 51/5/6
f 51/5/6 46/5/6 52/5/6
f 45/5/6 47/5/6 53/5/6
f 47/4/6 48/4/6 53/4/6
f 53/4/6 48/4/6 54/4/6
f 48/5/6 49/5/6 55/5/6
f 49/6/6 50/6/6 56/6/6
f 55/5/6 49/5/6 56/5/6
f 56/6/6 50/6/6 57/6/6
f 50/5/6 51/5/6 58/5/6
f 57/6/6 50/6/6 58/6/6
f 58/5/6 51/5/6 59/5/6
f 51/4/6 52/4/6 60/4/6
f 59/5/6 51/5/6 60/5/6
f 52/5/6 46/5/6 61/5/6
f 60/4/6 52/4/6 61/4/6
f 54/4/6 48/4/6 62/4/6
f 53/5/6 54/5/6 62/5/6
f 48/5/6 55/5/6 63/5/6
f 62/4/6 48/4/6 63/4/6
f 55/4/6 56/4/6 64/4/6
f 63/5/6 55/5/6 64/5/6
f 56/6/6 57/6/6 65/6/6
f 64/4/6 56/4/6 65/4/6
f 57/4/6 58/4/6 66/4/6
f 65/6/6 57/6/6 66/6/6
f 58/6/6 59/6/6 67/6/6
f 66/4/6 58/4/6 67/4/6
f 59/5/6 60/5/6 68/5/6
f 67/6/6 59/6/6 68/6/6
f 60/6/6 61/6/6 69/6/6
f 68/5/6 60/5/6 69/5/6
f 61/5/6 46/5/6 70/5/6
f 69/6/6 61/6/6 70/6/6
f 70/5/6 46/5/6 71/5/6
f 71/5/6 46/5/6 72/5/6
f 66/5/6 67/5/6 73/5/6
f 65/5/6 66/5/6 73/5/6
f 68/5/6 69/5/6 73/5/6
f 70/5/6 71/5/6 73/5/6
f 69/5/6 70/5/6 73/5/6
f 64/5/6 65/5/6 73/5/6
f 62/5/6 63/5/6 73/5/6
f 67/5/6 68/5/6 73/5/6
f 63/5/6 64/5/6 73/5/6
f 73/5/6 71/5/6 74/5/6
f 71/4/6 72/4/6 75/4/6
f 74/5/6 71/5/6 75/5/6
f 72/5/6 46/5/6 76/5/6
f 75/4/6 72/4/6 76/4/6
f 73/4/6 74/4/6 77/4/6
f 62/5/6 73/5/6 77/5/6
f 74/5/6 75/5/6 78/5/6
f 77/4/6 74/4/6 78/4/6
f 75/5/6 76/5/6 78/5/6
f 78/5/6 76/5/6 79/5/6
f 62/5/6 77/5/6 80/5/6
f 77/6/6 78/6/6 80/6/6
f 78/4/6 79/4/6 81/4/6
f 80/6/6 78/6/6 81/6/6
f 79/5/6 76/5/6 82/5/6
f 81/4/6 79/4/6 82/4/6
f 80/5/6 81/5/6 83/5/6
f 82/5/6 76/5/6 83/5/6
f 81/5/6 82/5/6 83/5/6
f 83/5/6 76/5/6 84/5/6
f 84/5/6 76/5/6 85/5/6
f 85/5/6 76/5/6 86/5/6
f 86/5/6 76/5/6 87/5/6
f 76/5/6 46/5/6 88/5/6
f 87/5/6 76/5/6 88/5/6
f 83/4/6 84/4/6 89/4/6
f 84/5/6 85/5/6 89/5/6
f 89/5/6 85/5/6 90/5/6
f 90/5/6 85/5/6 91/5/6
f 85/6/6 86/6/6 92/6/6
f 91/5/6 85/5/6 92/5/6
f 80/5/6 83/5/6 93/5/6
f 83/4/6 89/4/6 93/4/6
f 89/4/6 90/4/6 93/4/6
f 90/5/6 91/5/6 94/5/6
f 93/4/6 90/4/6 94/4/6
f 91/6/6 92/6/6 95/6/6
f 94/5/6 91/5/6 95/5/6
f 86/5/6 87/5/6 96/5/6
f 95/6/6 92/6/6 96/6/6
f 92/6/6 86/6/6 96/6/6
f 62/5/6 80/5/6 97/5/6
f 94/5/6 95/5/6 97/5/6
f 95/5/6 96/5/6 97/5/6
f 80/5/6 93/5/6 97/5/6
f 53/5/6 62/5/6 97/5/6
f 93/5/6 94/5/6 97/5/6
f 97/5/6 96/5/6 98/5/6
f 96/5/6 87/5/6 99/5/6
f 98/5/6 96/5/6 99/5/6
f 87/4/6 88/4/6 99/4/6
f 88/5/6 46/5/6 100/5/6
f 99/4/6 88/4/6 100/4/6
f 97/4/6 98/4/6 101/4/6
f 98/5/6 99/5/6 101/5/6
f 99/5/6 100/5/6 101/5/6
f 101/5/6 100/5/6 102/5/6
f 102/5/6 100/5/6 103/5/6
f 103/5/6 100/5/6 104/5/6
f 104/5/6 100/5/6 105/5/6
f 53/5/6 97/5/6 106/5/6
f 97/4/6 101/4/6 106/4/6
f 101/4/6 102/4/6 106/4/6
f 106/4/6 102/4/6 107/4/6
f 103/6/6 104/6/6 108/6/6
f 102/5/6 103/5/6 108/5/6
f 108/6/6 104/6/6 109/6/6
f 105/5/6 100/5/6 110/5/6
f 104/4/6 105/4/6 110/4/6
f 110/5/6 100/5/6 111/5/6
f 107/4/6 102/4/6 112/4/6
f 106/5/6 107/5/6 112/5/6
f 108/5/6 109/5/6 113/5/6
f 112/4/6 102/4/6 113/4/6
f 102/5/6 108/5/6 113/5/6
f 109/6/6 104/6/6 114/6/6
f 113/5/6 109/5/6 114/5/6
f 110/4/6 111/4/6 115/4/6
f 114/6/6 104/6/6 115/6/6
f 104/4/6 110/4/6 115/4/6
f 111/5/6 100/5/6 116/5/6
f 115/4/6 111/4/6 116/4/6
f 112/5/6 113/5/6 117/5/6
f 116/5/6 100/5/6 117/5/6
f 115/5/6 116/5/6 117/5/6
f 114/5/6 115/5/6 117/5/6
f 113/5/6 114/5/6 117/5/6
f 117/5/6 100/5/6 118/5/6
f 118/5/6 100/5/6 119/5/6
f 119/5/6 100/5/6 120/5/6
f 112/5/6 117/5/6 121/5/6
f 117/4/6 118/4/6 122/4/6
f 121/5/6 117/5/6 122/5/6
f 118/5/6 119/5/6 123/5/6
f 122/4/6 118/4/6 123/4/6
f 123/5/6 119/5/6 124/5/6
f 112/5/6 121/5/6 125/5/6
f 121/4/6 122/4/6 125/4/6
f 123/6/6 124/6/6 126/6/6
f 125/4/6 122/4/6 126/4/6
f 122/6/6 123/6/6 126/6/6
f 126/6/6 124/6/6 127/6/6
f 124/5/6 119/5/6 128/5/6
f 127/6/6 124/6/6 128/6/6
f 126/6/6 127/6/6 129/6/6
f 112/5/6 125/5/6 129/5/6
f 125/6/6 126/6/6 129/6/6
f 127/5/6 128/5/6 130/5/6
f 129/6/6 127/6/6 130/6/6
f 112/5/6 129/5/6 131/5/6
f 129/5/6 130/5/6 131/5/6
f 131/5/6 130/5/6 132/5/6
f 120/5/6 100/5/6 133/5/6
f 119/4/6 120/4/6 133/4/6
f 133/5/6 100/5/6 134/5/6
f 106/5/6 112/5/6 135/5/6
f 112/5/6 131/5/6 135/5/6
f 135/5/6 131/5/6 136/5/6
f 131/4/6 132/4/6 137/4/6
f 136/5/6 131/5/6 137/5/6
f 137/4/6 132/4/6 138/4/6
f 132/5/6 130/5/6 139/5/6
f 138/4/6 132/4/6 139/4/6
f 128/5/6 119/5/6 140/5/6
f 139/5/6 130/5/6 140/5/6
f 130/5/6 128/5/6 140/5/6
f 133/4/6 134/4/6 140/4/6
f 119/4/6 133/4/6 140/4/6
f 140/4/6 134/4/6 141/4/6
f 137/6/6 138/6/6 142/6/6
f 136/5/6 137/5/6 142/5/6
f 138/5/6 139/5/6 143/5/6
f 142/6/6 138/6/6 143/6/6
f 140/5/6 141/5/6 143/5/6
f 139/5/6 140/5/6 143/5/6
f 143/5/6 141/5/6 144/5/6
f 144/5/6 141/5/6 145/5/6
f 141/4/6 134/4/6 146/4/6
f 145/5/6 141/5/6 146/5/6
f 134/5/6 100/5/6 147/5/6
f 146/4/6 134/4/6 147/4/6
f 106/5/6 135/5/6 148/5/6
f 135/6/6 136/6/6 148/6/6
f 136/5/6 142/5/6 149/5/6
f 148/6/6 136/6/6 149/6/6
f 142/5/6 143/5/6 149/5/6
f 143/5/6 144/5/6 149/5/6
f 144/4/6 145/4/6 150/4/6
f 149/5/6 144/5/6 150/5/6
f 145/5/6 146/5/6 151/5/6
f 150/4/6 145/4/6 151/4/6
f 146/5/6 147/5/6 151/5/6
f 149/5/6 150/5/6 152/5/6
f 148/5/6 149/5/6 152/5/6
f 150/5/6 151/5/6 152/5/6
f 152/5/6 151/5/6 153/5/6
f 148/5/6 152/5/6 154/5/6
f 154/5/6 152/5/6 155/5/6
f 155/5/6 152/5/6 156/5/6
f 156/5/6 152/5/6 157/5/6
f 106/5/6 148/5/6 158/5/6
f 148/5/6 154/5/6 158/5/6
f 158/5/6 154/5/6 159/5/6
f 154/4/6 155/4/6 160/4/6
f 159/5/6 154/5/6 160/5/6
f 155/6/6 156/6/6 161/6/6
f 160/4/6 155/4/6 161/4/6
f 156/4/6 157/4/6 162/4/6
f 161/6/6 156/6/6 162/6/6
f 157/5/6 152/5/6 163/5/6
f 162/4/6 157/4/6 163/4/6
f 163/5/6 152/5/6 164/5/6
f 152/6/6 153/6/6 165/6/6
f 164/5/6 152/5/6 165/5/6
f 153/5/6 151/5/6 166/5/6
f 165/6/6 153/6/6 166/6/6
f 166/5/6 151/5/6 167/5/6
f 158/6/6 159/6/6 168/6/6
f 106/5/6 158/5/6 168/5/6
f 168/6/6 159/6/6 169/6/6
f 161/6/6 162/6/6 170/6/6
f 160/5/6 161/5/6 170/5/6
f 159/5/6 160/5/6 170/5/6
f 163/5/6 164/5/6 171/5/6
f 170/6/6 162/6/6 171/6/6
f 162/5/6 163/5/6 171/5/6
f 164/4/6 165/4/6 172/4/6
f 171/5/6 164/5/6 172/5/6
f 166/6/6 167/6/6 173/6/6
f 172/4/6 165/4/6 173/4/6
f 165/6/6 166/6/6 173/6/6
f 167/5/6 151/5/6 174/5/6
f 173/6/6 167/6/6 174/6/6
f 168/5/6 169/5/6 175/5/6
f 106/5/6 168/5/6 175/5/6
f 169/6/6 159/6/6 176/6/6
f 175/5/6 169/5/6 176/5/6
f 53/5/6 106/5/6 177/5/6
f 106/5/6 175/5/6 177/5/6
f 175/6/6 176/6/6 178/6/6
f 177/5/6 175/5/6 178/5/6
f 176/6/6 159/6/6 179/6/6
f 178/6/6 176/6/6 179/6/6
f 170/5/6 171/5/6 180/5/6
f 179/6/6 159/6/6 180/6/6
f 159/5/6 170/5/6 180/5/6
f 171/5/6 172/5/6 180/5/6
f 173/5/6 174/5/6 180/5/6
f 172/5/6 173/5/6 180/5/6
f 177/6/6 178/6/6 181/6/6
f 53/5/6 177/5/6 181/5/6
f 178/6/6 179/6/6 181/6/6
f 181/6/6 179/6/6 182/6/6
f 179/5/6 180/5/6 183/5/6
f 182/6/6 179/6/6 183/6/6
f 180/5/6 174/5/6 184/5/6
f 183/5/6 180/5/6 184/5/6
f 174/5/6 151/5/6 184/5/6
f 151/5/6 147/5/6 185/5/6
f 184/5/6 151/5/6 185/5/6
f 182/4/6 183/4/6 186/4/6
f 181/5/6 182/5/6 186/5/6
f 183/5/6 184/5/6 187/5/6
f 186/4/6 183/4/6 187/4/6
f 184/4/6 185/4/6 188/4/6
f 187/5/6 184/5/6 188/5/6
f 188/4/6 185/4/6 189/4/6
f 186/5/6 187/5/6 190/5/6
f 187/5/6 188/5/6 190/5/6
f 188/5/6 189/5/6 190/5/6
f 190/5/6 189/5/6 191/5/6
f 191/5/6 189/5/6 192/5/6
f 189/4/6 185/4/6 193/4/6
f 192/5/6 189/5/6 193/5/6
f 185/5/6 147/5/6 194/5/6
f 193/4/6 185/4/6 194/4/6
f 186/5/6 190/5/6 195/5/6
f 190/6/6 191/6/6 195/6/6
f 195/6/6 191/6/6 196/6/6
f 191/4/6 192/4/6 197/4/6
f 196/6/6 191/6/6 197/6/6
f 192/5/6 193/5/6 198/5/6
f 197/4/6 192/4/6 198/4/6
f 193/5/6 194/5/6 198/5/6
f 100/5/6 46/5/6 199/5/6
f 198/5/6 194/5/6 199/5/6
f 197/5/6 198/5/6 199/5/6
f 147/5/6 100/5/6 199/5/6
f 194/5/6 147/5/6 199/5/6
f 199/5/6 46/5/6 200/5/6
f 196/6/6 197/6/6 201/6/6
f 195/5/6 196/5/6 201/5/6
f 197/5/6 199/5/6 202/5/6
f 201/6/6 197/6/6 202/6/6
f 199/4/6 200/4/6 203/4/6
f 202/5/6 199/5/6 203/5/6
f 200/5/6 46/5/6 204/5/6
f 203/4/6 200/4/6 204/4/6
f 186/5/6 195/5/6 205/5/6
f 202/5/6 203/5/6 205/5/6
f 203/5/6 204/5/6 205/5/6
f 195/5/6 201/5/6 205/5/6
f 201/5/6 202/5/6 205/5/6
f 53/5/6 181/5/6 205/5/6
f 181/5/6 186/5/6 205/5/6
f 45/5/6 53/5/6 205/5/6
f 204/5/6 46/5/6 206/5/6
f 205/5/6 204/5/6 206/5/6
