# MagicaVoxel @ Ephtracy

# group
g tile-fullmountain-4

# material
mtllib tile-fullmountain-4.mtl
usemtl palette

# normals
vn -1 0 0
vn 1 0 0
vn 0 0 1
vn 0 0 -1
vn 0 -1 0
vn 0 1 0

# texcoords
vt 0.525391 0.5
vt 0.533203 0.5
vt 0.568359 0.5
vt 0.982422 0.5

# verts
v -20 0 20
v -20 0 -20
v -20 5 20
v -20 5 -20
v -20 16 20
v -20 16 -20
v -20 21 20
v -20 21 -20
v -20 25 20
v -20 25 -20
v -15 25 -0
v -15 25 -4
v -15 26 -0
v -15 26 -4
v -14 25 1
v -14 25 -0
v -14 25 -4
v -14 25 -9
v -14 26 1
v -14 26 -0
v -14 26 -4
v -14 26 -9
v -13 25 -9
v -13 25 -10
v -13 26 -9
v -13 26 -10
v -12 25 -10
v -12 25 -11
v -12 26 -10
v -12 26 -11
v -11 25 -11
v -11 25 -13
v -11 26 -11
v -11 26 -13
v -10 25 -13
v -10 25 -14
v -10 26 -13
v -10 26 -14
v -3 24 13
v -3 24 12
v -3 25 13
v -3 25 12
v 2 24 12
v 2 24 11
v 2 25 12
v 2 25 11
v 3 24 11
v 3 24 10
v 3 25 11
v 3 25 10
v 5 24 -10
v 5 24 -11
v 5 25 -10
v 5 25 -11
v 6 24 10
v 6 24 9
v 6 25 10
v 6 25 9
v 8 24 9
v 8 24 8
v 8 25 9
v 8 25 8
v 10 24 -10
v 10 24 -11
v 10 25 -10
v 10 25 -11
v 11 24 -8
v 11 24 -10
v 11 25 -8
v 11 25 -10
v 12 24 8
v 12 24 7
v 12 24 -7
v 12 24 -8
v 12 25 8
v 12 25 7
v 12 25 -7
v 12 25 -8
v 13 24 7
v 13 24 6
v 13 24 -6
v 13 24 -7
v 13 25 7
v 13 25 6
v 13 25 -6
v 13 25 -7
v 15 24 6
v 15 24 5
v 15 24 -5
v 15 24 -6
v 15 25 6
v 15 25 5
v 15 25 -5
v 15 25 -6
v 16 24 5
v 16 24 3
v 16 24 -2
v 16 24 -5
v 16 25 5
v 16 25 3
v 16 25 -2
v 16 25 -5
v 17 24 3
v 17 24 -2
v 17 25 3
v 17 25 -2
v -9 24 12
v -9 24 8
v -9 25 12
v -9 25 8
v -9 25 1
v -9 25 -0
v -9 26 1
v -9 26 -0
v -8 24 13
v -8 24 12
v -8 24 8
v -8 24 7
v -8 25 13
v -8 25 12
v -8 25 8
v -8 25 7
v -8 25 -0
v -8 25 -5
v -8 26 -0
v -8 26 -5
v -7 24 7
v -7 24 2
v -7 25 7
v -7 25 2
v -7 25 -5
v -7 25 -6
v -7 26 -5
v -7 26 -6
v -6 24 2
v -6 24 -0
v -6 25 2
v -6 25 -0
v -6 25 -6
v -6 25 -7
v -6 26 -6
v -6 26 -7
v -5 24 -0
v -5 24 -1
v -5 25 -0
v -5 25 -1
v -5 25 -7
v -5 25 -9
v -5 25 -13
v -5 25 -14
v -5 26 -7
v -5 26 -9
v -5 26 -13
v -5 26 -14
v -4 24 -1
v -4 24 -2
v -4 25 -1
v -4 25 -2
v -4 25 -9
v -4 25 -13
v -4 26 -9
v -4 26 -13
v -3 24 -2
v -3 24 -3
v -3 25 -2
v -3 25 -3
v -2 24 -3
v -2 24 -5
v -2 25 -3
v -2 25 -5
v -1 24 -5
v -1 24 -6
v -1 25 -5
v -1 25 -6
v 0 24 -6
v 0 24 -10
v 0 25 -6
v 0 25 -10
v 1 24 -10
v 1 24 -11
v 1 25 -10
v 1 25 -11
v 6 24 -10
v 6 24 -11
v 6 25 -10
v 6 25 -11
v 20 0 20
v 20 0 -20
v 20 5 20
v 20 5 -20
v 20 16 20
v 20 16 -20
v 20 21 20
v 20 21 -20
v 20 25 20
v 20 25 -20
v -20 0 20
v -20 5 20
v -20 16 20
v -20 21 20
v -20 25 20
v 20 0 20
v 20 5 20
v 20 16 20
v 20 21 20
v 20 25 20
v -9 24 8
v -9 25 8
v -8 24 8
v -8 25 8
v -8 24 7
v -8 25 7
v -7 24 7
v -7 25 7
v -7 24 2
v -7 25 2
v -6 24 2
v -6 25 2
v -14 25 1
v -14 26 1
v -9 25 1
v -9 26 1
v -15 25 -0
v -15 26 -0
v -14 25 -0
v -14 26 -0
v -9 25 -0
v -9 26 -0
v -8 25 -0
v -8 26 -0
v -6 24 -0
v -6 25 -0
v -5 24 -0
v -5 25 -0
v -5 24 -1
v -5 25 -1
v -4 24 -1
v -4 25 -1
v -4 24 -2
v -4 25 -2
v -3 24 -2
v -3 25 -2
v 16 24 -2
v 16 25 -2
v 17 24 -2
v 17 25 -2
v -3 24 -3
v -3 25 -3
v -2 24 -3
v -2 25 -3
v -8 25 -5
v -8 26 -5
v -7 25 -5
v -7 26 -5
v -2 24 -5
v -2 25 -5
v -1 24 -5
v -1 25 -5
v 15 24 -5
v 15 25 -5
v 16 24 -5
v 16 25 -5
v -7 25 -6
v -7 26 -6
v -6 25 -6
v -6 26 -6
v -1 24 -6
v -1 25 -6
v 0 24 -6
v 0 25 -6
v 13 24 -6
v 13 25 -6
v 15 24 -6
v 15 25 -6
v -6 25 -7
v -6 26 -7
v -5 25 -7
v -5 26 -7
v 12 24 -7
v 12 25 -7
v 13 24 -7
v 13 25 -7
v 11 24 -8
v 11 25 -8
v 12 24 -8
v 12 25 -8
v -5 25 -9
v -5 26 -9
v -4 25 -9
v -4 26 -9
v 0 24 -10
v 0 25 -10
v 1 24 -10
v 1 25 -10
v 5 24 -10
v 5 25 -10
v 6 24 -10
v 6 25 -10
v 10 24 -10
v 10 25 -10
v 11 24 -10
v 11 25 -10
v 1 24 -11
v 1 25 -11
v 5 24 -11
v 5 25 -11
v 6 24 -11
v 6 25 -11
v 10 24 -11
v 10 25 -11
v -8 24 13
v -8 25 13
v -3 24 13
v -3 25 13
v -9 24 12
v -9 25 12
v -8 24 12
v -8 25 12
v -3 24 12
v -3 25 12
v 2 24 12
v 2 25 12
v 2 24 11
v 2 25 11
v 3 24 11
v 3 25 11
v 3 24 10
v 3 25 10
v 6 24 10
v 6 25 10
v 6 24 9
v 6 25 9
v 8 24 9
v 8 25 9
v 8 24 8
v 8 25 8
v 12 24 8
v 12 25 8
v 12 24 7
v 12 25 7
v 13 24 7
v 13 25 7
v 13 24 6
v 13 25 6
v 15 24 6
v 15 25 6
v 15 24 5
v 15 25 5
v 16 24 5
v 16 25 5
v 16 24 3
v 16 25 3
v 17 24 3
v 17 25 3
v -15 25 -4
v -15 26 -4
v -14 25 -4
v -14 26 -4
v -14 25 -9
v -14 26 -9
v -13 25 -9
v -13 26 -9
v -13 25 -10
v -13 26 -10
v -12 25 -10
v -12 26 -10
v -12 25 -11
v -12 26 -11
v -11 25 -11
v -11 26 -11
v -11 25 -13
v -11 26 -13
v -10 25 -13
v -10 26 -13
v -5 25 -13
v -5 26 -13
v -4 25 -13
v -4 26 -13
v -10 25 -14
v -10 26 -14
v -5 25 -14
v -5 26 -14
v -20 0 -20
v -20 5 -20
v -20 16 -20
v -20 21 -20
v -20 25 -20
v 20 0 -20
v 20 5 -20
v 20 16 -20
v 20 21 -20
v 20 25 -20
v -20 0 20
v 20 0 20
v -20 0 -20
v 20 0 -20
v -8 24 13
v -3 24 13
v -9 24 12
v -8 24 12
v -3 24 12
v 2 24 12
v 2 24 11
v 3 24 11
v 3 24 10
v 6 24 10
v 6 24 9
v 8 24 9
v -9 24 8
v -8 24 8
v 8 24 8
v 12 24 8
v -8 24 7
v -7 24 7
v 12 24 7
v 13 24 7
v 13 24 6
v 15 24 6
v 15 24 5
v 16 24 5
v 16 24 3
v 17 24 3
v -7 24 2
v -6 24 2
v -6 24 -0
v -5 24 -0
v -5 24 -1
v -4 24 -1
v -4 24 -2
v -3 24 -2
v 16 24 -2
v 17 24 -2
v -3 24 -3
v -2 24 -3
v -2 24 -5
v -1 24 -5
v 15 24 -5
v 16 24 -5
v -1 24 -6
v 0 24 -6
v 13 24 -6
v 15 24 -6
v 12 24 -7
v 13 24 -7
v 11 24 -8
v 12 24 -8
v 0 24 -10
v 1 24 -10
v 5 24 -10
v 6 24 -10
v 10 24 -10
v 11 24 -10
v 1 24 -11
v 5 24 -11
v 6 24 -11
v 10 24 -11
v -20 25 20
v 20 25 20
v -8 25 13
v -3 25 13
v -9 25 12
v -8 25 12
v -3 25 12
v 2 25 12
v 2 25 11
v 3 25 11
v 3 25 10
v 6 25 10
v 6 25 9
v 8 25 9
v -9 25 8
v -8 25 8
v 8 25 8
v 12 25 8
v -8 25 7
v -7 25 7
v 12 25 7
v 13 25 7
v 13 25 6
v 15 25 6
v 15 25 5
v 16 25 5
v 16 25 3
v 17 25 3
v -7 25 2
v -6 25 2
v -14 25 1
v -9 25 1
v -15 25 -0
v -14 25 -0
v -9 25 -0
v -8 25 -0
v -6 25 -0
v -5 25 -0
v -5 25 -1
v -4 25 -1
v -4 25 -2
v -3 25 -2
v 16 25 -2
v 17 25 -2
v -3 25 -3
v -2 25 -3
v -15 25 -4
v -14 25 -4
v -8 25 -5
v -7 25 -5
v -2 25 -5
v -1 25 -5
v 15 25 -5
v 16 25 -5
v -7 25 -6
v -6 25 -6
v -1 25 -6
v 0 25 -6
v 13 25 -6
v 15 25 -6
v -6 25 -7
v -5 25 -7
v 12 25 -7
v 13 25 -7
v 11 25 -8
v 12 25 -8
v -14 25 -9
v -13 25 -9
v -5 25 -9
v -4 25 -9
v -13 25 -10
v -12 25 -10
v 0 25 -10
v 1 25 -10
v 5 25 -10
v 6 25 -10
v 10 25 -10
v 11 25 -10
v -12 25 -11
v -11 25 -11
v 1 25 -11
v 5 25 -11
v 6 25 -11
v 10 25 -11
v -11 25 -13
v -10 25 -13
v -5 25 -13
v -4 25 -13
v -10 25 -14
v -5 25 -14
v -20 25 -20
v 20 25 -20
v -14 26 1
v -9 26 1
v -15 26 -0
v -14 26 -0
v -9 26 -0
v -8 26 -0
v -15 26 -4
v -14 26 -4
v -8 26 -5
v -7 26 -5
v -7 26 -6
v -6 26 -6
v -6 26 -7
v -5 26 -7
v -14 26 -9
v -13 26 -9
v -5 26 -9
v -4 26 -9
v -13 26 -10
v -12 26 -10
v -12 26 -11
v -11 26 -11
v -11 26 -13
v -10 26 -13
v -5 26 -13
v -4 26 -13
v -10 26 -14
v -5 26 -14

# faces
f 3/3/1 2/3/1 1/3/1
f 4/3/1 2/3/1 3/3/1
f 5/1/1 4/1/1 3/1/1
f 6/1/1 4/1/1 5/1/1
f 7/2/1 6/2/1 5/2/1
f 8/2/1 6/2/1 7/2/1
f 9/4/1 8/4/1 7/4/1
f 10/4/1 8/4/1 9/4/1
f 13/4/1 12/4/1 11/4/1
f 14/4/1 12/4/1 13/4/1
f 19/4/1 16/4/1 15/4/1
f 20/4/1 16/4/1 19/4/1
f 21/4/1 18/4/1 17/4/1
f 22/4/1 18/4/1 21/4/1
f 25/4/1 24/4/1 23/4/1
f 26/4/1 24/4/1 25/4/1
f 29/4/1 28/4/1 27/4/1
f 30/4/1 28/4/1 29/4/1
f 33/4/1 32/4/1 31/4/1
f 34/4/1 32/4/1 33/4/1
f 37/4/1 36/4/1 35/4/1
f 38/4/1 36/4/1 37/4/1
f 41/4/1 40/4/1 39/4/1
f 42/4/1 40/4/1 41/4/1
f 45/4/1 44/4/1 43/4/1
f 46/4/1 44/4/1 45/4/1
f 49/4/1 48/4/1 47/4/1
f 50/4/1 48/4/1 49/4/1
f 53/4/1 52/4/1 51/4/1
f 54/4/1 52/4/1 53/4/1
f 57/4/1 56/4/1 55/4/1
f 58/4/1 56/4/1 57/4/1
f 61/4/1 60/4/1 59/4/1
f 62/4/1 60/4/1 61/4/1
f 65/4/1 64/4/1 63/4/1
f 66/4/1 64/4/1 65/4/1
f 69/4/1 68/4/1 67/4/1
f 70/4/1 68/4/1 69/4/1
f 75/4/1 72/4/1 71/4/1
f 76/4/1 72/4/1 75/4/1
f 77/4/1 74/4/1 73/4/1
f 78/4/1 74/4/1 77/4/1
f 83/4/1 80/4/1 79/4/1
f 84/4/1 80/4/1 83/4/1
f 85/4/1 82/4/1 81/4/1
f 86/4/1 82/4/1 85/4/1
f 91/4/1 88/4/1 87/4/1
f 92/4/1 88/4/1 91/4/1
f 93/4/1 90/4/1 89/4/1
f 94/4/1 90/4/1 93/4/1
f 99/4/1 96/4/1 95/4/1
f 100/4/1 96/4/1 99/4/1
f 101/4/1 98/4/1 97/4/1
f 102/4/1 98/4/1 101/4/1
f 105/4/1 104/4/1 103/4/1
f 106/4/1 104/4/1 105/4/1
f 107/4/2 108/4/2 109/4/2
f 109/4/2 108/4/2 110/4/2
f 111/4/2 112/4/2 113/4/2
f 113/4/2 112/4/2 114/4/2
f 115/4/2 116/4/2 119/4/2
f 119/4/2 116/4/2 120/4/2
f 117/4/2 118/4/2 121/4/2
f 121/4/2 118/4/2 122/4/2
f 123/4/2 124/4/2 125/4/2
f 125/4/2 124/4/2 126/4/2
f 127/4/2 128/4/2 129/4/2
f 129/4/2 128/4/2 130/4/2
f 131/4/2 132/4/2 133/4/2
f 133/4/2 132/4/2 134/4/2
f 135/4/2 136/4/2 137/4/2
f 137/4/2 136/4/2 138/4/2
f 139/4/2 140/4/2 141/4/2
f 141/4/2 140/4/2 142/4/2
f 143/4/2 144/4/2 145/4/2
f 145/4/2 144/4/2 146/4/2
f 147/4/2 148/4/2 151/4/2
f 151/4/2 148/4/2 152/4/2
f 149/4/2 150/4/2 153/4/2
f 153/4/2 150/4/2 154/4/2
f 155/4/2 156/4/2 157/4/2
f 157/4/2 156/4/2 158/4/2
f 159/4/2 160/4/2 161/4/2
f 161/4/2 160/4/2 162/4/2
f 163/4/2 164/4/2 165/4/2
f 165/4/2 164/4/2 166/4/2
f 167/4/2 168/4/2 169/4/2
f 169/4/2 168/4/2 170/4/2
f 171/4/2 172/4/2 173/4/2
f 173/4/2 172/4/2 174/4/2
f 175/4/2 176/4/2 177/4/2
f 177/4/2 176/4/2 178/4/2
f 179/4/2 180/4/2 181/4/2
f 181/4/2 180/4/2 182/4/2
f 183/4/2 184/4/2 185/4/2
f 185/4/2 184/4/2 186/4/2
f 187/3/2 188/3/2 189/3/2
f 189/3/2 188/3/2 190/3/2
f 189/1/2 190/1/2 191/1/2
f 191/1/2 190/1/2 192/1/2
f 191/2/2 192/2/2 193/2/2
f 193/2/2 192/2/2 194/2/2
f 193/4/2 194/4/2 195/4/2
f 195/4/2 194/4/2 196/4/2
f 202/3/3 198/3/3 197/3/3
f 203/1/3 199/1/3 198/1/3
f 203/3/3 198/3/3 202/3/3
f 204/2/3 200/2/3 199/2/3
f 204/1/3 199/1/3 203/1/3
f 205/4/3 201/4/3 200/4/3
f 205/2/3 200/2/3 204/2/3
f 206/4/3 201/4/3 205/4/3
f 209/4/3 208/4/3 207/4/3
f 210/4/3 208/4/3 209/4/3
f 213/4/3 212/4/3 211/4/3
f 214/4/3 212/4/3 213/4/3
f 217/4/3 216/4/3 215/4/3
f 218/4/3 216/4/3 217/4/3
f 221/4/3 220/4/3 219/4/3
f 222/4/3 220/4/3 221/4/3
f 225/4/3 224/4/3 223/4/3
f 226/4/3 224/4/3 225/4/3
f 229/4/3 228/4/3 227/4/3
f 230/4/3 228/4/3 229/4/3
f 233/4/3 232/4/3 231/4/3
f 234/4/3 232/4/3 233/4/3
f 237/4/3 236/4/3 235/4/3
f 238/4/3 236/4/3 237/4/3
f 241/4/3 240/4/3 239/4/3
f 242/4/3 240/4/3 241/4/3
f 245/4/3 244/4/3 243/4/3
f 246/4/3 244/4/3 245/4/3
f 249/4/3 248/4/3 247/4/3
f 250/4/3 248/4/3 249/4/3
f 253/4/3 252/4/3 251/4/3
f 254/4/3 252/4/3 253/4/3
f 257/4/3 256/4/3 255/4/3
f 258/4/3 256/4/3 257/4/3
f 261/4/3 260/4/3 259/4/3
f 262/4/3 260/4/3 261/4/3
f 265/4/3 264/4/3 263/4/3
f 266/4/3 264/4/3 265/4/3
f 269/4/3 268/4/3 267/4/3
f 270/4/3 268/4/3 269/4/3
f 273/4/3 272/4/3 271/4/3
f 274/4/3 272/4/3 273/4/3
f 277/4/3 276/4/3 275/4/3
f 278/4/3 276/4/3 277/4/3
f 281/4/3 280/4/3 279/4/3
f 282/4/3 280/4/3 281/4/3
f 285/4/3 284/4/3 283/4/3
f 286/4/3 284/4/3 285/4/3
f 289/4/3 288/4/3 287/4/3
f 290/4/3 288/4/3 289/4/3
f 293/4/3 292/4/3 291/4/3
f 294/4/3 292/4/3 293/4/3
f 297/4/3 296/4/3 295/4/3
f 298/4/3 296/4/3 297/4/3
f 301/4/3 300/4/3 299/4/3
f 302/4/3 300/4/3 301/4/3
f 305/4/3 304/4/3 303/4/3
f 306/4/3 304/4/3 305/4/3
f 309/4/3 308/4/3 307/4/3
f 310/4/3 308/4/3 309/4/3
f 311/4/4 312/4/4 313/4/4
f 313/4/4 312/4/4 314/4/4
f 315/4/4 316/4/4 317/4/4
f 317/4/4 316/4/4 318/4/4
f 319/4/4 320/4/4 321/4/4
f 321/4/4 320/4/4 322/4/4
f 323/4/4 324/4/4 325/4/4
f 325/4/4 324/4/4 326/4/4
f 327/4/4 328/4/4 329/4/4
f 329/4/4 328/4/4 330/4/4
f 331/4/4 332/4/4 333/4/4
f 333/4/4 332/4/4 334/4/4
f 335/4/4 336/4/4 337/4/4
f 337/4/4 336/4/4 338/4/4
f 339/4/4 340/4/4 341/4/4
f 341/4/4 340/4/4 342/4/4
f 343/4/4 344/4/4 345/4/4
f 345/4/4 344/4/4 346/4/4
f 347/4/4 348/4/4 349/4/4
f 349/4/4 348/4/4 350/4/4
f 351/4/4 352/4/4 353/4/4
f 353/4/4 352/4/4 354/4/4
f 355/4/4 356/4/4 357/4/4
f 357/4/4 356/4/4 358/4/4
f 359/4/4 360/4/4 361/4/4
f 361/4/4 360/4/4 362/4/4
f 363/4/4 364/4/4 365/4/4
f 365/4/4 364/4/4 366/4/4
f 367/4/4 368/4/4 369/4/4
f 369/4/4 368/4/4 370/4/4
f 371/4/4 372/4/4 373/4/4
f 373/4/4 372/4/4 374/4/4
f 375/4/4 376/4/4 377/4/4
f 377/4/4 376/4/4 378/4/4
f 379/4/4 380/4/4 381/4/4
f 381/4/4 380/4/4 382/4/4
f 383/3/4 384/3/4 388/3/4
f 384/1/4 385/1/4 389/1/4
f 388/3/4 384/3/4 389/3/4
f 385/2/4 386/2/4 390/2/4
f 389/1/4 385/1/4 390/1/4
f 386/4/4 387/4/4 391/4/4
f 390/2/4 386/2/4 391/2/4
f 391/4/4 387/4/4 392/4/4
f 395/3/5 394/3/5 393/3/5
f 396/3/5 394/3/5 395/3/5
f 397/4/6 398/4/6 400/4/6
f 400/4/6 398/4/6 401/4/6
f 399/4/6 400/4/6 403/4/6
f 401/4/6 402/4/6 403/4/6
f 400/4/6 401/4/6 403/4/6
f 403/4/6 404/4/6 405/4/6
f 405/4/6 406/4/6 407/4/6
f 399/4/6 403/4/6 409/4/6
f 407/4/6 408/4/6 409/4/6
f 405/4/6 407/4/6 409/4/6
f 403/4/6 405/4/6 409/4/6
f 409/4/6 408/4/6 410/4/6
f 410/4/6 408/4/6 411/4/6
f 411/4/6 412/4/6 413/4/6
f 410/4/6 411/4/6 413/4/6
f 413/4/6 412/4/6 414/4/6
f 414/4/6 412/4/6 415/4/6
f 415/4/6 416/4/6 417/4/6
f 414/4/6 415/4/6 417/4/6
f 417/4/6 418/4/6 419/4/6
f 419/4/6 420/4/6 421/4/6
f 414/4/6 417/4/6 423/4/6
f 421/4/6 422/4/6 423/4/6
f 419/4/6 421/4/6 423/4/6
f 417/4/6 419/4/6 423/4/6
f 423/4/6 422/4/6 424/4/6
f 424/4/6 422/4/6 425/4/6
f 425/4/6 422/4/6 426/4/6
f 426/4/6 422/4/6 427/4/6
f 427/4/6 422/4/6 428/4/6
f 428/4/6 422/4/6 429/4/6
f 429/4/6 422/4/6 430/4/6
f 430/4/6 422/4/6 431/4/6
f 431/4/6 422/4/6 432/4/6
f 430/4/6 431/4/6 433/4/6
f 433/4/6 431/4/6 434/4/6
f 434/4/6 431/4/6 435/4/6
f 435/4/6 431/4/6 436/4/6
f 436/4/6 431/4/6 437/4/6
f 437/4/6 431/4/6 438/4/6
f 436/4/6 437/4/6 439/4/6
f 439/4/6 437/4/6 440/4/6
f 440/4/6 437/4/6 441/4/6
f 441/4/6 437/4/6 442/4/6
f 440/4/6 441/4/6 443/4/6
f 443/4/6 441/4/6 444/4/6
f 440/4/6 443/4/6 445/4/6
f 445/4/6 443/4/6 446/4/6
f 440/4/6 445/4/6 447/4/6
f 447/4/6 445/4/6 448/4/6
f 448/4/6 445/4/6 449/4/6
f 449/4/6 445/4/6 450/4/6
f 450/4/6 445/4/6 451/4/6
f 451/4/6 445/4/6 452/4/6
f 448/4/6 449/4/6 453/4/6
f 453/4/6 449/4/6 454/4/6
f 450/4/6 451/4/6 455/4/6
f 455/4/6 451/4/6 456/4/6
f 457/4/6 458/4/6 459/4/6
f 459/4/6 458/4/6 460/4/6
f 457/4/6 459/4/6 461/4/6
f 461/4/6 459/4/6 462/4/6
f 460/4/6 458/4/6 463/4/6
f 463/4/6 458/4/6 464/4/6
f 464/4/6 458/4/6 465/4/6
f 465/4/6 458/4/6 466/4/6
f 466/4/6 458/4/6 467/4/6
f 467/4/6 458/4/6 468/4/6
f 468/4/6 458/4/6 469/4/6
f 469/4/6 458/4/6 470/4/6
f 457/4/6 461/4/6 471/4/6
f 470/4/6 458/4/6 473/4/6
f 473/4/6 458/4/6 474/4/6
f 471/4/6 472/4/6 475/4/6
f 474/4/6 458/4/6 477/4/6
f 477/4/6 458/4/6 478/4/6
f 478/4/6 458/4/6 479/4/6
f 479/4/6 458/4/6 480/4/6
f 480/4/6 458/4/6 481/4/6
f 481/4/6 458/4/6 482/4/6
f 482/4/6 458/4/6 483/4/6
f 483/4/6 458/4/6 484/4/6
f 475/4/6 476/4/6 485/4/6
f 457/4/6 471/4/6 487/4/6
f 485/4/6 486/4/6 487/4/6
f 475/4/6 485/4/6 487/4/6
f 471/4/6 475/4/6 487/4/6
f 487/4/6 486/4/6 488/4/6
f 457/4/6 487/4/6 489/4/6
f 489/4/6 487/4/6 490/4/6
f 488/4/6 486/4/6 491/4/6
f 491/4/6 486/4/6 492/4/6
f 492/4/6 486/4/6 493/4/6
f 493/4/6 494/4/6 495/4/6
f 492/4/6 493/4/6 495/4/6
f 495/4/6 496/4/6 497/4/6
f 484/4/6 458/4/6 500/4/6
f 497/4/6 498/4/6 501/4/6
f 457/4/6 489/4/6 503/4/6
f 501/4/6 502/4/6 505/4/6
f 492/4/6 495/4/6 505/4/6
f 495/4/6 497/4/6 505/4/6
f 497/4/6 501/4/6 505/4/6
f 505/4/6 502/4/6 506/4/6
f 506/4/6 502/4/6 507/4/6
f 499/4/6 500/4/6 510/4/6
f 507/4/6 508/4/6 511/4/6
f 506/4/6 507/4/6 511/4/6
f 511/4/6 508/4/6 512/4/6
f 512/4/6 508/4/6 513/4/6
f 509/4/6 510/4/6 516/4/6
f 513/4/6 514/4/6 517/4/6
f 512/4/6 513/4/6 517/4/6
f 517/4/6 514/4/6 518/4/6
f 515/4/6 516/4/6 520/4/6
f 519/4/6 520/4/6 522/4/6
f 503/4/6 504/4/6 523/4/6
f 518/4/6 514/4/6 525/4/6
f 525/4/6 514/4/6 526/4/6
f 523/4/6 524/4/6 527/4/6
f 526/4/6 514/4/6 529/4/6
f 521/4/6 522/4/6 534/4/6
f 527/4/6 528/4/6 535/4/6
f 529/4/6 530/4/6 537/4/6
f 531/4/6 532/4/6 538/4/6
f 538/4/6 532/4/6 539/4/6
f 533/4/6 534/4/6 540/4/6
f 535/4/6 536/4/6 541/4/6
f 538/4/6 539/4/6 544/4/6
f 529/4/6 537/4/6 544/4/6
f 526/4/6 529/4/6 544/4/6
f 539/4/6 540/4/6 544/4/6
f 537/4/6 538/4/6 544/4/6
f 541/4/6 542/4/6 545/4/6
f 543/4/6 544/4/6 546/4/6
f 541/4/6 545/4/6 547/4/6
f 545/4/6 546/4/6 547/4/6
f 535/4/6 541/4/6 547/4/6
f 457/4/6 503/4/6 547/4/6
f 503/4/6 523/4/6 547/4/6
f 523/4/6 527/4/6 547/4/6
f 527/4/6 535/4/6 547/4/6
f 546/4/6 544/4/6 548/4/6
f 547/4/6 546/4/6 548/4/6
f 544/4/6 540/4/6 548/4/6
f 534/4/6 522/4/6 548/4/6
f 500/4/6 458/4/6 548/4/6
f 510/4/6 500/4/6 548/4/6
f 540/4/6 534/4/6 548/4/6
f 516/4/6 510/4/6 548/4/6
f 520/4/6 516/4/6 548/4/6
f 522/4/6 520/4/6 548/4/6
f 549/4/6 550/4/6 552/4/6
f 552/4/6 550/4/6 553/4/6
f 551/4/6 552/4/6 555/4/6
f 553/4/6 554/4/6 555/4/6
f 552/4/6 553/4/6 555/4/6
f 555/4/6 554/4/6 556/4/6
f 556/4/6 554/4/6 557/4/6
f 557/4/6 558/4/6 559/4/6
f 559/4/6 560/4/6 561/4/6
f 556/4/6 557/4/6 563/4/6
f 561/4/6 562/4/6 563/4/6
f 559/4/6 561/4/6 563/4/6
f 557/4/6 559/4/6 563/4/6
f 563/4/6 562/4/6 564/4/6
f 564/4/6 562/4/6 565/4/6
f 565/4/6 566/4/6 567/4/6
f 564/4/6 565/4/6 567/4/6
f 567/4/6 566/4/6 568/4/6
f 568/4/6 566/4/6 569/4/6
f 569/4/6 566/4/6 570/4/6
f 570/4/6 566/4/6 571/4/6
f 571/4/6 566/4/6 572/4/6
f 572/4/6 566/4/6 573/4/6
f 573/4/6 566/4/6 574/4/6
f 572/4/6 573/4/6 575/4/6
f 575/4/6 573/4/6 576/4/6
