# MagicaVoxel @ Ephtracy

# group
g tile-fullmountain

# material
mtllib tile-fullmountain.mtl
usemtl palette

# normals
vn -1 0 0
vn 1 0 0
vn 0 0 1
vn 0 0 -1
vn 0 -1 0
vn 0 1 0

# texcoords
vt 0.525391 0.5
vt 0.533203 0.5
vt 0.568359 0.5
vt 0.978516 0.5
vt 0.982422 0.5
vt 0.986328 0.5
vt 0.990234 0.5

# verts
v -20 0 20
v -20 0 -20
v -20 5 20
v -20 5 -20
v -20 16 20
v -20 16 -20
v -20 21 20
v -20 21 -20
v -20 25 20
v -20 25 -20
v 20 0 20
v 20 0 -20
v 20 5 20
v 20 5 -20
v 20 16 20
v 20 16 -20
v 20 21 20
v 20 21 -20
v 20 24 -9
v 20 24 -10
v 20 25 20
v 20 25 -9
v 20 25 -10
v 20 25 -20
v -20 0 20
v -20 5 20
v -20 16 20
v -20 21 20
v -20 25 20
v 20 0 20
v 20 5 20
v 20 16 20
v 20 21 20
v 20 25 20
v -20 0 -20
v -20 5 -20
v -20 16 -20
v -20 21 -20
v -20 25 -20
v 20 0 -20
v 20 5 -20
v 20 16 -20
v 20 21 -20
v 20 25 -20
v -20 0 20
v 20 0 20
v -20 0 -20
v 20 0 -20
v -20 25 20
v 20 25 20
v -17 25 18
v -13 25 18
v -5 25 18
v -3 25 18
v 8 25 18
v 9 25 18
v 10 25 18
v -17 25 17
v -14 25 17
v -6 25 17
v -5 25 17
v -4 25 17
v -3 25 17
v -2 25 17
v 8 25 17
v 9 25 17
v -14 25 16
v -13 25 16
v -6 25 16
v -5 25 16
v -4 25 16
v -3 25 16
v -2 25 16
v 7 25 16
v 8 25 16
v 9 25 16
v 10 25 16
v 15 25 16
v 16 25 16
v -12 25 15
v -10 25 15
v 8 25 15
v 9 25 15
v 16 25 15
v 17 25 15
v -12 25 14
v -10 25 14
v -9 25 14
v 15 25 14
v 17 25 14
v -12 25 13
v -10 25 13
v -9 25 13
v 6 25 13
v 7 25 13
v 8 25 13
v -6 25 12
v -5 25 12
v -4 25 12
v 7 25 12
v 8 25 12
v 14 25 12
v 15 25 12
v 16 25 12
v -4 25 11
v -3 25 11
v 5 25 11
v 6 25 11
v -5 25 10
v -4 25 10
v -3 25 10
v 6 25 10
v 8 25 10
v -15 25 9
v -13 25 9
v -6 25 9
v -4 25 9
v 7 25 9
v 9 25 9
v 13 25 9
v 14 25 9
v -15 25 8
v -14 25 8
v -13 25 8
v -12 25 8
v 6 25 8
v 7 25 8
v 8 25 8
v 14 25 8
v 15 25 8
v 16 25 8
v -14 25 7
v -13 25 7
v -12 25 7
v -11 25 7
v -6 25 7
v -4 25 7
v -3 25 7
v 3 25 7
v 5 25 7
v 8 25 7
v 9 25 7
v 13 25 7
v 14 25 7
v -15 25 6
v -14 25 6
v -7 25 6
v -6 25 6
v -4 25 6
v -3 25 6
v -1 25 6
v 3 25 6
v 4 25 6
v 6 25 6
v 9 25 6
v 10 25 6
v -14 25 5
v -13 25 5
v -11 25 5
v -9 25 5
v -7 25 5
v -1 25 5
v 2 25 5
v 3 25 5
v 4 25 5
v 6 25 5
v 8 25 5
v 9 25 5
v 10 25 5
v 11 25 5
v -10 25 4
v -9 25 4
v -8 25 4
v -7 25 4
v -4 25 4
v -1 25 4
v 1 25 4
v 2 25 4
v 3 25 4
v 6 25 4
v 8 25 4
v 9 25 4
v 10 25 4
v 11 25 4
v 12 25 4
v -11 25 3
v -10 25 3
v -9 25 3
v -8 25 3
v -7 25 3
v -4 25 3
v 1 25 3
v 3 25 3
v 4 25 3
v 5 25 3
v 6 25 3
v 10 25 3
v 12 25 3
v 13 25 3
v 14 25 3
v -12 25 2
v -11 25 2
v -10 25 2
v -9 25 2
v -7 25 2
v 2 25 2
v 3 25 2
v 4 25 2
v 5 25 2
v -11 25 1
v -10 25 1
v -9 25 1
v 2 25 1
v 3 25 1
v 4 25 1
v 5 25 1
v -12 25 -0
v -11 25 -0
v 2 25 -0
v 4 25 -0
v 11 25 -0
v 12 25 -0
v -7 25 -1
v -5 25 -1
v -3 25 -1
v 2 25 -1
v 12 25 -1
v 13 25 -1
v 14 25 -1
v 15 25 -1
v -14 25 -2
v -13 25 -2
v -7 25 -2
v -6 25 -2
v -5 25 -2
v -3 25 -2
v 1 25 -2
v 2 25 -2
v 3 25 -2
v 7 25 -2
v 8 25 -2
v 11 25 -2
v 12 25 -2
v 13 25 -2
v 14 25 -2
v -7 25 -3
v -6 25 -3
v -5 25 -3
v -3 25 -3
v -2 25 -3
v 0 25 -3
v 1 25 -3
v 2 25 -3
v 3 25 -3
v 4 25 -3
v 8 25 -3
v 9 25 -3
v 12 25 -3
v 14 25 -3
v 15 25 -3
v -3 25 -4
v -2 25 -4
v -1 25 -4
v 0 25 -4
v 2 25 -4
v 3 25 -4
v 4 25 -4
v 6 25 -4
v 7 25 -4
v 8 25 -4
v 9 25 -4
v 12 25 -4
v 14 25 -4
v 15 25 -4
v -14 25 -5
v -13 25 -5
v -2 25 -5
v -1 25 -5
v 0 25 -5
v 2 25 -5
v 3 25 -5
v 5 25 -5
v 6 25 -5
v 7 25 -5
v 8 25 -5
v 9 25 -5
v 10 25 -5
v 12 25 -5
v 13 25 -5
v 15 25 -5
v 16 25 -5
v 3 25 -6
v 5 25 -6
v 6 25 -6
v 7 25 -6
v 10 25 -6
v 12 25 -6
v 13 25 -6
v 14 25 -6
v 16 25 -6
v 18 25 -6
v -3 25 -7
v -2 25 -7
v -1 25 -7
v 0 25 -7
v 2 25 -7
v 3 25 -7
v 5 25 -7
v 6 25 -7
v 7 25 -7
v 13 25 -7
v 14 25 -7
v 18 25 -7
v 19 25 -7
v -7 25 -8
v -6 25 -8
v -5 25 -8
v -4 25 -8
v -3 25 -8
v -1 25 -8
v 6 25 -8
v 7 25 -8
v 9 25 -8
v 14 25 -8
v 17 25 -8
v -14 25 -9
v -12 25 -9
v -7 25 -9
v -6 25 -9
v -5 25 -9
v -4 25 -9
v -3 25 -9
v -2 25 -9
v 1 25 -9
v 2 25 -9
v 3 25 -9
v 4 25 -9
v 6 25 -9
v 7 25 -9
v 9 25 -9
v 11 25 -9
v 19 25 -9
v 20 25 -9
v -14 25 -10
v -13 25 -10
v -6 25 -10
v -5 25 -10
v -2 25 -10
v 1 25 -10
v 2 25 -10
v 4 25 -10
v 6 25 -10
v 9 25 -10
v 10 25 -10
v 11 25 -10
v 14 25 -10
v 17 25 -10
v 20 25 -10
v -14 25 -11
v -13 25 -11
v -7 25 -11
v -2 25 -11
v 10 25 -11
v 11 25 -11
v 14 25 -11
v -15 25 -12
v -14 25 -12
v -13 25 -12
v -12 25 -12
v -9 25 -12
v -7 25 -12
v -2 25 -12
v 11 25 -12
v -15 25 -13
v -14 25 -13
v -13 25 -13
v -10 25 -13
v -9 25 -13
v -8 25 -13
v -7 25 -13
v 8 25 -13
v 12 25 -13
v -14 25 -14
v -13 25 -14
v -12 25 -14
v -10 25 -14
v -9 25 -14
v -8 25 -14
v 8 25 -14
v 11 25 -14
v -13 25 -15
v -12 25 -15
v -4 25 -15
v -2 25 -15
v -1 25 -15
v 11 25 -15
v 12 25 -15
v -14 25 -16
v -13 25 -16
v -11 25 -16
v -9 25 -16
v -4 25 -16
v -3 25 -16
v -2 25 -16
v -1 25 -16
v -13 25 -17
v -11 25 -17
v 17 25 -17
v 18 25 -17
v -14 25 -18
v -13 25 -18
v -3 25 -18
v -2 25 -18
v 17 25 -18
v 18 25 -18
v -20 25 -20
v 20 25 -20

# faces
f 3/3/1 2/3/1 1/3/1
f 4/3/1 2/3/1 3/3/1
f 5/1/1 4/1/1 3/1/1
f 6/1/1 4/1/1 5/1/1
f 7/2/1 6/2/1 5/2/1
f 8/2/1 6/2/1 7/2/1
f 9/5/1 8/5/1 7/5/1
f 10/5/1 8/5/1 9/5/1
f 11/3/2 12/3/2 13/3/2
f 13/3/2 12/3/2 14/3/2
f 13/1/2 14/1/2 15/1/2
f 15/1/2 14/1/2 16/1/2
f 15/2/2 16/2/2 17/2/2
f 17/2/2 16/2/2 18/2/2
f 17/5/2 18/5/2 19/5/2
f 19/5/2 18/5/2 20/5/2
f 17/5/2 19/5/2 21/5/2
f 19/7/2 20/7/2 22/7/2
f 21/5/2 19/5/2 22/5/2
f 20/5/2 18/5/2 23/5/2
f 22/7/2 20/7/2 23/7/2
f 23/5/2 18/5/2 24/5/2
f 30/3/3 26/3/3 25/3/3
f 31/1/3 27/1/3 26/1/3
f 31/3/3 26/3/3 30/3/3
f 32/2/3 28/2/3 27/2/3
f 32/1/3 27/1/3 31/1/3
f 33/5/3 29/5/3 28/5/3
f 33/2/3 28/2/3 32/2/3
f 34/5/3 29/5/3 33/5/3
f 35/3/4 36/3/4 40/3/4
f 36/1/4 37/1/4 41/1/4
f 40/3/4 36/3/4 41/3/4
f 37/2/4 38/2/4 42/2/4
f 41/1/4 37/1/4 42/1/4
f 38/5/4 39/5/4 43/5/4
f 42/2/4 38/2/4 43/2/4
f 43/5/4 39/5/4 44/5/4
f 47/3/5 46/3/5 45/3/5
f 48/3/5 46/3/5 47/3/5
f 49/5/6 50/5/6 51/5/6
f 51/5/6 50/5/6 52/5/6
f 52/5/6 50/5/6 53/5/6
f 53/5/6 50/5/6 54/5/6
f 54/5/6 50/5/6 55/5/6
f 55/5/6 50/5/6 56/5/6
f 56/5/6 50/5/6 57/5/6
f 49/5/6 51/5/6 58/5/6
f 51/4/6 52/4/6 58/4/6
f 58/4/6 52/4/6 59/4/6
f 52/5/6 53/5/6 60/5/6
f 53/6/6 54/6/6 61/6/6
f 60/5/6 53/5/6 61/5/6
f 61/6/6 54/6/6 62/6/6
f 54/5/6 55/5/6 63/5/6
f 62/6/6 54/6/6 63/6/6
f 63/5/6 55/5/6 64/5/6
f 55/4/6 56/4/6 65/4/6
f 64/5/6 55/5/6 65/5/6
f 56/6/6 57/6/6 66/6/6
f 65/4/6 56/4/6 66/4/6
f 59/4/6 52/4/6 67/4/6
f 58/5/6 59/5/6 67/5/6
f 52/5/6 60/5/6 68/5/6
f 67/4/6 52/4/6 68/4/6
f 60/4/6 61/4/6 69/4/6
f 68/5/6 60/5/6 69/5/6
f 61/6/6 62/6/6 70/6/6
f 69/4/6 61/4/6 70/4/6
f 62/4/6 63/4/6 71/4/6
f 70/6/6 62/6/6 71/6/6
f 63/6/6 64/6/6 72/6/6
f 71/4/6 63/4/6 72/4/6
f 64/5/6 65/5/6 73/5/6
f 72/6/6 64/6/6 73/6/6
f 73/5/6 65/5/6 74/5/6
f 65/6/6 66/6/6 75/6/6
f 74/5/6 65/5/6 75/5/6
f 66/6/6 57/6/6 76/6/6
f 75/6/6 66/6/6 76/6/6
f 57/5/6 50/5/6 77/5/6
f 76/6/6 57/6/6 77/6/6
f 77/5/6 50/5/6 78/5/6
f 78/5/6 50/5/6 79/5/6
f 71/5/6 72/5/6 80/5/6
f 68/5/6 69/5/6 80/5/6
f 70/5/6 71/5/6 80/5/6
f 73/5/6 74/5/6 80/5/6
f 67/5/6 68/5/6 80/5/6
f 72/5/6 73/5/6 80/5/6
f 69/5/6 70/5/6 80/5/6
f 80/5/6 74/5/6 81/5/6
f 75/6/6 76/6/6 82/6/6
f 74/6/6 75/6/6 82/6/6
f 77/5/6 78/5/6 83/5/6
f 82/6/6 76/6/6 83/6/6
f 76/5/6 77/5/6 83/5/6
f 79/5/6 50/5/6 84/5/6
f 78/6/6 79/6/6 84/6/6
f 84/5/6 50/5/6 85/5/6
f 80/4/6 81/4/6 86/4/6
f 67/5/6 80/5/6 86/5/6
f 81/5/6 74/5/6 87/5/6
f 86/4/6 81/4/6 87/4/6
f 87/5/6 74/5/6 88/5/6
f 83/5/6 78/5/6 89/5/6
f 84/6/6 85/6/6 89/6/6
f 78/6/6 84/6/6 89/6/6
f 85/5/6 50/5/6 90/5/6
f 89/6/6 85/6/6 90/6/6
f 67/5/6 86/5/6 91/5/6
f 86/6/6 87/6/6 91/6/6
f 87/4/6 88/4/6 92/4/6
f 91/6/6 87/6/6 92/6/6
f 88/5/6 74/5/6 93/5/6
f 92/4/6 88/4/6 93/4/6
f 93/5/6 74/5/6 94/5/6
f 74/6/6 82/6/6 95/6/6
f 94/5/6 74/5/6 95/5/6
f 82/7/6 83/7/6 96/7/6
f 95/6/6 82/6/6 96/6/6
f 91/5/6 92/5/6 97/5/6
f 93/5/6 94/5/6 97/5/6
f 92/5/6 93/5/6 97/5/6
f 97/5/6 94/5/6 98/5/6
f 98/5/6 94/5/6 99/5/6
f 94/6/6 95/6/6 100/6/6
f 95/7/6 96/7/6 100/7/6
f 96/7/6 83/7/6 101/7/6
f 100/7/6 96/7/6 101/7/6
f 83/5/6 89/5/6 102/5/6
f 89/5/6 90/5/6 102/5/6
f 102/5/6 90/5/6 103/5/6
f 103/5/6 90/5/6 104/5/6
f 99/5/6 94/5/6 105/5/6
f 98/4/6 99/4/6 105/4/6
f 105/5/6 94/5/6 106/5/6
f 106/5/6 94/5/6 107/5/6
f 94/6/6 100/6/6 108/6/6
f 107/5/6 94/5/6 108/5/6
f 100/6/6 101/6/6 108/6/6
f 105/4/6 106/4/6 109/4/6
f 97/6/6 98/6/6 109/6/6
f 98/4/6 105/4/6 109/4/6
f 109/4/6 106/4/6 110/4/6
f 106/5/6 107/5/6 111/5/6
f 110/4/6 106/4/6 111/4/6
f 108/6/6 101/6/6 112/6/6
f 107/6/6 108/6/6 112/6/6
f 101/7/6 83/7/6 113/7/6
f 112/6/6 101/6/6 113/6/6
f 58/5/6 67/5/6 114/5/6
f 67/5/6 91/5/6 114/5/6
f 91/5/6 97/5/6 114/5/6
f 114/5/6 97/5/6 115/5/6
f 109/6/6 110/6/6 116/6/6
f 115/5/6 97/5/6 116/5/6
f 97/6/6 109/6/6 116/6/6
f 110/5/6 111/5/6 117/5/6
f 116/6/6 110/6/6 117/6/6
f 112/7/6 113/7/6 118/7/6
f 113/7/6 83/7/6 119/7/6
f 118/7/6 113/7/6 119/7/6
f 83/5/6 102/5/6 119/5/6
f 119/5/6 102/5/6 120/5/6
f 102/6/6 103/6/6 121/6/6
f 120/5/6 102/5/6 121/5/6
f 114/6/6 115/6/6 122/6/6
f 58/5/6 114/5/6 122/5/6
f 122/6/6 115/6/6 123/6/6
f 115/5/6 116/5/6 124/5/6
f 123/6/6 115/6/6 124/6/6
f 116/5/6 117/5/6 124/5/6
f 124/5/6 117/5/6 125/5/6
f 107/6/6 112/6/6 126/6/6
f 112/7/6 118/7/6 126/7/6
f 119/5/6 120/5/6 127/5/6
f 126/7/6 118/7/6 127/7/6
f 118/5/6 119/5/6 127/5/6
f 127/5/6 120/5/6 128/5/6
f 121/6/6 103/6/6 129/6/6
f 120/6/6 121/6/6 129/6/6
f 103/4/6 104/4/6 130/4/6
f 129/6/6 103/6/6 130/6/6
f 104/5/6 90/5/6 131/5/6
f 130/4/6 104/4/6 131/4/6
f 124/6/6 125/6/6 132/6/6
f 122/4/6 123/4/6 132/4/6
f 123/6/6 124/6/6 132/6/6
f 132/6/6 125/6/6 133/6/6
f 125/5/6 117/5/6 134/5/6
f 133/6/6 125/6/6 134/6/6
f 134/5/6 117/5/6 135/5/6
f 135/5/6 117/5/6 136/5/6
f 117/5/6 111/5/6 137/5/6
f 136/5/6 117/5/6 137/5/6
f 111/5/6 107/5/6 138/5/6
f 137/5/6 111/5/6 138/5/6
f 138/5/6 107/5/6 139/5/6
f 127/6/6 128/6/6 140/6/6
f 139/5/6 107/5/6 140/5/6
f 107/6/6 126/6/6 140/6/6
f 126/6/6 127/6/6 140/6/6
f 128/5/6 120/5/6 141/5/6
f 140/6/6 128/6/6 141/6/6
f 141/5/6 120/5/6 142/5/6
f 120/6/6 129/6/6 143/6/6
f 142/5/6 120/5/6 143/5/6
f 129/5/6 130/5/6 144/5/6
f 143/6/6 129/6/6 144/6/6
f 130/5/6 131/5/6 144/5/6
f 132/4/6 133/4/6 145/4/6
f 58/5/6 122/5/6 145/5/6
f 122/4/6 132/4/6 145/4/6
f 145/4/6 133/4/6 146/4/6
f 135/5/6 136/5/6 147/5/6
f 136/6/6 137/6/6 148/6/6
f 147/5/6 136/5/6 148/5/6
f 137/4/6 138/4/6 149/4/6
f 148/6/6 137/6/6 149/6/6
f 138/5/6 139/5/6 150/5/6
f 149/4/6 138/4/6 150/4/6
f 150/5/6 139/5/6 151/5/6
f 139/6/6 140/6/6 152/6/6
f 151/5/6 139/5/6 152/5/6
f 141/6/6 142/6/6 152/6/6
f 140/6/6 141/6/6 152/6/6
f 152/6/6 142/6/6 153/6/6
f 153/6/6 142/6/6 154/6/6
f 142/5/6 143/5/6 155/5/6
f 154/6/6 142/6/6 155/6/6
f 143/5/6 144/5/6 155/5/6
f 155/5/6 144/5/6 156/5/6
f 146/4/6 133/4/6 157/4/6
f 145/5/6 146/5/6 157/5/6
f 134/6/6 135/6/6 158/6/6
f 157/4/6 133/4/6 158/4/6
f 133/6/6 134/6/6 158/6/6
f 135/5/6 147/5/6 159/5/6
f 158/6/6 135/6/6 159/6/6
f 159/5/6 147/5/6 160/5/6
f 150/6/6 151/6/6 161/6/6
f 160/5/6 147/5/6 161/5/6
f 149/6/6 150/6/6 161/6/6
f 148/6/6 149/6/6 161/6/6
f 147/6/6 148/6/6 161/6/6
f 151/5/6 152/5/6 162/5/6
f 161/6/6 151/6/6 162/6/6
f 152/5/6 153/5/6 162/5/6
f 162/5/6 153/5/6 163/5/6
f 163/5/6 153/5/6 164/5/6
f 153/6/6 154/6/6 165/6/6
f 164/5/6 153/5/6 165/5/6
f 154/7/6 155/7/6 166/7/6
f 165/6/6 154/6/6 166/6/6
f 166/7/6 155/7/6 167/7/6
f 155/6/6 156/6/6 168/6/6
f 167/7/6 155/7/6 168/7/6
f 156/5/6 144/5/6 169/5/6
f 168/6/6 156/6/6 169/6/6
f 169/5/6 144/5/6 170/5/6
f 159/5/6 160/5/6 171/5/6
f 158/5/6 159/5/6 171/5/6
f 157/5/6 158/5/6 171/5/6
f 160/6/6 161/6/6 172/6/6
f 171/5/6 160/5/6 172/5/6
f 172/6/6 161/6/6 173/6/6
f 161/7/6 162/7/6 174/7/6
f 173/6/6 161/6/6 174/6/6
f 174/7/6 162/7/6 175/7/6
f 162/6/6 163/6/6 176/6/6
f 175/7/6 162/7/6 176/7/6
f 176/6/6 163/6/6 177/6/6
f 163/5/6 164/5/6 178/5/6
f 177/6/6 163/6/6 178/6/6
f 164/6/6 165/6/6 179/6/6
f 178/5/6 164/5/6 179/5/6
f 166/7/6 167/7/6 180/7/6
f 165/7/6 166/7/6 180/7/6
f 167/5/6 168/5/6 181/5/6
f 180/7/6 167/7/6 181/7/6
f 169/6/6 170/6/6 182/6/6
f 181/5/6 168/5/6 182/5/6
f 168/6/6 169/6/6 182/6/6
f 182/6/6 170/6/6 183/6/6
f 170/5/6 144/5/6 184/5/6
f 183/6/6 170/6/6 184/6/6
f 184/5/6 144/5/6 185/5/6
f 157/5/6 171/5/6 186/5/6
f 172/6/6 173/6/6 187/6/6
f 186/5/6 171/5/6 187/5/6
f 171/6/6 172/6/6 187/6/6
f 187/6/6 173/6/6 188/6/6
f 174/7/6 175/7/6 189/7/6
f 188/6/6 173/6/6 189/6/6
f 173/7/6 174/7/6 189/7/6
f 189/7/6 175/7/6 190/7/6
f 176/5/6 177/5/6 191/5/6
f 190/7/6 175/7/6 191/7/6
f 175/5/6 176/5/6 191/5/6
f 177/6/6 178/6/6 192/6/6
f 191/5/6 177/5/6 192/5/6
f 178/6/6 179/6/6 192/6/6
f 179/6/6 165/6/6 193/6/6
f 192/6/6 179/6/6 193/6/6
f 165/7/6 180/7/6 194/7/6
f 193/6/6 165/6/6 194/6/6
f 194/7/6 180/7/6 195/7/6
f 182/5/6 183/5/6 196/5/6
f 195/7/6 180/7/6 196/7/6
f 180/5/6 181/5/6 196/5/6
f 181/5/6 182/5/6 196/5/6
f 183/6/6 184/6/6 197/6/6
f 196/5/6 183/5/6 197/5/6
f 184/6/6 185/6/6 197/6/6
f 185/5/6 144/5/6 198/5/6
f 197/6/6 185/6/6 198/6/6
f 198/5/6 144/5/6 199/5/6
f 144/5/6 131/5/6 200/5/6
f 199/5/6 144/5/6 200/5/6
f 157/5/6 186/5/6 201/5/6
f 187/6/6 188/6/6 202/6/6
f 201/5/6 186/5/6 202/5/6
f 186/6/6 187/6/6 202/6/6
f 202/6/6 188/6/6 203/6/6
f 189/7/6 190/7/6 204/7/6
f 203/6/6 188/6/6 204/6/6
f 188/7/6 189/7/6 204/7/6
f 192/5/6 193/5/6 205/5/6
f 204/7/6 190/7/6 205/7/6
f 191/5/6 192/5/6 205/5/6
f 190/5/6 191/5/6 205/5/6
f 205/5/6 193/5/6 206/5/6
f 193/4/6 194/4/6 207/4/6
f 206/5/6 193/5/6 207/5/6
f 194/7/6 195/7/6 208/7/6
f 207/4/6 194/4/6 208/4/6
f 198/5/6 199/5/6 209/5/6
f 208/7/6 195/7/6 209/7/6
f 196/5/6 197/5/6 209/5/6
f 197/5/6 198/5/6 209/5/6
f 195/5/6 196/5/6 209/5/6
f 202/6/6 203/6/6 210/6/6
f 201/6/6 202/6/6 210/6/6
f 203/7/6 204/7/6 211/7/6
f 210/6/6 203/6/6 211/6/6
f 205/5/6 206/5/6 212/5/6
f 211/7/6 204/7/6 212/7/6
f 204/5/6 205/5/6 212/5/6
f 206/4/6 207/4/6 213/4/6
f 212/5/6 206/5/6 213/5/6
f 207/6/6 208/6/6 214/6/6
f 213/4/6 207/4/6 214/4/6
f 208/6/6 209/6/6 214/6/6
f 214/6/6 209/6/6 215/6/6
f 209/5/6 199/5/6 216/5/6
f 215/6/6 209/6/6 216/6/6
f 201/6/6 210/6/6 217/6/6
f 157/5/6 201/5/6 217/5/6
f 211/5/6 212/5/6 218/5/6
f 217/6/6 210/6/6 218/6/6
f 212/5/6 213/5/6 218/5/6
f 210/5/6 211/5/6 218/5/6
f 213/6/6 214/6/6 219/6/6
f 218/5/6 213/5/6 219/5/6
f 214/6/6 215/6/6 219/6/6
f 215/5/6 216/5/6 220/5/6
f 219/6/6 215/6/6 220/6/6
f 216/5/6 199/5/6 221/5/6
f 220/5/6 216/5/6 221/5/6
f 221/5/6 199/5/6 222/5/6
f 217/5/6 218/5/6 223/5/6
f 219/5/6 220/5/6 223/5/6
f 218/5/6 219/5/6 223/5/6
f 220/5/6 221/5/6 223/5/6
f 223/5/6 221/5/6 224/5/6
f 224/5/6 221/5/6 225/5/6
f 225/5/6 221/5/6 226/5/6
f 222/5/6 199/5/6 227/5/6
f 221/6/6 222/6/6 227/6/6
f 199/4/6 200/4/6 228/4/6
f 227/5/6 199/5/6 228/5/6
f 200/5/6 131/5/6 229/5/6
f 228/4/6 200/4/6 229/4/6
f 229/5/6 131/5/6 230/5/6
f 157/5/6 217/5/6 231/5/6
f 145/5/6 157/5/6 231/5/6
f 217/5/6 223/5/6 231/5/6
f 231/5/6 223/5/6 232/5/6
f 223/4/6 224/4/6 233/4/6
f 232/5/6 223/5/6 233/5/6
f 233/4/6 224/4/6 234/4/6
f 224/6/6 225/6/6 235/6/6
f 234/4/6 224/4/6 235/4/6
f 225/7/6 226/7/6 236/7/6
f 235/6/6 225/6/6 236/6/6
f 236/7/6 226/7/6 237/7/6
f 226/5/6 221/5/6 238/5/6
f 237/7/6 226/7/6 238/7/6
f 238/5/6 221/5/6 239/5/6
f 239/5/6 221/5/6 240/5/6
f 240/5/6 221/5/6 241/5/6
f 221/6/6 227/6/6 242/6/6
f 241/5/6 221/5/6 242/5/6
f 227/6/6 228/6/6 242/6/6
f 242/6/6 228/6/6 243/6/6
f 229/4/6 230/4/6 244/4/6
f 243/6/6 228/6/6 244/6/6
f 228/4/6 229/4/6 244/4/6
f 244/4/6 230/4/6 245/4/6
f 233/6/6 234/6/6 246/6/6
f 232/5/6 233/5/6 246/5/6
f 234/5/6 235/5/6 247/5/6
f 246/6/6 234/6/6 247/6/6
f 236/6/6 237/6/6 248/6/6
f 247/5/6 235/5/6 248/5/6
f 235/6/6 236/6/6 248/6/6
f 248/6/6 237/6/6 249/6/6
f 249/6/6 237/6/6 250/6/6
f 250/6/6 237/6/6 251/6/6
f 237/7/6 238/7/6 252/7/6
f 251/6/6 237/6/6 252/6/6
f 238/7/6 239/7/6 252/7/6
f 252/7/6 239/7/6 253/7/6
f 239/5/6 240/5/6 254/5/6
f 253/7/6 239/7/6 254/7/6
f 254/5/6 240/5/6 255/5/6
f 240/6/6 241/6/6 256/6/6
f 242/5/6 243/5/6 256/5/6
f 241/5/6 242/5/6 256/5/6
f 256/5/6 243/5/6 257/5/6
f 244/6/6 245/6/6 258/6/6
f 257/5/6 243/5/6 258/5/6
f 243/6/6 244/6/6 258/6/6
f 245/4/6 230/4/6 259/4/6
f 258/6/6 245/6/6 259/6/6
f 230/5/6 131/5/6 260/5/6
f 259/4/6 230/4/6 260/4/6
f 246/5/6 247/5/6 261/5/6
f 249/6/6 250/6/6 261/6/6
f 247/5/6 248/5/6 261/5/6
f 248/5/6 249/5/6 261/5/6
f 250/7/6 251/7/6 262/7/6
f 261/6/6 250/6/6 262/6/6
f 262/7/6 251/7/6 263/7/6
f 252/6/6 253/6/6 264/6/6
f 263/7/6 251/7/6 264/7/6
f 251/6/6 252/6/6 264/6/6
f 254/7/6 255/7/6 265/7/6
f 264/6/6 253/6/6 265/6/6
f 253/7/6 254/7/6 265/7/6
f 265/7/6 255/7/6 266/7/6
f 255/5/6 240/5/6 267/5/6
f 266/7/6 255/7/6 267/7/6
f 267/5/6 240/5/6 268/5/6
f 240/6/6 256/6/6 269/6/6
f 268/5/6 240/5/6 269/5/6
f 256/4/6 257/4/6 270/4/6
f 269/6/6 256/6/6 270/6/6
f 258/5/6 259/5/6 271/5/6
f 270/4/6 257/4/6 271/4/6
f 257/5/6 258/5/6 271/5/6
f 259/5/6 260/5/6 271/5/6
f 271/5/6 260/5/6 272/5/6
f 272/5/6 260/5/6 273/5/6
f 260/5/6 131/5/6 274/5/6
f 273/5/6 260/5/6 274/5/6
f 231/6/6 232/6/6 275/6/6
f 145/5/6 231/5/6 275/5/6
f 232/5/6 246/5/6 276/5/6
f 275/6/6 232/6/6 276/6/6
f 262/5/6 263/5/6 276/5/6
f 261/5/6 262/5/6 276/5/6
f 246/5/6 261/5/6 276/5/6
f 276/5/6 263/5/6 277/5/6
f 263/7/6 264/7/6 278/7/6
f 277/5/6 263/5/6 278/5/6
f 264/7/6 265/7/6 278/7/6
f 278/7/6 265/7/6 279/7/6
f 265/6/6 266/6/6 280/6/6
f 279/7/6 265/7/6 280/7/6
f 266/7/6 267/7/6 281/7/6
f 280/6/6 266/6/6 281/6/6
f 267/7/6 268/7/6 281/7/6
f 281/7/6 268/7/6 282/7/6
f 269/5/6 270/5/6 283/5/6
f 282/7/6 268/7/6 283/7/6
f 268/5/6 269/5/6 283/5/6
f 283/5/6 270/5/6 284/5/6
f 270/4/6 271/4/6 285/4/6
f 284/5/6 270/5/6 285/5/6
f 271/6/6 272/6/6 286/6/6
f 285/4/6 271/4/6 286/4/6
f 286/6/6 272/6/6 287/6/6
f 272/5/6 273/5/6 288/5/6
f 287/6/6 272/6/6 288/6/6
f 288/5/6 273/5/6 289/5/6
f 274/5/6 131/5/6 290/5/6
f 273/7/6 274/7/6 290/7/6
f 131/5/6 90/5/6 291/5/6
f 290/5/6 131/5/6 291/5/6
f 281/6/6 282/6/6 292/6/6
f 279/5/6 280/5/6 292/5/6
f 280/5/6 281/5/6 292/5/6
f 283/7/6 284/7/6 293/7/6
f 292/6/6 282/6/6 293/6/6
f 282/7/6 283/7/6 293/7/6
f 293/7/6 284/7/6 294/7/6
f 286/6/6 287/6/6 295/6/6
f 294/7/6 284/7/6 295/7/6
f 284/6/6 285/6/6 295/6/6
f 285/6/6 286/6/6 295/6/6
f 287/5/6 288/5/6 296/5/6
f 295/6/6 287/6/6 296/6/6
f 288/6/6 289/6/6 297/6/6
f 296/5/6 288/5/6 297/5/6
f 289/5/6 273/5/6 298/5/6
f 297/6/6 289/6/6 298/6/6
f 273/7/6 290/7/6 299/7/6
f 298/5/6 273/5/6 299/5/6
f 290/7/6 291/7/6 299/7/6
f 291/5/6 90/5/6 300/5/6
f 299/7/6 291/7/6 300/7/6
f 90/5/6 50/5/6 301/5/6
f 300/5/6 90/5/6 301/5/6
f 276/5/6 277/5/6 302/5/6
f 275/5/6 276/5/6 302/5/6
f 278/7/6 279/7/6 303/7/6
f 302/5/6 277/5/6 303/5/6
f 277/7/6 278/7/6 303/7/6
f 303/7/6 279/7/6 304/7/6
f 292/5/6 293/5/6 305/5/6
f 304/7/6 279/7/6 305/7/6
f 279/5/6 292/5/6 305/5/6
f 305/5/6 293/5/6 306/5/6
f 306/5/6 293/5/6 307/5/6
f 293/6/6 294/6/6 308/6/6
f 307/5/6 293/5/6 308/5/6
f 297/5/6 298/5/6 309/5/6
f 308/6/6 294/6/6 309/6/6
f 296/5/6 297/5/6 309/5/6
f 295/5/6 296/5/6 309/5/6
f 294/5/6 295/5/6 309/5/6
f 309/5/6 298/5/6 310/5/6
f 299/7/6 300/7/6 311/7/6
f 310/5/6 298/5/6 311/5/6
f 298/7/6 299/7/6 311/7/6
f 300/7/6 301/7/6 311/7/6
f 311/7/6 301/7/6 312/7/6
f 301/5/6 50/5/6 313/5/6
f 312/7/6 301/7/6 313/7/6
f 313/5/6 50/5/6 314/5/6
f 275/5/6 302/5/6 315/5/6
f 315/5/6 302/5/6 316/5/6
f 316/5/6 302/5/6 317/5/6
f 317/5/6 302/5/6 318/5/6
f 303/7/6 304/7/6 319/7/6
f 318/5/6 302/5/6 319/5/6
f 302/7/6 303/7/6 319/7/6
f 305/5/6 306/5/6 320/5/6
f 319/7/6 304/7/6 320/7/6
f 304/5/6 305/5/6 320/5/6
f 309/6/6 310/6/6 321/6/6
f 308/5/6 309/5/6 321/5/6
f 307/5/6 308/5/6 321/5/6
f 311/5/6 312/5/6 322/5/6
f 321/6/6 310/6/6 322/6/6
f 310/5/6 311/5/6 322/5/6
f 322/5/6 312/5/6 323/5/6
f 313/7/6 314/7/6 324/7/6
f 323/5/6 312/5/6 324/5/6
f 312/7/6 313/7/6 324/7/6
f 324/7/6 314/7/6 325/7/6
f 275/5/6 315/5/6 326/5/6
f 145/5/6 275/5/6 326/5/6
f 326/5/6 315/5/6 327/5/6
f 315/4/6 316/4/6 328/4/6
f 327/5/6 315/5/6 328/5/6
f 316/6/6 317/6/6 329/6/6
f 328/4/6 316/4/6 329/4/6
f 317/4/6 318/4/6 330/4/6
f 329/6/6 317/6/6 330/6/6
f 318/7/6 319/7/6 331/7/6
f 330/4/6 318/4/6 331/4/6
f 319/5/6 320/5/6 332/5/6
f 331/7/6 319/7/6 332/7/6
f 332/5/6 320/5/6 333/5/6
f 320/5/6 306/5/6 334/5/6
f 333/5/6 320/5/6 334/5/6
f 306/6/6 307/6/6 335/6/6
f 334/5/6 306/5/6 335/5/6
f 307/5/6 321/5/6 336/5/6
f 335/6/6 307/6/6 336/6/6
f 321/5/6 322/5/6 336/5/6
f 336/5/6 322/5/6 337/5/6
f 337/5/6 322/5/6 338/5/6
f 322/6/6 323/6/6 339/6/6
f 338/5/6 322/5/6 339/5/6
f 324/5/6 325/5/6 340/5/6
f 339/6/6 323/6/6 340/6/6
f 323/5/6 324/5/6 340/5/6
f 340/5/6 325/5/6 341/5/6
f 325/7/6 314/7/6 342/7/6
f 314/5/6 50/5/6 342/5/6
f 342/5/6 50/5/6 343/5/6
f 326/6/6 327/6/6 344/6/6
f 145/5/6 326/5/6 344/5/6
f 344/6/6 327/6/6 345/6/6
f 328/7/6 329/7/6 346/7/6
f 329/6/6 330/6/6 346/6/6
f 332/7/6 333/7/6 347/7/6
f 346/6/6 330/6/6 347/6/6
f 330/7/6 331/7/6 347/7/6
f 331/7/6 332/7/6 347/7/6
f 333/5/6 334/5/6 348/5/6
f 347/7/6 333/7/6 348/7/6
f 334/4/6 335/4/6 349/4/6
f 348/5/6 334/5/6 349/5/6
f 336/6/6 337/6/6 350/6/6
f 349/4/6 335/4/6 350/4/6
f 335/6/6 336/6/6 350/6/6
f 337/5/6 338/5/6 351/5/6
f 350/6/6 337/6/6 351/6/6
f 338/7/6 339/7/6 352/7/6
f 351/5/6 338/5/6 352/5/6
f 339/7/6 340/7/6 352/7/6
f 340/6/6 341/6/6 353/6/6
f 352/7/6 340/7/6 353/7/6
f 353/6/6 341/6/6 354/6/6
f 341/5/6 325/5/6 355/5/6
f 354/6/6 341/6/6 355/6/6
f 355/5/6 325/5/6 356/5/6
f 325/7/6 342/7/6 357/7/6
f 356/5/6 325/5/6 357/5/6
f 342/7/6 343/7/6 357/7/6
f 357/7/6 343/7/6 358/7/6
f 145/5/6 344/5/6 359/5/6
f 344/5/6 345/5/6 359/5/6
f 345/6/6 327/6/6 360/6/6
f 359/5/6 345/5/6 360/5/6
f 328/7/6 346/7/6 361/7/6
f 346/7/6 347/7/6 361/7/6
f 353/7/6 354/7/6 361/7/6
f 351/7/6 352/7/6 361/7/6
f 352/7/6 353/7/6 361/7/6
f 350/7/6 351/7/6 361/7/6
f 348/7/6 349/7/6 361/7/6
f 347/7/6 348/7/6 361/7/6
f 349/7/6 350/7/6 361/7/6
f 327/5/6 328/5/6 361/5/6
f 361/7/6 354/7/6 362/7/6
f 354/6/6 355/6/6 363/6/6
f 362/7/6 354/7/6 363/7/6
f 355/6/6 356/6/6 363/6/6
f 363/6/6 356/6/6 364/6/6
f 356/5/6 357/5/6 365/5/6
f 364/6/6 356/6/6 365/6/6
f 357/5/6 358/5/6 365/5/6
f 58/5/6 145/5/6 366/5/6
f 145/5/6 359/5/6 366/5/6
f 359/6/6 360/6/6 367/6/6
f 366/5/6 359/5/6 367/5/6
f 360/6/6 327/6/6 368/6/6
f 367/6/6 360/6/6 368/6/6
f 361/5/6 362/5/6 369/5/6
f 368/6/6 327/6/6 369/6/6
f 327/5/6 361/5/6 369/5/6
f 369/5/6 362/5/6 370/5/6
f 370/5/6 362/5/6 371/5/6
f 363/7/6 364/7/6 372/7/6
f 371/5/6 362/5/6 372/5/6
f 362/7/6 363/7/6 372/7/6
f 364/5/6 365/5/6 373/5/6
f 372/7/6 364/7/6 373/7/6
f 366/6/6 367/6/6 374/6/6
f 58/5/6 366/5/6 374/5/6
f 367/6/6 368/6/6 374/6/6
f 374/6/6 368/6/6 375/6/6
f 368/5/6 369/5/6 376/5/6
f 375/6/6 368/6/6 376/6/6
f 369/5/6 370/5/6 376/5/6
f 376/5/6 370/5/6 377/5/6
f 370/7/6 371/7/6 378/7/6
f 377/5/6 370/5/6 378/5/6
f 378/7/6 371/7/6 379/7/6
f 372/5/6 373/5/6 380/5/6
f 379/7/6 371/7/6 380/7/6
f 371/5/6 372/5/6 380/5/6
f 380/5/6 373/5/6 381/5/6
f 373/5/6 365/5/6 382/5/6
f 381/5/6 373/5/6 382/5/6
f 374/5/6 375/5/6 383/5/6
f 375/4/6 376/4/6 383/4/6
f 376/5/6 377/5/6 384/5/6
f 383/4/6 376/4/6 384/4/6
f 384/5/6 377/5/6 385/5/6
f 378/7/6 379/7/6 386/7/6
f 385/5/6 377/5/6 386/5/6
f 377/7/6 378/7/6 386/7/6
f 386/7/6 379/7/6 387/7/6
f 380/5/6 381/5/6 388/5/6
f 387/7/6 379/7/6 388/7/6
f 379/5/6 380/5/6 388/5/6
f 381/4/6 382/4/6 389/4/6
f 388/5/6 381/5/6 389/5/6
f 389/4/6 382/4/6 390/4/6
f 384/5/6 385/5/6 391/5/6
f 383/5/6 384/5/6 391/5/6
f 386/7/6 387/7/6 392/7/6
f 391/5/6 385/5/6 392/5/6
f 385/7/6 386/7/6 392/7/6
f 389/5/6 390/5/6 393/5/6
f 387/5/6 388/5/6 393/5/6
f 388/5/6 389/5/6 393/5/6
f 393/5/6 390/5/6 394/5/6
f 394/5/6 390/5/6 395/5/6
f 390/4/6 382/4/6 396/4/6
f 395/5/6 390/5/6 396/5/6
f 382/5/6 365/5/6 397/5/6
f 396/4/6 382/4/6 397/4/6
f 383/5/6 391/5/6 398/5/6
f 374/5/6 383/5/6 398/5/6
f 391/7/6 392/7/6 399/7/6
f 398/5/6 391/5/6 399/5/6
f 392/7/6 387/7/6 400/7/6
f 399/7/6 392/7/6 400/7/6
f 387/5/6 393/5/6 401/5/6
f 400/7/6 387/7/6 401/7/6
f 393/6/6 394/6/6 402/6/6
f 401/5/6 393/5/6 402/5/6
f 402/6/6 394/6/6 403/6/6
f 394/4/6 395/4/6 404/4/6
f 403/6/6 394/6/6 404/6/6
f 396/5/6 397/5/6 405/5/6
f 404/4/6 395/4/6 405/4/6
f 395/5/6 396/5/6 405/5/6
f 398/7/6 399/7/6 406/7/6
f 399/7/6 400/7/6 406/7/6
f 402/5/6 403/5/6 407/5/6
f 406/7/6 400/7/6 407/7/6
f 401/5/6 402/5/6 407/5/6
f 400/5/6 401/5/6 407/5/6
f 397/5/6 365/5/6 408/5/6
f 404/5/6 405/5/6 408/5/6
f 365/5/6 358/5/6 408/5/6
f 405/5/6 397/5/6 408/5/6
f 408/5/6 358/5/6 409/5/6
f 398/7/6 406/7/6 410/7/6
f 374/5/6 398/5/6 410/5/6
f 406/5/6 407/5/6 411/5/6
f 410/7/6 406/7/6 411/7/6
f 407/5/6 403/5/6 412/5/6
f 411/5/6 407/5/6 412/5/6
f 403/6/6 404/6/6 412/6/6
f 404/5/6 408/5/6 413/5/6
f 412/6/6 404/6/6 413/6/6
f 408/4/6 409/4/6 414/4/6
f 413/5/6 408/5/6 414/5/6
f 409/5/6 358/5/6 415/5/6
f 414/4/6 409/4/6 415/4/6
f 410/5/6 411/5/6 416/5/6
f 413/5/6 414/5/6 416/5/6
f 414/5/6 415/5/6 416/5/6
f 411/5/6 412/5/6 416/5/6
f 58/5/6 374/5/6 416/5/6
f 49/5/6 58/5/6 416/5/6
f 412/5/6 413/5/6 416/5/6
f 374/5/6 410/5/6 416/5/6
f 415/5/6 358/5/6 417/5/6
f 416/5/6 415/5/6 417/5/6
