# MagicaVoxel @ Ephtracy

# group
g letter

# material
mtllib letter.mtl
usemtl palette

# normals
vn -1 0 0
vn 1 0 0
vn 0 0 1
vn 0 0 -1
vn 0 -1 0
vn 0 1 0

# texcoords
vt 0.0566406 0.5
vt 0.244141 0.5
vt 0.615234 0.5
vt 0.740234 0.5
vt 0.771484 0.5
vt 0.900391 0.5
vt 0.919922 0.5
vt 0.927734 0.5
vt 0.931641 0.5
vt 0.935547 0.5
vt 0.958984 0.5
vt 0.962891 0.5
vt 0.966797 0.5
vt 0.990234 0.5

# verts
v -14.5 0 1
v -14.5 0 -1
v -14.5 1 1
v -14.5 1 -1
v -14.5 2 1
v -14.5 2 -1
v -14.5 3 1
v -14.5 3 -1
v -14.5 4 1
v -14.5 4 -1
v -14.5 5 1
v -14.5 5 -1
v -14.5 6 1
v -14.5 6 -1
v -14.5 7 1
v -14.5 7 -1
v -14.5 8 1
v -14.5 8 -1
v -14.5 9 1
v -14.5 9 -1
v -14.5 10 1
v -14.5 10 -1
v -14.5 11 1
v -14.5 11 -1
v -14.5 12 1
v -14.5 12 -1
v -14.5 13 1
v -14.5 13 -1
v -14.5 14 1
v -14.5 14 -1
v 14.5 0 1
v 14.5 0 -1
v 14.5 1 1
v 14.5 1 -1
v 14.5 2 1
v 14.5 2 -1
v 14.5 3 1
v 14.5 3 -1
v 14.5 4 1
v 14.5 4 -1
v 14.5 5 1
v 14.5 5 -1
v 14.5 6 1
v 14.5 6 -1
v 14.5 7 1
v 14.5 7 -1
v 14.5 8 1
v 14.5 8 -1
v 14.5 9 1
v 14.5 9 -1
v 14.5 10 1
v 14.5 10 -1
v 14.5 11 1
v 14.5 11 -1
v 14.5 12 1
v 14.5 12 -1
v 14.5 13 1
v 14.5 13 -1
v 14.5 14 1
v 14.5 14 -1
v -14.5 0 1
v -14.5 1 1
v -14.5 2 1
v -14.5 3 1
v -14.5 4 1
v -14.5 5 1
v -14.5 6 1
v -14.5 7 1
v -14.5 8 1
v -14.5 9 1
v -14.5 10 1
v -14.5 11 1
v -14.5 12 1
v -14.5 13 1
v -14.5 14 1
v -13.5 0 1
v -13.5 1 1
v -13.5 2 1
v -13.5 3 1
v -13.5 4 1
v -13.5 5 1
v -13.5 6 1
v -13.5 7 1
v -13.5 8 1
v -13.5 9 1
v -13.5 10 1
v -13.5 11 1
v -13.5 12 1
v -13.5 13 1
v -12.5 0 1
v -12.5 1 1
v -12.5 12 1
v -12.5 13 1
v -12.5 14 1
v -11.5 0 1
v -11.5 1 1
v -11.5 3 1
v -11.5 4 1
v -11.5 5 1
v -11.5 6 1
v -10.5 0 1
v -10.5 1 1
v -10.5 3 1
v -10.5 4 1
v -9.5 0 1
v -9.5 1 1
v -9.5 3 1
v -9.5 4 1
v -9.5 5 1
v -9.5 6 1
v -9.5 11 1
v -9.5 12 1
v -9.5 13 1
v -8.5 0 1
v -8.5 1 1
v -8.5 5 1
v -8.5 6 1
v -7.5 0 1
v -7.5 1 1
v -7.5 5 1
v -7.5 6 1
v -6.5 0 1
v -6.5 1 1
v -6.5 5 1
v -6.5 6 1
v -6.5 10 1
v -6.5 11 1
v -6.5 12 1
v -5.5 0 1
v -5.5 1 1
v -5.5 5 1
v -5.5 6 1
v -4.5 0 1
v -4.5 1 1
v -4.5 5 1
v -4.5 6 1
v -4.5 9 1
v -4.5 10 1
v -4.5 11 1
v -3.5 0 1
v -3.5 1 1
v -3.5 3 1
v -3.5 4 1
v -2.5 0 1
v -2.5 1 1
v -2.5 3 1
v -2.5 4 1
v -2.5 5 1
v -2.5 6 1
v -1.5 0 1
v -1.5 1 1
v -1.5 8 1
v -1.5 9 1
v -1.5 10 1
v -0.5 0 1
v -0.5 1 1
v 0.5 0 1
v 0.5 1 1
v 0.5 3 1
v 0.5 4 1
v 1.5 0 1
v 1.5 1 1
v 2.5 0 1
v 2.5 1 1
v 2.5 8 1
v 2.5 9 1
v 2.5 10 1
v 3.5 0 1
v 3.5 1 1
v 4.5 0 1
v 4.5 1 1
v 4.5 9 1
v 4.5 10 1
v 4.5 11 1
v 5.5 0 1
v 5.5 1 1
v 6.5 0 1
v 6.5 1 1
v 7.5 0 1
v 7.5 1 1
v 7.5 10 1
v 7.5 11 1
v 7.5 12 1
v 8.5 0 1
v 8.5 1 1
v 8.5 6 1
v 8.5 7 1
v 8.5 9 1
v 8.5 10 1
v 9.5 0 1
v 9.5 1 1
v 9.5 6 1
v 9.5 7 1
v 9.5 8 1
v 9.5 9 1
v 9.5 10 1
v 10.5 0 1
v 10.5 1 1
v 10.5 6 1
v 10.5 8 1
v 10.5 9 1
v 10.5 10 1
v 10.5 11 1
v 10.5 12 1
v 10.5 13 1
v 11.5 0 1
v 11.5 1 1
v 11.5 6 1
v 11.5 8 1
v 11.5 9 1
v 11.5 10 1
v 12.5 0 1
v 12.5 1 1
v 12.5 12 1
v 12.5 13 1
v 12.5 14 1
v 13.5 0 1
v 13.5 1 1
v 13.5 2 1
v 13.5 3 1
v 13.5 4 1
v 13.5 5 1
v 13.5 6 1
v 13.5 7 1
v 13.5 8 1
v 13.5 9 1
v 13.5 10 1
v 13.5 11 1
v 13.5 12 1
v 13.5 13 1
v 14.5 0 1
v 14.5 1 1
v 14.5 2 1
v 14.5 3 1
v 14.5 4 1
v 14.5 5 1
v 14.5 6 1
v 14.5 7 1
v 14.5 8 1
v 14.5 9 1
v 14.5 10 1
v 14.5 11 1
v 14.5 12 1
v 14.5 13 1
v 14.5 14 1
v -14.5 0 -1
v -14.5 1 -1
v -14.5 2 -1
v -14.5 3 -1
v -14.5 4 -1
v -14.5 5 -1
v -14.5 6 -1
v -14.5 7 -1
v -14.5 8 -1
v -14.5 9 -1
v -14.5 10 -1
v -14.5 11 -1
v -14.5 12 -1
v -14.5 13 -1
v -14.5 14 -1
v -13.5 0 -1
v -13.5 1 -1
v -13.5 2 -1
v -13.5 3 -1
v -13.5 4 -1
v -13.5 5 -1
v -13.5 6 -1
v -13.5 7 -1
v -13.5 8 -1
v -13.5 9 -1
v -13.5 10 -1
v -13.5 11 -1
v -13.5 12 -1
v -13.5 13 -1
v -12.5 0 -1
v -12.5 1 -1
v -12.5 9 -1
v -12.5 11 -1
v -11.5 0 -1
v -11.5 1 -1
v -11.5 8 -1
v -11.5 9 -1
v -11.5 11 -1
v -11.5 12 -1
v -10.5 0 -1
v -10.5 1 -1
v -9.5 0 -1
v -9.5 1 -1
v -9.5 8 -1
v -9.5 9 -1
v -9.5 11 -1
v -9.5 12 -1
v -8.5 0 -1
v -8.5 1 -1
v -8.5 9 -1
v -8.5 11 -1
v -7.5 0 -1
v -7.5 1 -1
v -6.5 0 -1
v -6.5 1 -1
v -5.5 0 -1
v -5.5 1 -1
v -4.5 0 -1
v -4.5 1 -1
v -3.5 0 -1
v -3.5 1 -1
v -2.5 0 -1
v -2.5 1 -1
v -2.5 5 -1
v -2.5 6 -1
v -1.5 0 -1
v -1.5 1 -1
v -1.5 5 -1
v -1.5 6 -1
v -0.5 0 -1
v -0.5 1 -1
v -0.5 5 -1
v -0.5 6 -1
v 0.5 0 -1
v 0.5 1 -1
v 0.5 5 -1
v 0.5 6 -1
v 1.5 0 -1
v 1.5 1 -1
v 2.5 0 -1
v 2.5 1 -1
v 2.5 5 -1
v 2.5 6 -1
v 3.5 0 -1
v 3.5 1 -1
v 3.5 5 -1
v 3.5 6 -1
v 4.5 0 -1
v 4.5 1 -1
v 4.5 5 -1
v 4.5 6 -1
v 5.5 0 -1
v 5.5 1 -1
v 6.5 0 -1
v 6.5 1 -1
v 6.5 5 -1
v 6.5 6 -1
v 7.5 0 -1
v 7.5 1 -1
v 7.5 5 -1
v 7.5 6 -1
v 8.5 0 -1
v 8.5 1 -1
v 8.5 5 -1
v 8.5 6 -1
v 9.5 0 -1
v 9.5 1 -1
v 9.5 5 -1
v 9.5 6 -1
v 10.5 0 -1
v 10.5 1 -1
v 10.5 5 -1
v 10.5 6 -1
v 11.5 0 -1
v 11.5 1 -1
v 12.5 0 -1
v 12.5 1 -1
v 13.5 0 -1
v 13.5 1 -1
v 13.5 2 -1
v 13.5 3 -1
v 13.5 4 -1
v 13.5 5 -1
v 13.5 6 -1
v 13.5 7 -1
v 13.5 8 -1
v 13.5 9 -1
v 13.5 10 -1
v 13.5 11 -1
v 13.5 12 -1
v 13.5 13 -1
v 14.5 0 -1
v 14.5 1 -1
v 14.5 2 -1
v 14.5 3 -1
v 14.5 4 -1
v 14.5 5 -1
v 14.5 6 -1
v 14.5 7 -1
v 14.5 8 -1
v 14.5 9 -1
v 14.5 10 -1
v 14.5 11 -1
v 14.5 12 -1
v 14.5 13 -1
v 14.5 14 -1
v -14.5 0 1
v -13.5 0 1
v -12.5 0 1
v -11.5 0 1
v -10.5 0 1
v -9.5 0 1
v -8.5 0 1
v -7.5 0 1
v -6.5 0 1
v -5.5 0 1
v -4.5 0 1
v -3.5 0 1
v -2.5 0 1
v -1.5 0 1
v -0.5 0 1
v 0.5 0 1
v 1.5 0 1
v 2.5 0 1
v 3.5 0 1
v 4.5 0 1
v 5.5 0 1
v 6.5 0 1
v 7.5 0 1
v 8.5 0 1
v 9.5 0 1
v 10.5 0 1
v 11.5 0 1
v 12.5 0 1
v 13.5 0 1
v 14.5 0 1
v -14.5 0 -1
v -13.5 0 -1
v -12.5 0 -1
v -11.5 0 -1
v -10.5 0 -1
v -9.5 0 -1
v -8.5 0 -1
v -7.5 0 -1
v -6.5 0 -1
v -5.5 0 -1
v -4.5 0 -1
v -3.5 0 -1
v -2.5 0 -1
v -1.5 0 -1
v -0.5 0 -1
v 0.5 0 -1
v 1.5 0 -1
v 2.5 0 -1
v 3.5 0 -1
v 4.5 0 -1
v 5.5 0 -1
v 6.5 0 -1
v 7.5 0 -1
v 8.5 0 -1
v 9.5 0 -1
v 10.5 0 -1
v 11.5 0 -1
v 12.5 0 -1
v 13.5 0 -1
v 14.5 0 -1
v -14.5 14 1
v -12.5 14 1
v 12.5 14 1
v 14.5 14 1
v -12.5 14 -0
v 12.5 14 -0
v -14.5 14 -1
v 14.5 14 -1

# faces
f 3/1/1 2/1/1 1/1/1
f 4/1/1 2/1/1 3/1/1
f 5/11/1 4/11/1 3/11/1
f 6/11/1 4/11/1 5/11/1
f 7/1/1 6/1/1 5/1/1
f 8/1/1 6/1/1 7/1/1
f 9/11/1 8/11/1 7/11/1
f 10/11/1 8/11/1 9/11/1
f 11/1/1 10/1/1 9/1/1
f 12/1/1 10/1/1 11/1/1
f 13/11/1 12/11/1 11/11/1
f 14/11/1 12/11/1 13/11/1
f 15/1/1 14/1/1 13/1/1
f 16/1/1 14/1/1 15/1/1
f 17/11/1 16/11/1 15/11/1
f 18/11/1 16/11/1 17/11/1
f 19/1/1 18/1/1 17/1/1
f 20/1/1 18/1/1 19/1/1
f 21/11/1 20/11/1 19/11/1
f 22/11/1 20/11/1 21/11/1
f 23/1/1 22/1/1 21/1/1
f 24/1/1 22/1/1 23/1/1
f 25/11/1 24/11/1 23/11/1
f 26/11/1 24/11/1 25/11/1
f 27/1/1 26/1/1 25/1/1
f 28/1/1 26/1/1 27/1/1
f 29/7/1 28/7/1 27/7/1
f 30/7/1 28/7/1 29/7/1
f 31/1/2 32/1/2 33/1/2
f 33/1/2 32/1/2 34/1/2
f 33/11/2 34/11/2 35/11/2
f 35/11/2 34/11/2 36/11/2
f 35/1/2 36/1/2 37/1/2
f 37/1/2 36/1/2 38/1/2
f 37/11/2 38/11/2 39/11/2
f 39/11/2 38/11/2 40/11/2
f 39/1/2 40/1/2 41/1/2
f 41/1/2 40/1/2 42/1/2
f 41/11/2 42/11/2 43/11/2
f 43/11/2 42/11/2 44/11/2
f 43/1/2 44/1/2 45/1/2
f 45/1/2 44/1/2 46/1/2
f 45/11/2 46/11/2 47/11/2
f 47/11/2 46/11/2 48/11/2
f 47/1/2 48/1/2 49/1/2
f 49/1/2 48/1/2 50/1/2
f 49/11/2 50/11/2 51/11/2
f 51/11/2 50/11/2 52/11/2
f 51/1/2 52/1/2 53/1/2
f 53/1/2 52/1/2 54/1/2
f 53/11/2 54/11/2 55/11/2
f 55/11/2 54/11/2 56/11/2
f 55/1/2 56/1/2 57/1/2
f 57/1/2 56/1/2 58/1/2
f 57/7/2 58/7/2 59/7/2
f 59/7/2 58/7/2 60/7/2
f 76/1/3 62/1/3 61/1/3
f 77/11/3 63/11/3 62/11/3
f 77/1/3 62/1/3 76/1/3
f 78/1/3 64/1/3 63/1/3
f 78/11/3 63/11/3 77/11/3
f 79/11/3 65/11/3 64/11/3
f 79/1/3 64/1/3 78/1/3
f 80/1/3 66/1/3 65/1/3
f 80/11/3 65/11/3 79/11/3
f 81/11/3 67/11/3 66/11/3
f 81/1/3 66/1/3 80/1/3
f 82/1/3 68/1/3 67/1/3
f 82/11/3 67/11/3 81/11/3
f 83/11/3 69/11/3 68/11/3
f 83/1/3 68/1/3 82/1/3
f 84/1/3 70/1/3 69/1/3
f 84/11/3 69/11/3 83/11/3
f 85/11/3 71/11/3 70/11/3
f 85/1/3 70/1/3 84/1/3
f 86/1/3 72/1/3 71/1/3
f 86/11/3 71/11/3 85/11/3
f 87/11/3 73/11/3 72/11/3
f 87/1/3 72/1/3 86/1/3
f 88/1/3 74/1/3 73/1/3
f 88/11/3 73/11/3 87/11/3
f 89/7/3 75/7/3 74/7/3
f 89/1/3 74/1/3 88/1/3
f 90/11/3 88/11/3 87/11/3
f 90/11/3 77/11/3 76/11/3
f 90/11/3 89/11/3 88/11/3
f 90/11/3 87/11/3 86/11/3
f 90/11/3 86/11/3 85/11/3
f 90/11/3 85/11/3 84/11/3
f 90/11/3 84/11/3 83/11/3
f 90/11/3 83/11/3 82/11/3
f 90/11/3 82/11/3 81/11/3
f 90/11/3 81/11/3 80/11/3
f 90/11/3 80/11/3 79/11/3
f 90/11/3 79/11/3 78/11/3
f 90/11/3 78/11/3 77/11/3
f 91/11/3 89/11/3 90/11/3
f 92/11/3 89/11/3 91/11/3
f 93/7/3 75/7/3 89/7/3
f 93/11/3 89/11/3 92/11/3
f 94/7/3 75/7/3 93/7/3
f 95/1/3 91/1/3 90/1/3
f 96/11/3 92/11/3 91/11/3
f 96/1/3 91/1/3 95/1/3
f 97/11/3 92/11/3 96/11/3
f 98/11/3 92/11/3 97/11/3
f 99/11/3 92/11/3 98/11/3
f 100/11/3 92/11/3 99/11/3
f 101/11/3 96/11/3 95/11/3
f 101/11/3 97/11/3 96/11/3
f 102/11/3 97/11/3 101/11/3
f 103/8/3 98/8/3 97/8/3
f 103/11/3 97/11/3 102/11/3
f 104/11/3 99/11/3 98/11/3
f 104/8/3 98/8/3 103/8/3
f 105/1/3 102/1/3 101/1/3
f 106/11/3 103/11/3 102/11/3
f 106/1/3 102/1/3 105/1/3
f 107/13/3 104/13/3 103/13/3
f 107/11/3 103/11/3 106/11/3
f 108/11/3 99/11/3 104/11/3
f 108/13/3 104/13/3 107/13/3
f 109/8/3 100/8/3 99/8/3
f 109/11/3 99/11/3 108/11/3
f 110/11/3 92/11/3 100/11/3
f 110/8/3 100/8/3 109/8/3
f 111/11/3 92/11/3 110/11/3
f 112/7/3 93/7/3 92/7/3
f 112/11/3 92/11/3 111/11/3
f 113/11/3 94/11/3 93/11/3
f 113/7/3 93/7/3 112/7/3
f 114/11/3 107/11/3 106/11/3
f 114/11/3 106/11/3 105/11/3
f 115/11/3 107/11/3 114/11/3
f 116/11/3 109/11/3 108/11/3
f 116/9/3 110/9/3 109/9/3
f 117/11/3 111/11/3 110/11/3
f 117/9/3 110/9/3 116/9/3
f 118/1/3 115/1/3 114/1/3
f 119/11/3 107/11/3 115/11/3
f 119/1/3 115/1/3 118/1/3
f 120/11/3 116/11/3 108/11/3
f 120/8/3 117/8/3 116/8/3
f 121/11/3 111/11/3 117/11/3
f 121/8/3 117/8/3 120/8/3
f 122/11/3 119/11/3 118/11/3
f 123/11/3 107/11/3 119/11/3
f 123/11/3 119/11/3 122/11/3
f 124/11/3 120/11/3 108/11/3
f 124/13/3 121/13/3 120/13/3
f 125/11/3 111/11/3 121/11/3
f 125/13/3 121/13/3 124/13/3
f 126/11/3 111/11/3 125/11/3
f 127/7/3 112/7/3 111/7/3
f 127/11/3 111/11/3 126/11/3
f 128/11/3 113/11/3 112/11/3
f 128/7/3 112/7/3 127/7/3
f 129/1/3 123/1/3 122/1/3
f 130/11/3 107/11/3 123/11/3
f 130/1/3 123/1/3 129/1/3
f 131/11/3 124/11/3 108/11/3
f 131/8/3 125/8/3 124/8/3
f 132/11/3 126/11/3 125/11/3
f 132/8/3 125/8/3 131/8/3
f 133/11/3 130/11/3 129/11/3
f 134/11/3 107/11/3 130/11/3
f 134/11/3 130/11/3 133/11/3
f 135/11/3 131/11/3 108/11/3
f 135/9/3 132/9/3 131/9/3
f 136/11/3 126/11/3 132/11/3
f 136/9/3 132/9/3 135/9/3
f 137/11/3 126/11/3 136/11/3
f 138/7/3 127/7/3 126/7/3
f 138/11/3 126/11/3 137/11/3
f 139/11/3 128/11/3 127/11/3
f 139/7/3 127/7/3 138/7/3
f 140/1/3 134/1/3 133/1/3
f 141/11/3 107/11/3 134/11/3
f 141/1/3 134/1/3 140/1/3
f 142/8/3 108/8/3 107/8/3
f 142/11/3 107/11/3 141/11/3
f 143/11/3 135/11/3 108/11/3
f 143/8/3 108/8/3 142/8/3
f 144/11/3 141/11/3 140/11/3
f 144/11/3 142/11/3 141/11/3
f 145/11/3 142/11/3 144/11/3
f 146/13/3 143/13/3 142/13/3
f 146/11/3 142/11/3 145/11/3
f 147/11/3 135/11/3 143/11/3
f 147/13/3 143/13/3 146/13/3
f 148/8/3 136/8/3 135/8/3
f 148/11/3 135/11/3 147/11/3
f 149/11/3 137/11/3 136/11/3
f 149/8/3 136/8/3 148/8/3
f 150/1/3 145/1/3 144/1/3
f 151/11/3 146/11/3 145/11/3
f 151/1/3 145/1/3 150/1/3
f 152/11/3 148/11/3 147/11/3
f 152/11/3 137/11/3 149/11/3
f 152/11/3 149/11/3 148/11/3
f 153/7/3 138/7/3 137/7/3
f 153/11/3 137/11/3 152/11/3
f 154/11/3 139/11/3 138/11/3
f 154/7/3 138/7/3 153/7/3
f 155/11/3 151/11/3 150/11/3
f 156/11/3 146/11/3 151/11/3
f 156/11/3 151/11/3 155/11/3
f 157/1/3 156/1/3 155/1/3
f 158/11/3 146/11/3 156/11/3
f 158/1/3 156/1/3 157/1/3
f 159/8/3 147/8/3 146/8/3
f 159/11/3 146/11/3 158/11/3
f 160/11/3 152/11/3 147/11/3
f 160/8/3 147/8/3 159/8/3
f 161/11/3 159/11/3 158/11/3
f 161/11/3 158/11/3 157/11/3
f 161/11/3 160/11/3 159/11/3
f 162/11/3 160/11/3 161/11/3
f 163/1/3 162/1/3 161/1/3
f 164/11/3 160/11/3 162/11/3
f 164/1/3 162/1/3 163/1/3
f 165/11/3 152/11/3 160/11/3
f 165/11/3 160/11/3 164/11/3
f 165/7/3 153/7/3 152/7/3
f 166/11/3 154/11/3 153/11/3
f 166/7/3 153/7/3 165/7/3
f 167/11/3 139/11/3 154/11/3
f 167/11/3 154/11/3 166/11/3
f 168/11/3 166/11/3 165/11/3
f 168/11/3 164/11/3 163/11/3
f 168/11/3 165/11/3 164/11/3
f 169/11/3 166/11/3 168/11/3
f 170/1/3 169/1/3 168/1/3
f 171/11/3 166/11/3 169/11/3
f 171/1/3 169/1/3 170/1/3
f 172/7/3 167/7/3 166/7/3
f 172/11/3 166/11/3 171/11/3
f 173/11/3 139/11/3 167/11/3
f 173/7/3 167/7/3 172/7/3
f 174/11/3 128/11/3 139/11/3
f 174/11/3 139/11/3 173/11/3
f 175/11/3 172/11/3 171/11/3
f 175/11/3 171/11/3 170/11/3
f 175/11/3 173/11/3 172/11/3
f 176/11/3 173/11/3 175/11/3
f 177/1/3 176/1/3 175/1/3
f 178/11/3 173/11/3 176/11/3
f 178/1/3 176/1/3 177/1/3
f 179/11/3 178/11/3 177/11/3
f 180/11/3 173/11/3 178/11/3
f 180/11/3 178/11/3 179/11/3
f 181/7/3 174/7/3 173/7/3
f 181/11/3 173/11/3 180/11/3
f 182/11/3 128/11/3 174/11/3
f 182/7/3 174/7/3 181/7/3
f 183/11/3 113/11/3 128/11/3
f 183/11/3 128/11/3 182/11/3
f 184/1/3 180/1/3 179/1/3
f 185/11/3 182/11/3 181/11/3
f 185/1/3 180/1/3 184/1/3
f 185/11/3 181/11/3 180/11/3
f 186/11/3 182/11/3 185/11/3
f 187/11/3 182/11/3 186/11/3
f 188/11/3 182/11/3 187/11/3
f 189/11/3 182/11/3 188/11/3
f 190/11/3 185/11/3 184/11/3
f 190/11/3 186/11/3 185/11/3
f 191/11/3 186/11/3 190/11/3
f 192/5/3 187/5/3 186/5/3
f 192/11/3 186/11/3 191/11/3
f 193/6/3 188/6/3 187/6/3
f 193/5/3 187/5/3 192/5/3
f 194/6/3 188/6/3 193/6/3
f 195/2/3 189/2/3 188/2/3
f 195/6/3 188/6/3 194/6/3
f 196/11/3 182/11/3 189/11/3
f 196/2/3 189/2/3 195/2/3
f 197/1/3 191/1/3 190/1/3
f 198/11/3 192/11/3 191/11/3
f 198/1/3 191/1/3 197/1/3
f 199/3/3 194/3/3 193/3/3
f 199/11/3 192/11/3 198/11/3
f 199/3/3 193/3/3 192/3/3
f 200/12/3 195/12/3 194/12/3
f 200/3/3 194/3/3 199/3/3
f 201/6/3 196/6/3 195/6/3
f 201/12/3 195/12/3 200/12/3
f 202/11/3 182/11/3 196/11/3
f 202/6/3 196/6/3 201/6/3
f 203/7/3 183/7/3 182/7/3
f 203/11/3 182/11/3 202/11/3
f 204/11/3 113/11/3 183/11/3
f 204/7/3 183/7/3 203/7/3
f 205/11/3 94/11/3 113/11/3
f 205/11/3 113/11/3 204/11/3
f 206/11/3 199/11/3 198/11/3
f 206/11/3 198/11/3 197/11/3
f 207/11/3 199/11/3 206/11/3
f 208/5/3 200/5/3 199/5/3
f 208/11/3 199/11/3 207/11/3
f 209/3/3 201/3/3 200/3/3
f 209/5/3 200/5/3 208/5/3
f 210/2/3 202/2/3 201/2/3
f 210/3/3 201/3/3 209/3/3
f 211/11/3 204/11/3 203/11/3
f 211/2/3 202/2/3 210/2/3
f 211/11/3 203/11/3 202/11/3
f 212/1/3 207/1/3 206/1/3
f 213/11/3 210/11/3 209/11/3
f 213/1/3 207/1/3 212/1/3
f 213/11/3 209/11/3 208/11/3
f 213/11/3 211/11/3 210/11/3
f 213/11/3 208/11/3 207/11/3
f 214/11/3 204/11/3 211/11/3
f 214/11/3 211/11/3 213/11/3
f 214/7/3 205/7/3 204/7/3
f 215/11/3 94/11/3 205/11/3
f 215/7/3 205/7/3 214/7/3
f 216/11/3 94/11/3 215/11/3
f 217/11/3 213/11/3 212/11/3
f 217/11/3 214/11/3 213/11/3
f 217/11/3 215/11/3 214/11/3
f 218/11/3 215/11/3 217/11/3
f 219/11/3 215/11/3 218/11/3
f 220/11/3 215/11/3 219/11/3
f 221/11/3 215/11/3 220/11/3
f 222/11/3 215/11/3 221/11/3
f 223/11/3 215/11/3 222/11/3
f 224/11/3 215/11/3 223/11/3
f 225/11/3 215/11/3 224/11/3
f 226/11/3 215/11/3 225/11/3
f 227/11/3 215/11/3 226/11/3
f 228/11/3 215/11/3 227/11/3
f 229/11/3 215/11/3 228/11/3
f 230/7/3 216/7/3 215/7/3
f 230/11/3 215/11/3 229/11/3
f 231/1/3 218/1/3 217/1/3
f 232/11/3 219/11/3 218/11/3
f 232/1/3 218/1/3 231/1/3
f 233/1/3 220/1/3 219/1/3
f 233/11/3 219/11/3 232/11/3
f 234/11/3 221/11/3 220/11/3
f 234/1/3 220/1/3 233/1/3
f 235/1/3 222/1/3 221/1/3
f 235/11/3 221/11/3 234/11/3
f 236/11/3 223/11/3 222/11/3
f 236/1/3 222/1/3 235/1/3
f 237/1/3 224/1/3 223/1/3
f 237/11/3 223/11/3 236/11/3
f 238/11/3 225/11/3 224/11/3
f 238/1/3 224/1/3 237/1/3
f 239/1/3 226/1/3 225/1/3
f 239/11/3 225/11/3 238/11/3
f 240/11/3 227/11/3 226/11/3
f 240/1/3 226/1/3 239/1/3
f 241/1/3 228/1/3 227/1/3
f 241/11/3 227/11/3 240/11/3
f 242/11/3 229/11/3 228/11/3
f 242/1/3 228/1/3 241/1/3
f 243/1/3 230/1/3 229/1/3
f 243/11/3 229/11/3 242/11/3
f 244/7/3 216/7/3 230/7/3
f 244/1/3 230/1/3 243/1/3
f 245/7/3 216/7/3 244/7/3
f 246/1/4 247/1/4 261/1/4
f 247/11/4 248/11/4 262/11/4
f 261/1/4 247/1/4 262/1/4
f 248/1/4 249/1/4 263/1/4
f 262/11/4 248/11/4 263/11/4
f 249/11/4 250/11/4 264/11/4
f 263/1/4 249/1/4 264/1/4
f 250/1/4 251/1/4 265/1/4
f 264/11/4 250/11/4 265/11/4
f 251/11/4 252/11/4 266/11/4
f 265/1/4 251/1/4 266/1/4
f 252/1/4 253/1/4 267/1/4
f 266/11/4 252/11/4 267/11/4
f 253/11/4 254/11/4 268/11/4
f 267/1/4 253/1/4 268/1/4
f 254/1/4 255/1/4 269/1/4
f 268/11/4 254/11/4 269/11/4
f 255/11/4 256/11/4 270/11/4
f 269/1/4 255/1/4 270/1/4
f 256/1/4 257/1/4 271/1/4
f 270/11/4 256/11/4 271/11/4
f 257/11/4 258/11/4 272/11/4
f 271/1/4 257/1/4 272/1/4
f 258/1/4 259/1/4 273/1/4
f 272/11/4 258/11/4 273/11/4
f 259/7/4 260/7/4 274/7/4
f 273/1/4 259/1/4 274/1/4
f 272/11/4 273/11/4 275/11/4
f 261/11/4 262/11/4 275/11/4
f 273/11/4 274/11/4 275/11/4
f 271/11/4 272/11/4 275/11/4
f 270/11/4 271/11/4 275/11/4
f 269/11/4 270/11/4 275/11/4
f 268/11/4 269/11/4 275/11/4
f 267/11/4 268/11/4 275/11/4
f 266/11/4 267/11/4 275/11/4
f 265/11/4 266/11/4 275/11/4
f 264/11/4 265/11/4 275/11/4
f 263/11/4 264/11/4 275/11/4
f 262/11/4 263/11/4 275/11/4
f 275/11/4 274/11/4 276/11/4
f 276/11/4 274/11/4 277/11/4
f 277/11/4 274/11/4 278/11/4
f 275/1/4 276/1/4 279/1/4
f 276/11/4 277/11/4 280/11/4
f 279/1/4 276/1/4 280/1/4
f 280/11/4 277/11/4 281/11/4
f 277/4/4 278/4/4 282/4/4
f 281/11/4 277/11/4 282/11/4
f 278/11/4 274/11/4 283/11/4
f 282/4/4 278/4/4 283/4/4
f 283/11/4 274/11/4 284/11/4
f 280/11/4 281/11/4 285/11/4
f 279/11/4 280/11/4 285/11/4
f 285/11/4 281/11/4 286/11/4
f 285/1/4 286/1/4 287/1/4
f 286/11/4 281/11/4 288/11/4
f 287/1/4 286/1/4 288/1/4
f 281/4/4 282/4/4 289/4/4
f 288/11/4 281/11/4 289/11/4
f 282/11/4 283/11/4 290/11/4
f 289/4/4 282/4/4 290/4/4
f 283/4/4 284/4/4 291/4/4
f 290/11/4 283/11/4 291/11/4
f 284/11/4 274/11/4 292/11/4
f 291/4/4 284/4/4 292/4/4
f 287/11/4 288/11/4 293/11/4
f 289/11/4 290/11/4 293/11/4
f 288/11/4 289/11/4 293/11/4
f 293/11/4 290/11/4 294/11/4
f 290/4/4 291/4/4 295/4/4
f 294/11/4 290/11/4 295/11/4
f 291/11/4 292/11/4 296/11/4
f 295/4/4 291/4/4 296/4/4
f 293/1/4 294/1/4 297/1/4
f 294/11/4 295/11/4 298/11/4
f 297/1/4 294/1/4 298/1/4
f 295/11/4 296/11/4 298/11/4
f 297/11/4 298/11/4 299/11/4
f 298/11/4 296/11/4 300/11/4
f 299/11/4 298/11/4 300/11/4
f 299/1/4 300/1/4 301/1/4
f 300/11/4 296/11/4 302/11/4
f 301/1/4 300/1/4 302/1/4
f 301/11/4 302/11/4 303/11/4
f 302/11/4 296/11/4 304/11/4
f 303/11/4 302/11/4 304/11/4
f 303/1/4 304/1/4 305/1/4
f 304/11/4 296/11/4 306/11/4
f 305/1/4 304/1/4 306/1/4
f 305/11/4 306/11/4 307/11/4
f 306/11/4 296/11/4 308/11/4
f 307/11/4 306/11/4 308/11/4
f 308/11/4 296/11/4 309/11/4
f 309/11/4 296/11/4 310/11/4
f 307/1/4 308/1/4 311/1/4
f 308/11/4 309/11/4 312/11/4
f 311/1/4 308/1/4 312/1/4
f 309/8/4 310/8/4 313/8/4
f 312/11/4 309/11/4 313/11/4
f 310/11/4 296/11/4 314/11/4
f 313/8/4 310/8/4 314/8/4
f 312/11/4 313/11/4 315/11/4
f 311/11/4 312/11/4 315/11/4
f 313/11/4 314/11/4 315/11/4
f 315/11/4 314/11/4 316/11/4
f 316/11/4 314/11/4 317/11/4
f 314/11/4 296/11/4 318/11/4
f 317/11/4 314/11/4 318/11/4
f 315/1/4 316/1/4 319/1/4
f 316/11/4 317/11/4 320/11/4
f 319/1/4 316/1/4 320/1/4
f 317/8/4 318/8/4 321/8/4
f 320/11/4 317/11/4 321/11/4
f 318/11/4 296/11/4 322/11/4
f 321/8/4 318/8/4 322/8/4
f 320/11/4 321/11/4 323/11/4
f 319/11/4 320/11/4 323/11/4
f 323/11/4 321/11/4 324/11/4
f 323/1/4 324/1/4 325/1/4
f 324/11/4 321/11/4 326/11/4
f 325/1/4 324/1/4 326/1/4
f 321/13/4 322/13/4 327/13/4
f 326/11/4 321/11/4 327/11/4
f 322/11/4 296/11/4 328/11/4
f 327/13/4 322/13/4 328/13/4
f 326/11/4 327/11/4 329/11/4
f 325/11/4 326/11/4 329/11/4
f 329/11/4 327/11/4 330/11/4
f 327/14/4 328/14/4 331/14/4
f 330/11/4 327/11/4 331/11/4
f 328/11/4 296/11/4 332/11/4
f 331/14/4 328/14/4 332/14/4
f 329/1/4 330/1/4 333/1/4
f 330/11/4 331/11/4 334/11/4
f 333/1/4 330/1/4 334/1/4
f 331/13/4 332/13/4 335/13/4
f 334/11/4 331/11/4 335/11/4
f 332/11/4 296/11/4 336/11/4
f 335/13/4 332/13/4 336/13/4
f 334/11/4 335/11/4 337/11/4
f 333/11/4 334/11/4 337/11/4
f 335/11/4 336/11/4 337/11/4
f 337/11/4 336/11/4 338/11/4
f 337/1/4 338/1/4 339/1/4
f 338/11/4 336/11/4 340/11/4
f 339/1/4 338/1/4 340/1/4
f 340/11/4 336/11/4 341/11/4
f 336/11/4 296/11/4 342/11/4
f 341/11/4 336/11/4 342/11/4
f 340/11/4 341/11/4 343/11/4
f 339/11/4 340/11/4 343/11/4
f 343/11/4 341/11/4 344/11/4
f 341/12/4 342/12/4 345/12/4
f 344/11/4 341/11/4 345/11/4
f 342/11/4 296/11/4 346/11/4
f 345/12/4 342/12/4 346/12/4
f 343/1/4 344/1/4 347/1/4
f 344/11/4 345/11/4 348/11/4
f 347/1/4 344/1/4 348/1/4
f 345/10/4 346/10/4 349/10/4
f 348/11/4 345/11/4 349/11/4
f 346/11/4 296/11/4 350/11/4
f 349/10/4 346/10/4 350/10/4
f 348/11/4 349/11/4 351/11/4
f 347/11/4 348/11/4 351/11/4
f 351/11/4 349/11/4 352/11/4
f 349/12/4 350/12/4 353/12/4
f 352/11/4 349/11/4 353/11/4
f 350/11/4 296/11/4 354/11/4
f 353/12/4 350/12/4 354/12/4
f 351/1/4 352/1/4 355/1/4
f 352/11/4 353/11/4 356/11/4
f 355/1/4 352/1/4 356/1/4
f 353/8/4 354/8/4 357/8/4
f 356/11/4 353/11/4 357/11/4
f 354/11/4 296/11/4 358/11/4
f 357/8/4 354/8/4 358/8/4
f 356/11/4 357/11/4 359/11/4
f 355/11/4 356/11/4 359/11/4
f 357/11/4 358/11/4 359/11/4
f 359/11/4 358/11/4 360/11/4
f 359/1/4 360/1/4 361/1/4
f 360/11/4 358/11/4 362/11/4
f 361/1/4 360/1/4 362/1/4
f 361/11/4 362/11/4 363/11/4
f 362/11/4 358/11/4 364/11/4
f 363/11/4 362/11/4 364/11/4
f 364/11/4 358/11/4 365/11/4
f 365/11/4 358/11/4 366/11/4
f 366/11/4 358/11/4 367/11/4
f 367/11/4 358/11/4 368/11/4
f 358/11/4 296/11/4 369/11/4
f 368/11/4 358/11/4 369/11/4
f 369/11/4 296/11/4 370/11/4
f 370/11/4 296/11/4 371/11/4
f 371/11/4 296/11/4 372/11/4
f 372/11/4 296/11/4 373/11/4
f 296/11/4 292/11/4 374/11/4
f 373/11/4 296/11/4 374/11/4
f 292/11/4 274/11/4 375/11/4
f 374/11/4 292/11/4 375/11/4
f 274/7/4 260/7/4 376/7/4
f 375/11/4 274/11/4 376/11/4
f 363/1/4 364/1/4 377/1/4
f 364/11/4 365/11/4 378/11/4
f 377/1/4 364/1/4 378/1/4
f 365/1/4 366/1/4 379/1/4
f 378/11/4 365/11/4 379/11/4
f 366/11/4 367/11/4 380/11/4
f 379/1/4 366/1/4 380/1/4
f 367/1/4 368/1/4 381/1/4
f 380/11/4 367/11/4 381/11/4
f 368/11/4 369/11/4 382/11/4
f 381/1/4 368/1/4 382/1/4
f 369/1/4 370/1/4 383/1/4
f 382/11/4 369/11/4 383/11/4
f 370/11/4 371/11/4 384/11/4
f 383/1/4 370/1/4 384/1/4
f 371/1/4 372/1/4 385/1/4
f 384/11/4 371/11/4 385/11/4
f 372/11/4 373/11/4 386/11/4
f 385/1/4 372/1/4 386/1/4
f 373/1/4 374/1/4 387/1/4
f 386/11/4 373/11/4 387/11/4
f 374/11/4 375/11/4 388/11/4
f 387/1/4 374/1/4 388/1/4
f 375/1/4 376/1/4 389/1/4
f 388/11/4 375/11/4 389/11/4
f 376/7/4 260/7/4 390/7/4
f 389/1/4 376/1/4 390/1/4
f 390/7/4 260/7/4 391/7/4
f 422/1/5 393/1/5 392/1/5
f 423/11/5 394/11/5 393/11/5
f 423/1/5 393/1/5 422/1/5
f 424/1/5 395/1/5 394/1/5
f 424/11/5 394/11/5 423/11/5
f 425/11/5 396/11/5 395/11/5
f 425/1/5 395/1/5 424/1/5
f 426/1/5 397/1/5 396/1/5
f 426/11/5 396/11/5 425/11/5
f 427/11/5 398/11/5 397/11/5
f 427/1/5 397/1/5 426/1/5
f 428/1/5 399/1/5 398/1/5
f 428/11/5 398/11/5 427/11/5
f 429/11/5 400/11/5 399/11/5
f 429/1/5 399/1/5 428/1/5
f 430/1/5 401/1/5 400/1/5
f 430/11/5 400/11/5 429/11/5
f 431/11/5 402/11/5 401/11/5
f 431/1/5 401/1/5 430/1/5
f 432/1/5 403/1/5 402/1/5
f 432/11/5 402/11/5 431/11/5
f 433/11/5 404/11/5 403/11/5
f 433/1/5 403/1/5 432/1/5
f 434/1/5 405/1/5 404/1/5
f 434/11/5 404/11/5 433/11/5
f 435/11/5 406/11/5 405/11/5
f 435/1/5 405/1/5 434/1/5
f 436/1/5 407/1/5 406/1/5
f 436/11/5 406/11/5 435/11/5
f 437/11/5 408/11/5 407/11/5
f 437/1/5 407/1/5 436/1/5
f 438/1/5 409/1/5 408/1/5
f 438/11/5 408/11/5 437/11/5
f 439/11/5 410/11/5 409/11/5
f 439/1/5 409/1/5 438/1/5
f 440/1/5 411/1/5 410/1/5
f 440/11/5 410/11/5 439/11/5
f 441/11/5 412/11/5 411/11/5
f 441/1/5 411/1/5 440/1/5
f 442/1/5 413/1/5 412/1/5
f 442/11/5 412/11/5 441/11/5
f 443/11/5 414/11/5 413/11/5
f 443/1/5 413/1/5 442/1/5
f 444/1/5 415/1/5 414/1/5
f 444/11/5 414/11/5 443/11/5
f 445/11/5 416/11/5 415/11/5
f 445/1/5 415/1/5 444/1/5
f 446/1/5 417/1/5 416/1/5
f 446/11/5 416/11/5 445/11/5
f 447/11/5 418/11/5 417/11/5
f 447/1/5 417/1/5 446/1/5
f 448/1/5 419/1/5 418/1/5
f 448/11/5 418/11/5 447/11/5
f 449/11/5 420/11/5 419/11/5
f 449/1/5 419/1/5 448/1/5
f 450/1/5 421/1/5 420/1/5
f 450/11/5 420/11/5 449/11/5
f 451/1/5 421/1/5 450/1/5
f 452/7/6 453/7/6 456/7/6
f 453/11/6 454/11/6 456/11/6
f 454/7/6 455/7/6 457/7/6
f 456/11/6 454/11/6 457/11/6
f 452/7/6 456/7/6 458/7/6
f 456/7/6 457/7/6 458/7/6
f 457/7/6 455/7/6 459/7/6
f 458/7/6 457/7/6 459/7/6
