# MagicaVoxel @ Ephtracy

# group
g house-flat

# material
mtllib house-flat.mtl
usemtl palette

# normals
vn -1 0 0
vn 1 0 0
vn 0 0 1
vn 0 0 -1
vn 0 -1 0
vn 0 1 0

# texcoords
vt 0.310547 0.5
vt 0.392578 0.5
vt 0.947266 0.5

# verts
v -8.5 8 6.5
v -8.5 8 -6.5
v -8.5 10 6.5
v -8.5 10 -6.5
v -7.5 0 5.5
v -7.5 0 4.5
v -7.5 0 -4.5
v -7.5 0 -5.5
v -7.5 3 0.5
v -7.5 3 -2.5
v -7.5 5 0.5
v -7.5 5 -2.5
v -7.5 7 4.5
v -7.5 7 -4.5
v -7.5 8 5.5
v -7.5 8 -5.5
v 6.5 0 4.5
v 6.5 0 -4.5
v 6.5 3 2.5
v 6.5 3 -2.5
v 6.5 6 2.5
v 6.5 6 -2.5
v 6.5 7 4.5
v 6.5 7 -4.5
v 6.5 8 4.5
v 6.5 8 -4.5
v 7.5 9 5.5
v 7.5 9 -5.5
v 7.5 10 5.5
v 7.5 10 -5.5
v -7.5 9 5.5
v -7.5 9 -5.5
v -7.5 10 5.5
v -7.5 10 -5.5
v -6.5 0 4.5
v -6.5 0 -4.5
v -6.5 3 0.5
v -6.5 3 -2.5
v -6.5 5 0.5
v -6.5 5 -2.5
v -6.5 7 4.5
v -6.5 7 -4.5
v -6.5 8 4.5
v -6.5 8 -4.5
v 7.5 0 5.5
v 7.5 0 4.5
v 7.5 0 -4.5
v 7.5 0 -5.5
v 7.5 3 2.5
v 7.5 3 -2.5
v 7.5 6 2.5
v 7.5 6 -2.5
v 7.5 7 4.5
v 7.5 7 -4.5
v 7.5 8 5.5
v 7.5 8 -5.5
v 8.5 8 6.5
v 8.5 8 -6.5
v 8.5 10 6.5
v 8.5 10 -6.5
v -8.5 8 6.5
v -8.5 10 6.5
v 8.5 8 6.5
v 8.5 10 6.5
v -7.5 0 5.5
v -7.5 8 5.5
v -6.5 0 5.5
v -6.5 7 5.5
v -3.5 0 5.5
v -3.5 4 5.5
v -0.5 0 5.5
v -0.5 4 5.5
v 2.5 4 5.5
v 2.5 6 5.5
v 4.5 4 5.5
v 4.5 6 5.5
v 6.5 0 5.5
v 6.5 7 5.5
v 7.5 0 5.5
v 7.5 8 5.5
v -6.5 0 -4.5
v -6.5 7 -4.5
v -6.5 8 -4.5
v -4.5 3 -4.5
v -4.5 6 -4.5
v -2.5 3 -4.5
v -2.5 6 -4.5
v 1.5 3 -4.5
v 1.5 6 -4.5
v 3.5 3 -4.5
v 3.5 6 -4.5
v 6.5 0 -4.5
v 6.5 7 -4.5
v 6.5 8 -4.5
v -7.5 9 -5.5
v -7.5 10 -5.5
v 7.5 9 -5.5
v 7.5 10 -5.5
v -7.5 9 5.5
v -7.5 10 5.5
v 7.5 9 5.5
v 7.5 10 5.5
v -6.5 0 4.5
v -6.5 7 4.5
v -6.5 8 4.5
v -3.5 0 4.5
v -3.5 4 4.5
v -0.5 0 4.5
v -0.5 4 4.5
v 2.5 4 4.5
v 2.5 6 4.5
v 4.5 4 4.5
v 4.5 6 4.5
v 6.5 0 4.5
v 6.5 7 4.5
v 6.5 8 4.5
v -7.5 0 -5.5
v -7.5 8 -5.5
v -6.5 0 -5.5
v -6.5 7 -5.5
v -4.5 3 -5.5
v -4.5 6 -5.5
v -2.5 3 -5.5
v -2.5 6 -5.5
v 1.5 3 -5.5
v 1.5 6 -5.5
v 3.5 3 -5.5
v 3.5 6 -5.5
v 6.5 0 -5.5
v 6.5 7 -5.5
v 7.5 0 -5.5
v 7.5 8 -5.5
v -8.5 8 -6.5
v -8.5 10 -6.5
v 8.5 8 -6.5
v 8.5 10 -6.5
v -7.5 0 5.5
v -6.5 0 5.5
v -3.5 0 5.5
v -0.5 0 5.5
v 6.5 0 5.5
v 7.5 0 5.5
v -7.5 0 4.5
v -6.5 0 4.5
v -3.5 0 4.5
v -0.5 0 4.5
v 6.5 0 4.5
v 7.5 0 4.5
v -7.5 0 -4.5
v -6.5 0 -4.5
v 6.5 0 -4.5
v 7.5 0 -4.5
v -7.5 0 -5.5
v -6.5 0 -5.5
v 6.5 0 -5.5
v 7.5 0 -5.5
v -8.5 8 6.5
v 8.5 8 6.5
v -7.5 8 5.5
v 7.5 8 5.5
v -6.5 8 4.5
v 6.5 8 4.5
v -6.5 8 -4.5
v 6.5 8 -4.5
v -7.5 8 -5.5
v 7.5 8 -5.5
v -8.5 8 -6.5
v 8.5 8 -6.5
v -7.5 9 5.5
v 7.5 9 5.5
v -7.5 9 -5.5
v 7.5 9 -5.5
v -8.5 10 6.5
v 8.5 10 6.5
v -7.5 10 5.5
v 7.5 10 5.5
v -7.5 10 -5.5
v 7.5 10 -5.5
v -8.5 10 -6.5
v 8.5 10 -6.5

# faces
f 3/1/1 2/1/1 1/1/1
f 4/1/1 2/1/1 3/1/1
f 9/2/1 7/2/1 6/2/1
f 10/2/1 7/2/1 9/2/1
f 11/2/1 9/2/1 6/2/1
f 11/1/1 10/1/1 9/1/1
f 12/2/1 7/2/1 10/2/1
f 12/1/1 10/1/1 11/1/1
f 13/3/1 6/3/1 5/3/1
f 13/2/1 11/2/1 6/2/1
f 13/2/1 12/2/1 11/2/1
f 14/2/1 7/2/1 12/2/1
f 14/2/1 12/2/1 13/2/1
f 14/3/1 8/3/1 7/3/1
f 15/3/1 13/3/1 5/3/1
f 15/3/1 14/3/1 13/3/1
f 16/3/1 8/3/1 14/3/1
f 16/3/1 14/3/1 15/3/1
f 19/2/1 18/2/1 17/2/1
f 20/2/1 18/2/1 19/2/1
f 21/2/1 19/2/1 17/2/1
f 21/1/1 20/1/1 19/1/1
f 22/2/1 18/2/1 20/2/1
f 22/1/1 20/1/1 21/1/1
f 23/2/1 21/2/1 17/2/1
f 23/2/1 22/2/1 21/2/1
f 24/2/1 18/2/1 22/2/1
f 24/2/1 22/2/1 23/2/1
f 25/3/1 24/3/1 23/3/1
f 26/3/1 24/3/1 25/3/1
f 29/1/1 28/1/1 27/1/1
f 30/1/1 28/1/1 29/1/1
f 31/1/2 32/1/2 33/1/2
f 33/1/2 32/1/2 34/1/2
f 35/2/2 36/2/2 37/2/2
f 37/2/2 36/2/2 38/2/2
f 35/2/2 37/2/2 39/2/2
f 37/1/2 38/1/2 39/1/2
f 38/2/2 36/2/2 40/2/2
f 39/1/2 38/1/2 40/1/2
f 35/2/2 39/2/2 41/2/2
f 39/2/2 40/2/2 41/2/2
f 40/2/2 36/2/2 42/2/2
f 41/2/2 40/2/2 42/2/2
f 41/3/2 42/3/2 43/3/2
f 43/3/2 42/3/2 44/3/2
f 46/2/2 47/2/2 49/2/2
f 49/2/2 47/2/2 50/2/2
f 46/2/2 49/2/2 51/2/2
f 49/1/2 50/1/2 51/1/2
f 50/2/2 47/2/2 52/2/2
f 51/1/2 50/1/2 52/1/2
f 45/3/2 46/3/2 53/3/2
f 46/2/2 51/2/2 53/2/2
f 51/2/2 52/2/2 53/2/2
f 52/2/2 47/2/2 54/2/2
f 53/2/2 52/2/2 54/2/2
f 47/3/2 48/3/2 54/3/2
f 45/3/2 53/3/2 55/3/2
f 53/3/2 54/3/2 55/3/2
f 54/3/2 48/3/2 56/3/2
f 55/3/2 54/3/2 56/3/2
f 57/1/2 58/1/2 59/1/2
f 59/1/2 58/1/2 60/1/2
f 63/1/3 62/1/3 61/1/3
f 64/1/3 62/1/3 63/1/3
f 67/3/3 66/3/3 65/3/3
f 68/3/3 66/3/3 67/3/3
f 69/2/3 68/2/3 67/2/3
f 70/2/3 68/2/3 69/2/3
f 71/1/3 70/1/3 69/1/3
f 72/2/3 68/2/3 70/2/3
f 72/1/3 70/1/3 71/1/3
f 73/2/3 72/2/3 71/2/3
f 73/2/3 68/2/3 72/2/3
f 74/2/3 68/2/3 73/2/3
f 75/2/3 73/2/3 71/2/3
f 75/1/3 74/1/3 73/1/3
f 76/2/3 68/2/3 74/2/3
f 76/1/3 74/1/3 75/1/3
f 77/2/3 75/2/3 71/2/3
f 77/2/3 76/2/3 75/2/3
f 78/3/3 66/3/3 68/3/3
f 78/2/3 76/2/3 77/2/3
f 78/2/3 68/2/3 76/2/3
f 79/3/3 78/3/3 77/3/3
f 80/3/3 66/3/3 78/3/3
f 80/3/3 78/3/3 79/3/3
f 84/2/3 82/2/3 81/2/3
f 85/2/3 82/2/3 84/2/3
f 86/2/3 84/2/3 81/2/3
f 86/1/3 85/1/3 84/1/3
f 87/2/3 82/2/3 85/2/3
f 87/1/3 85/1/3 86/1/3
f 88/2/3 86/2/3 81/2/3
f 88/2/3 87/2/3 86/2/3
f 89/2/3 82/2/3 87/2/3
f 89/2/3 87/2/3 88/2/3
f 90/2/3 88/2/3 81/2/3
f 90/1/3 89/1/3 88/1/3
f 91/2/3 82/2/3 89/2/3
f 91/1/3 89/1/3 90/1/3
f 92/2/3 90/2/3 81/2/3
f 92/2/3 91/2/3 90/2/3
f 93/3/3 83/3/3 82/3/3
f 93/2/3 91/2/3 92/2/3
f 93/2/3 82/2/3 91/2/3
f 94/3/3 83/3/3 93/3/3
f 97/1/3 96/1/3 95/1/3
f 98/1/3 96/1/3 97/1/3
f 99/1/4 100/1/4 101/1/4
f 101/1/4 100/1/4 102/1/4
f 103/2/4 104/2/4 106/2/4
f 106/2/4 104/2/4 107/2/4
f 106/1/4 107/1/4 108/1/4
f 107/2/4 104/2/4 109/2/4
f 108/1/4 107/1/4 109/1/4
f 108/2/4 109/2/4 110/2/4
f 109/2/4 104/2/4 110/2/4
f 110/2/4 104/2/4 111/2/4
f 108/2/4 110/2/4 112/2/4
f 110/1/4 111/1/4 112/1/4
f 111/2/4 104/2/4 113/2/4
f 112/1/4 111/1/4 113/1/4
f 108/2/4 112/2/4 114/2/4
f 112/2/4 113/2/4 114/2/4
f 104/3/4 105/3/4 115/3/4
f 114/2/4 113/2/4 115/2/4
f 113/2/4 104/2/4 115/2/4
f 115/3/4 105/3/4 116/3/4
f 117/3/4 118/3/4 119/3/4
f 119/3/4 118/3/4 120/3/4
f 119/2/4 120/2/4 121/2/4
f 121/2/4 120/2/4 122/2/4
f 119/2/4 121/2/4 123/2/4
f 121/1/4 122/1/4 123/1/4
f 122/2/4 120/2/4 124/2/4
f 123/1/4 122/1/4 124/1/4
f 119/2/4 123/2/4 125/2/4
f 123/2/4 124/2/4 125/2/4
f 124/2/4 120/2/4 126/2/4
f 125/2/4 124/2/4 126/2/4
f 119/2/4 125/2/4 127/2/4
f 125/1/4 126/1/4 127/1/4
f 126/2/4 120/2/4 128/2/4
f 127/1/4 126/1/4 128/1/4
f 119/2/4 127/2/4 129/2/4
f 127/2/4 128/2/4 129/2/4
f 120/3/4 118/3/4 130/3/4
f 129/2/4 128/2/4 130/2/4
f 128/2/4 120/2/4 130/2/4
f 129/3/4 130/3/4 131/3/4
f 130/3/4 118/3/4 132/3/4
f 131/3/4 130/3/4 132/3/4
f 133/1/4 134/1/4 135/1/4
f 135/1/4 134/1/4 136/1/4
f 143/3/5 138/3/5 137/3/5
f 144/2/5 139/2/5 138/2/5
f 144/3/5 138/3/5 143/3/5
f 145/1/5 140/1/5 139/1/5
f 145/2/5 139/2/5 144/2/5
f 146/2/5 141/2/5 140/2/5
f 146/1/5 140/1/5 145/1/5
f 147/3/5 142/3/5 141/3/5
f 147/2/5 141/2/5 146/2/5
f 148/3/5 142/3/5 147/3/5
f 149/2/5 144/2/5 143/2/5
f 150/2/5 144/2/5 149/2/5
f 151/2/5 148/2/5 147/2/5
f 152/2/5 148/2/5 151/2/5
f 153/3/5 150/3/5 149/3/5
f 154/2/5 151/2/5 150/2/5
f 154/3/5 150/3/5 153/3/5
f 155/3/5 152/3/5 151/3/5
f 155/2/5 151/2/5 154/2/5
f 156/3/5 152/3/5 155/3/5
f 159/1/5 158/1/5 157/1/5
f 160/1/5 158/1/5 159/1/5
f 163/1/5 162/1/5 161/1/5
f 164/1/5 162/1/5 163/1/5
f 165/1/5 159/1/5 157/1/5
f 166/1/5 158/1/5 160/1/5
f 167/1/5 165/1/5 157/1/5
f 167/1/5 166/1/5 165/1/5
f 168/1/5 158/1/5 166/1/5
f 168/1/5 166/1/5 167/1/5
f 169/1/6 170/1/6 171/1/6
f 171/1/6 170/1/6 172/1/6
f 173/1/6 174/1/6 175/1/6
f 175/1/6 174/1/6 176/1/6
f 173/1/6 175/1/6 177/1/6
f 176/1/6 174/1/6 178/1/6
f 173/1/6 177/1/6 179/1/6
f 177/1/6 178/1/6 179/1/6
f 178/1/6 174/1/6 180/1/6
f 179/1/6 178/1/6 180/1/6
