# MagicaVoxel @ Ephtracy

# group
g prototype-quartermountain

# material
mtllib prototype-quartermountain.mtl
usemtl palette

# normals
vn -1 0 0
vn 1 0 0
vn 0 0 1
vn 0 0 -1
vn 0 -1 0
vn 0 1 0

# texcoords
vt 0.525391 0.5
vt 0.533203 0.5
vt 0.568359 0.5
vt 0.982422 0.5

# verts
v -20 0 20
v -20 0 -20
v -20 1 20
v -20 1 -1
v -20 5 -1
v -20 5 -20
v -20 16 -1
v -20 16 -20
v -20 21 -1
v -20 21 -20
v -20 25 -1
v -20 25 -20
v -10 1 -2
v -10 1 -3
v -10 5 -2
v -10 5 -3
v -10 16 -2
v -10 16 -3
v -10 21 -2
v -10 21 -3
v -10 25 -2
v -10 25 -3
v -8 1 -1
v -8 1 -2
v -8 5 -1
v -8 5 -2
v -8 16 -1
v -8 16 -2
v -8 21 -1
v -8 21 -2
v -8 25 -1
v -8 25 -2
v -16 1 -1
v -16 1 -2
v -16 5 -1
v -16 5 -2
v -16 16 -1
v -16 16 -2
v -16 21 -1
v -16 21 -2
v -16 25 -1
v -16 25 -2
v -12 1 -2
v -12 1 -3
v -12 5 -2
v -12 5 -3
v -12 16 -2
v -12 16 -3
v -12 21 -2
v -12 21 -3
v -12 25 -2
v -12 25 -3
v -4 1 -1
v -4 1 -5
v -4 5 -1
v -4 5 -5
v -4 16 -1
v -4 16 -5
v -4 21 -1
v -4 21 -5
v -4 25 -1
v -4 25 -5
v -2 1 -5
v -2 1 -6
v -2 5 -5
v -2 5 -6
v -2 16 -5
v -2 16 -6
v -2 21 -5
v -2 21 -6
v -2 25 -5
v -2 25 -6
v -1 1 -6
v -1 1 -9
v -1 5 -6
v -1 5 -9
v -1 16 -6
v -1 16 -9
v -1 21 -6
v -1 21 -9
v -1 25 -6
v -1 25 -9
v 0 1 -9
v 0 1 -12
v 0 1 -15
v 0 1 -18
v 0 5 -9
v 0 5 -12
v 0 5 -15
v 0 5 -18
v 0 16 -9
v 0 16 -12
v 0 16 -15
v 0 16 -18
v 0 21 -9
v 0 21 -12
v 0 21 -15
v 0 21 -18
v 0 25 -9
v 0 25 -12
v 0 25 -15
v 0 25 -18
v 1 1 -12
v 1 1 -15
v 1 1 -18
v 1 1 -20
v 1 5 -12
v 1 5 -15
v 1 5 -18
v 1 5 -20
v 1 16 -12
v 1 16 -15
v 1 16 -18
v 1 16 -20
v 1 21 -12
v 1 21 -15
v 1 21 -18
v 1 21 -20
v 1 25 -12
v 1 25 -15
v 1 25 -18
v 1 25 -20
v 20 0 20
v 20 0 -2
v 20 0 -3
v 20 0 -20
v 20 1 20
v 20 1 -2
v 20 1 -3
v 20 1 -20
v -20 0 20
v -20 1 20
v 1 0 20
v 1 1 20
v 2 0 20
v 2 1 20
v 20 0 20
v 20 1 20
v -20 1 -1
v -20 5 -1
v -20 16 -1
v -20 21 -1
v -20 25 -1
v -16 1 -1
v -16 5 -1
v -16 16 -1
v -16 21 -1
v -16 25 -1
v -8 1 -1
v -8 5 -1
v -8 16 -1
v -8 21 -1
v -8 25 -1
v -4 1 -1
v -4 5 -1
v -4 16 -1
v -4 21 -1
v -4 25 -1
v -16 1 -2
v -16 5 -2
v -16 16 -2
v -16 21 -2
v -16 25 -2
v -12 1 -2
v -12 5 -2
v -12 16 -2
v -12 21 -2
v -12 25 -2
v -10 1 -2
v -10 5 -2
v -10 16 -2
v -10 21 -2
v -10 25 -2
v -8 1 -2
v -8 5 -2
v -8 16 -2
v -8 21 -2
v -8 25 -2
v -12 1 -3
v -12 5 -3
v -12 16 -3
v -12 21 -3
v -12 25 -3
v -10 1 -3
v -10 5 -3
v -10 16 -3
v -10 21 -3
v -10 25 -3
v -4 1 -5
v -4 5 -5
v -4 16 -5
v -4 21 -5
v -4 25 -5
v -2 1 -5
v -2 5 -5
v -2 16 -5
v -2 21 -5
v -2 25 -5
v -2 1 -6
v -2 5 -6
v -2 16 -6
v -2 21 -6
v -2 25 -6
v -1 1 -6
v -1 5 -6
v -1 16 -6
v -1 21 -6
v -1 25 -6
v -1 1 -9
v -1 5 -9
v -1 16 -9
v -1 21 -9
v -1 25 -9
v 0 1 -9
v 0 5 -9
v 0 16 -9
v 0 21 -9
v 0 25 -9
v 0 1 -12
v 0 5 -12
v 0 16 -12
v 0 21 -12
v 0 25 -12
v 1 1 -12
v 1 5 -12
v 1 16 -12
v 1 21 -12
v 1 25 -12
v 0 1 -18
v 0 5 -18
v 0 16 -18
v 0 21 -18
v 0 25 -18
v 1 1 -18
v 1 5 -18
v 1 16 -18
v 1 21 -18
v 1 25 -18
v 0 1 -15
v 0 5 -15
v 0 16 -15
v 0 21 -15
v 0 25 -15
v 1 1 -15
v 1 5 -15
v 1 16 -15
v 1 21 -15
v 1 25 -15
v -20 0 -20
v -20 5 -20
v -20 16 -20
v -20 21 -20
v -20 25 -20
v 1 1 -20
v 1 5 -20
v 1 16 -20
v 1 21 -20
v 1 25 -20
v 20 0 -20
v 20 1 -20
v -20 0 20
v 1 0 20
v 2 0 20
v 20 0 20
v -18 0 19
v -17 0 19
v 1 0 19
v 2 0 19
v -18 0 18
v -17 0 18
v 17 0 18
v 18 0 18
v -14 0 17
v -13 0 17
v 17 0 17
v 18 0 17
v -14 0 16
v -13 0 16
v -4 0 15
v -3 0 15
v 4 0 15
v 5 0 15
v -4 0 14
v -3 0 14
v 4 0 14
v 5 0 14
v 8 0 14
v 9 0 14
v 14 0 14
v 15 0 14
v 8 0 13
v 9 0 13
v 14 0 13
v 15 0 13
v -13 0 12
v -12 0 12
v -9 0 12
v -8 0 12
v -13 0 11
v -12 0 11
v -9 0 11
v -8 0 11
v 2 0 11
v 3 0 11
v 17 0 11
v 18 0 11
v 0 0 10
v 1 0 10
v 2 0 10
v 3 0 10
v 17 0 10
v 18 0 10
v 0 0 9
v 1 0 9
v -7 0 8
v -6 0 8
v -7 0 7
v -6 0 7
v 9 0 7
v 10 0 7
v 3 0 6
v 4 0 6
v 9 0 6
v 10 0 6
v -10 0 5
v -9 0 5
v -5 0 5
v -4 0 5
v 3 0 5
v 4 0 5
v -10 0 4
v -9 0 4
v -5 0 4
v -4 0 4
v -17 0 3
v -16 0 3
v 10 0 3
v 11 0 3
v 17 0 3
v 18 0 3
v -17 0 2
v -16 0 2
v 10 0 2
v 11 0 2
v 17 0 2
v 18 0 2
v 13 0 -1
v 14 0 -1
v 13 0 -2
v 14 0 -2
v 19 0 -2
v 20 0 -2
v 3 0 -3
v 4 0 -3
v 6 0 -3
v 7 0 -3
v 19 0 -3
v 20 0 -3
v 3 0 -4
v 4 0 -4
v 6 0 -4
v 7 0 -4
v 9 0 -9
v 10 0 -9
v 13 0 -9
v 14 0 -9
v 9 0 -10
v 10 0 -10
v 13 0 -10
v 14 0 -10
v 17 0 -13
v 18 0 -13
v 17 0 -14
v 18 0 -14
v 4 0 -15
v 5 0 -15
v 9 0 -15
v 10 0 -15
v 4 0 -16
v 5 0 -16
v 9 0 -16
v 10 0 -16
v -20 0 -20
v 20 0 -20
v -20 1 20
v 1 1 20
v 2 1 20
v 20 1 20
v -18 1 19
v -17 1 19
v 1 1 19
v 2 1 19
v -18 1 18
v -17 1 18
v 17 1 18
v 18 1 18
v -14 1 17
v -13 1 17
v 17 1 17
v 18 1 17
v -14 1 16
v -13 1 16
v -4 1 15
v -3 1 15
v 4 1 15
v 5 1 15
v -4 1 14
v -3 1 14
v 4 1 14
v 5 1 14
v 8 1 14
v 9 1 14
v 14 1 14
v 15 1 14
v 8 1 13
v 9 1 13
v 14 1 13
v 15 1 13
v -13 1 12
v -12 1 12
v -9 1 12
v -8 1 12
v -13 1 11
v -12 1 11
v -9 1 11
v -8 1 11
v 2 1 11
v 3 1 11
v 17 1 11
v 18 1 11
v 0 1 10
v 1 1 10
v 2 1 10
v 3 1 10
v 17 1 10
v 18 1 10
v 0 1 9
v 1 1 9
v -7 1 8
v -6 1 8
v -7 1 7
v -6 1 7
v 9 1 7
v 10 1 7
v 3 1 6
v 4 1 6
v 9 1 6
v 10 1 6
v -10 1 5
v -9 1 5
v -5 1 5
v -4 1 5
v 3 1 5
v 4 1 5
v -10 1 4
v -9 1 4
v -5 1 4
v -4 1 4
v -17 1 3
v -16 1 3
v 10 1 3
v 11 1 3
v 17 1 3
v 18 1 3
v -17 1 2
v -16 1 2
v 10 1 2
v 11 1 2
v 17 1 2
v 18 1 2
v -20 1 -1
v -16 1 -1
v -8 1 -1
v -4 1 -1
v 13 1 -1
v 14 1 -1
v -16 1 -2
v -12 1 -2
v -10 1 -2
v -8 1 -2
v 13 1 -2
v 14 1 -2
v 19 1 -2
v 20 1 -2
v -12 1 -3
v -10 1 -3
v 3 1 -3
v 4 1 -3
v 6 1 -3
v 7 1 -3
v 19 1 -3
v 20 1 -3
v 3 1 -4
v 4 1 -4
v 6 1 -4
v 7 1 -4
v -4 1 -5
v -2 1 -5
v -2 1 -6
v -1 1 -6
v -1 1 -9
v 0 1 -9
v 9 1 -9
v 10 1 -9
v 13 1 -9
v 14 1 -9
v 9 1 -10
v 10 1 -10
v 13 1 -10
v 14 1 -10
v 0 1 -12
v 1 1 -12
v 17 1 -13
v 18 1 -13
v 17 1 -14
v 18 1 -14
v 0 1 -15
v 1 1 -15
v 4 1 -15
v 5 1 -15
v 9 1 -15
v 10 1 -15
v 4 1 -16
v 5 1 -16
v 9 1 -16
v 10 1 -16
v 0 1 -18
v 1 1 -18
v 1 1 -20
v 20 1 -20
v -20 25 -1
v -16 25 -1
v -8 25 -1
v -4 25 -1
v -16 25 -2
v -12 25 -2
v -10 25 -2
v -8 25 -2
v -12 25 -3
v -10 25 -3
v -4 25 -5
v -2 25 -5
v -2 25 -6
v -1 25 -6
v -1 25 -9
v 0 25 -9
v 0 25 -12
v 1 25 -12
v 0 25 -15
v 1 25 -15
v 0 25 -18
v 1 25 -18
v -20 25 -20
v 1 25 -20

# faces
f 3/3/1 2/3/1 1/3/1
f 4/3/1 2/3/1 3/3/1
f 5/3/1 2/3/1 4/3/1
f 6/3/1 2/3/1 5/3/1
f 7/1/1 6/1/1 5/1/1
f 8/1/1 6/1/1 7/1/1
f 9/2/1 8/2/1 7/2/1
f 10/2/1 8/2/1 9/2/1
f 11/4/1 10/4/1 9/4/1
f 12/4/1 10/4/1 11/4/1
f 15/3/1 14/3/1 13/3/1
f 16/3/1 14/3/1 15/3/1
f 17/1/1 16/1/1 15/1/1
f 18/1/1 16/1/1 17/1/1
f 19/2/1 18/2/1 17/2/1
f 20/2/1 18/2/1 19/2/1
f 21/4/1 20/4/1 19/4/1
f 22/4/1 20/4/1 21/4/1
f 25/3/1 24/3/1 23/3/1
f 26/3/1 24/3/1 25/3/1
f 27/1/1 26/1/1 25/1/1
f 28/1/1 26/1/1 27/1/1
f 29/2/1 28/2/1 27/2/1
f 30/2/1 28/2/1 29/2/1
f 31/4/1 30/4/1 29/4/1
f 32/4/1 30/4/1 31/4/1
f 33/3/2 34/3/2 35/3/2
f 35/3/2 34/3/2 36/3/2
f 35/1/2 36/1/2 37/1/2
f 37/1/2 36/1/2 38/1/2
f 37/2/2 38/2/2 39/2/2
f 39/2/2 38/2/2 40/2/2
f 39/4/2 40/4/2 41/4/2
f 41/4/2 40/4/2 42/4/2
f 43/3/2 44/3/2 45/3/2
f 45/3/2 44/3/2 46/3/2
f 45/1/2 46/1/2 47/1/2
f 47/1/2 46/1/2 48/1/2
f 47/2/2 48/2/2 49/2/2
f 49/2/2 48/2/2 50/2/2
f 49/4/2 50/4/2 51/4/2
f 51/4/2 50/4/2 52/4/2
f 53/3/2 54/3/2 55/3/2
f 55/3/2 54/3/2 56/3/2
f 55/1/2 56/1/2 57/1/2
f 57/1/2 56/1/2 58/1/2
f 57/2/2 58/2/2 59/2/2
f 59/2/2 58/2/2 60/2/2
f 59/4/2 60/4/2 61/4/2
f 61/4/2 60/4/2 62/4/2
f 63/3/2 64/3/2 65/3/2
f 65/3/2 64/3/2 66/3/2
f 65/1/2 66/1/2 67/1/2
f 67/1/2 66/1/2 68/1/2
f 67/2/2 68/2/2 69/2/2
f 69/2/2 68/2/2 70/2/2
f 69/4/2 70/4/2 71/4/2
f 71/4/2 70/4/2 72/4/2
f 73/3/2 74/3/2 75/3/2
f 75/3/2 74/3/2 76/3/2
f 75/1/2 76/1/2 77/1/2
f 77/1/2 76/1/2 78/1/2
f 77/2/2 78/2/2 79/2/2
f 79/2/2 78/2/2 80/2/2
f 79/4/2 80/4/2 81/4/2
f 81/4/2 80/4/2 82/4/2
f 83/3/2 84/3/2 87/3/2
f 87/3/2 84/3/2 88/3/2
f 85/3/2 86/3/2 89/3/2
f 89/3/2 86/3/2 90/3/2
f 87/1/2 88/1/2 91/1/2
f 91/1/2 88/1/2 92/1/2
f 89/1/2 90/1/2 93/1/2
f 93/1/2 90/1/2 94/1/2
f 91/2/2 92/2/2 95/2/2
f 95/2/2 92/2/2 96/2/2
f 93/2/2 94/2/2 97/2/2
f 97/2/2 94/2/2 98/2/2
f 95/4/2 96/4/2 99/4/2
f 99/4/2 96/4/2 100/4/2
f 97/4/2 98/4/2 101/4/2
f 101/4/2 98/4/2 102/4/2
f 103/3/2 104/3/2 107/3/2
f 107/3/2 104/3/2 108/3/2
f 105/3/2 106/3/2 109/3/2
f 109/3/2 106/3/2 110/3/2
f 107/1/2 108/1/2 111/1/2
f 111/1/2 108/1/2 112/1/2
f 109/1/2 110/1/2 113/1/2
f 113/1/2 110/1/2 114/1/2
f 111/2/2 112/2/2 115/2/2
f 115/2/2 112/2/2 116/2/2
f 113/2/2 114/2/2 117/2/2
f 117/2/2 114/2/2 118/2/2
f 115/4/2 116/4/2 119/4/2
f 119/4/2 116/4/2 120/4/2
f 117/4/2 118/4/2 121/4/2
f 121/4/2 118/4/2 122/4/2
f 123/3/2 124/3/2 127/3/2
f 124/1/2 125/1/2 128/1/2
f 127/3/2 124/3/2 128/3/2
f 125/3/2 126/3/2 129/3/2
f 128/1/2 125/1/2 129/1/2
f 129/3/2 126/3/2 130/3/2
f 133/3/3 132/3/3 131/3/3
f 134/3/3 132/3/3 133/3/3
f 135/1/3 134/1/3 133/1/3
f 136/1/3 134/1/3 135/1/3
f 137/3/3 136/3/3 135/3/3
f 138/3/3 136/3/3 137/3/3
f 144/3/3 140/3/3 139/3/3
f 145/1/3 141/1/3 140/1/3
f 145/3/3 140/3/3 144/3/3
f 146/2/3 142/2/3 141/2/3
f 146/1/3 141/1/3 145/1/3
f 147/4/3 143/4/3 142/4/3
f 147/2/3 142/2/3 146/2/3
f 148/4/3 143/4/3 147/4/3
f 154/3/3 150/3/3 149/3/3
f 155/1/3 151/1/3 150/1/3
f 155/3/3 150/3/3 154/3/3
f 156/2/3 152/2/3 151/2/3
f 156/1/3 151/1/3 155/1/3
f 157/4/3 153/4/3 152/4/3
f 157/2/3 152/2/3 156/2/3
f 158/4/3 153/4/3 157/4/3
f 164/3/3 160/3/3 159/3/3
f 165/1/3 161/1/3 160/1/3
f 165/3/3 160/3/3 164/3/3
f 166/2/3 162/2/3 161/2/3
f 166/1/3 161/1/3 165/1/3
f 167/4/3 163/4/3 162/4/3
f 167/2/3 162/2/3 166/2/3
f 168/4/3 163/4/3 167/4/3
f 174/3/3 170/3/3 169/3/3
f 175/1/3 171/1/3 170/1/3
f 175/3/3 170/3/3 174/3/3
f 176/2/3 172/2/3 171/2/3
f 176/1/3 171/1/3 175/1/3
f 177/4/3 173/4/3 172/4/3
f 177/2/3 172/2/3 176/2/3
f 178/4/3 173/4/3 177/4/3
f 184/3/3 180/3/3 179/3/3
f 185/1/3 181/1/3 180/1/3
f 185/3/3 180/3/3 184/3/3
f 186/2/3 182/2/3 181/2/3
f 186/1/3 181/1/3 185/1/3
f 187/4/3 183/4/3 182/4/3
f 187/2/3 182/2/3 186/2/3
f 188/4/3 183/4/3 187/4/3
f 194/3/3 190/3/3 189/3/3
f 195/1/3 191/1/3 190/1/3
f 195/3/3 190/3/3 194/3/3
f 196/2/3 192/2/3 191/2/3
f 196/1/3 191/1/3 195/1/3
f 197/4/3 193/4/3 192/4/3
f 197/2/3 192/2/3 196/2/3
f 198/4/3 193/4/3 197/4/3
f 204/3/3 200/3/3 199/3/3
f 205/1/3 201/1/3 200/1/3
f 205/3/3 200/3/3 204/3/3
f 206/2/3 202/2/3 201/2/3
f 206/1/3 201/1/3 205/1/3
f 207/4/3 203/4/3 202/4/3
f 207/2/3 202/2/3 206/2/3
f 208/4/3 203/4/3 207/4/3
f 214/3/3 210/3/3 209/3/3
f 215/1/3 211/1/3 210/1/3
f 215/3/3 210/3/3 214/3/3
f 216/2/3 212/2/3 211/2/3
f 216/1/3 211/1/3 215/1/3
f 217/4/3 213/4/3 212/4/3
f 217/2/3 212/2/3 216/2/3
f 218/4/3 213/4/3 217/4/3
f 224/3/3 220/3/3 219/3/3
f 225/1/3 221/1/3 220/1/3
f 225/3/3 220/3/3 224/3/3
f 226/2/3 222/2/3 221/2/3
f 226/1/3 221/1/3 225/1/3
f 227/4/3 223/4/3 222/4/3
f 227/2/3 222/2/3 226/2/3
f 228/4/3 223/4/3 227/4/3
f 234/3/3 230/3/3 229/3/3
f 235/1/3 231/1/3 230/1/3
f 235/3/3 230/3/3 234/3/3
f 236/2/3 232/2/3 231/2/3
f 236/1/3 231/1/3 235/1/3
f 237/4/3 233/4/3 232/4/3
f 237/2/3 232/2/3 236/2/3
f 238/4/3 233/4/3 237/4/3
f 239/3/4 240/3/4 244/3/4
f 240/1/4 241/1/4 245/1/4
f 244/3/4 240/3/4 245/3/4
f 241/2/4 242/2/4 246/2/4
f 245/1/4 241/1/4 246/1/4
f 242/4/4 243/4/4 247/4/4
f 246/2/4 242/2/4 247/2/4
f 247/4/4 243/4/4 248/4/4
f 249/3/4 250/3/4 254/3/4
f 250/1/4 251/1/4 255/1/4
f 254/3/4 250/3/4 255/3/4
f 251/2/4 252/2/4 256/2/4
f 255/1/4 251/1/4 256/1/4
f 252/4/4 253/4/4 257/4/4
f 256/2/4 252/2/4 257/2/4
f 257/4/4 253/4/4 258/4/4
f 249/3/4 254/3/4 259/3/4
f 259/3/4 254/3/4 260/3/4
f 265/3/5 262/3/5 261/3/5
f 266/3/5 262/3/5 265/3/5
f 267/1/5 263/1/5 262/1/5
f 267/3/5 262/3/5 266/3/5
f 268/3/5 264/3/5 263/3/5
f 268/1/5 263/1/5 267/1/5
f 269/1/5 266/1/5 265/1/5
f 269/3/5 265/3/5 261/3/5
f 270/3/5 267/3/5 266/3/5
f 270/1/5 266/1/5 269/1/5
f 270/3/5 268/3/5 267/3/5
f 271/3/5 264/3/5 268/3/5
f 271/3/5 268/3/5 270/3/5
f 272/3/5 264/3/5 271/3/5
f 273/3/5 270/3/5 269/3/5
f 273/3/5 271/3/5 270/3/5
f 274/3/5 271/3/5 273/3/5
f 275/1/5 272/1/5 271/1/5
f 275/3/5 271/3/5 274/3/5
f 276/3/5 264/3/5 272/3/5
f 276/1/5 272/1/5 275/1/5
f 277/1/5 274/1/5 273/1/5
f 277/3/5 273/3/5 269/3/5
f 278/3/5 275/3/5 274/3/5
f 278/1/5 274/1/5 277/1/5
f 278/3/5 276/3/5 275/3/5
f 279/3/5 278/3/5 277/3/5
f 279/3/5 276/3/5 278/3/5
f 280/3/5 276/3/5 279/3/5
f 281/3/5 276/3/5 280/3/5
f 282/3/5 276/3/5 281/3/5
f 283/3/5 279/3/5 277/3/5
f 283/1/5 280/1/5 279/1/5
f 284/3/5 281/3/5 280/3/5
f 284/1/5 280/1/5 283/1/5
f 285/1/5 282/1/5 281/1/5
f 285/3/5 281/3/5 284/3/5
f 286/3/5 276/3/5 282/3/5
f 286/1/5 282/1/5 285/1/5
f 287/3/5 276/3/5 286/3/5
f 288/3/5 276/3/5 287/3/5
f 289/3/5 276/3/5 288/3/5
f 290/3/5 276/3/5 289/3/5
f 291/3/5 285/3/5 284/3/5
f 291/3/5 284/3/5 283/3/5
f 291/3/5 286/3/5 285/3/5
f 291/3/5 287/3/5 286/3/5
f 291/1/5 288/1/5 287/1/5
f 292/3/5 289/3/5 288/3/5
f 292/1/5 288/1/5 291/1/5
f 293/1/5 290/1/5 289/1/5
f 293/3/5 289/3/5 292/3/5
f 294/3/5 276/3/5 290/3/5
f 294/1/5 290/1/5 293/1/5
f 295/3/5 293/3/5 292/3/5
f 295/3/5 292/3/5 291/3/5
f 295/3/5 294/3/5 293/3/5
f 295/3/5 291/3/5 283/3/5
f 295/3/5 283/3/5 277/3/5
f 296/3/5 294/3/5 295/3/5
f 297/3/5 294/3/5 296/3/5
f 298/3/5 294/3/5 297/3/5
f 299/3/5 295/3/5 277/3/5
f 299/1/5 296/1/5 295/1/5
f 300/3/5 297/3/5 296/3/5
f 300/1/5 296/1/5 299/1/5
f 301/1/5 298/1/5 297/1/5
f 301/3/5 297/3/5 300/3/5
f 302/3/5 294/3/5 298/3/5
f 302/1/5 298/1/5 301/1/5
f 303/3/5 294/3/5 302/3/5
f 304/3/5 294/3/5 303/3/5
f 305/3/5 276/3/5 294/3/5
f 305/3/5 294/3/5 304/3/5
f 306/3/5 264/3/5 276/3/5
f 306/3/5 276/3/5 305/3/5
f 307/3/5 301/3/5 300/3/5
f 307/3/5 300/3/5 299/3/5
f 307/3/5 302/3/5 301/3/5
f 307/3/5 303/3/5 302/3/5
f 308/3/5 303/3/5 307/3/5
f 309/1/5 304/1/5 303/1/5
f 309/3/5 303/3/5 308/3/5
f 310/3/5 305/3/5 304/3/5
f 310/1/5 304/1/5 309/1/5
f 311/1/5 306/1/5 305/1/5
f 311/3/5 305/3/5 310/3/5
f 312/3/5 264/3/5 306/3/5
f 312/1/5 306/1/5 311/1/5
f 313/1/5 308/1/5 307/1/5
f 313/3/5 307/3/5 299/3/5
f 314/3/5 309/3/5 308/3/5
f 314/1/5 308/1/5 313/1/5
f 314/3/5 311/3/5 310/3/5
f 314/3/5 312/3/5 311/3/5
f 314/3/5 310/3/5 309/3/5
f 315/3/5 313/3/5 299/3/5
f 315/3/5 314/3/5 313/3/5
f 316/3/5 314/3/5 315/3/5
f 317/3/5 315/3/5 299/3/5
f 317/1/5 316/1/5 315/1/5
f 318/3/5 314/3/5 316/3/5
f 318/1/5 316/1/5 317/1/5
f 319/3/5 312/3/5 314/3/5
f 319/3/5 314/3/5 318/3/5
f 320/3/5 312/3/5 319/3/5
f 321/3/5 318/3/5 317/3/5
f 321/3/5 319/3/5 318/3/5
f 322/3/5 319/3/5 321/3/5
f 323/1/5 320/1/5 319/1/5
f 323/3/5 319/3/5 322/3/5
f 324/3/5 312/3/5 320/3/5
f 324/1/5 320/1/5 323/1/5
f 325/3/5 317/3/5 299/3/5
f 325/3/5 321/3/5 317/3/5
f 326/3/5 321/3/5 325/3/5
f 327/3/5 321/3/5 326/3/5
f 328/3/5 321/3/5 327/3/5
f 329/1/5 322/1/5 321/1/5
f 329/3/5 321/3/5 328/3/5
f 330/3/5 323/3/5 322/3/5
f 330/1/5 322/1/5 329/1/5
f 330/3/5 324/3/5 323/3/5
f 331/3/5 325/3/5 299/3/5
f 331/1/5 326/1/5 325/1/5
f 332/3/5 327/3/5 326/3/5
f 332/1/5 326/1/5 331/1/5
f 333/1/5 328/1/5 327/1/5
f 333/3/5 327/3/5 332/3/5
f 334/3/5 329/3/5 328/3/5
f 334/1/5 328/1/5 333/1/5
f 334/3/5 330/3/5 329/3/5
f 335/3/5 277/3/5 269/3/5
f 335/3/5 333/3/5 332/3/5
f 335/3/5 334/3/5 333/3/5
f 335/3/5 299/3/5 277/3/5
f 335/3/5 331/3/5 299/3/5
f 335/3/5 332/3/5 331/3/5
f 336/3/5 334/3/5 335/3/5
f 337/3/5 330/3/5 334/3/5
f 337/3/5 334/3/5 336/3/5
f 337/3/5 324/3/5 330/3/5
f 337/3/5 312/3/5 324/3/5
f 338/3/5 312/3/5 337/3/5
f 339/3/5 312/3/5 338/3/5
f 340/3/5 264/3/5 312/3/5
f 340/3/5 312/3/5 339/3/5
f 341/1/5 336/1/5 335/1/5
f 341/3/5 335/3/5 269/3/5
f 342/3/5 337/3/5 336/3/5
f 342/1/5 336/1/5 341/1/5
f 343/1/5 338/1/5 337/1/5
f 343/3/5 337/3/5 342/3/5
f 344/3/5 339/3/5 338/3/5
f 344/1/5 338/1/5 343/1/5
f 345/1/5 340/1/5 339/1/5
f 345/3/5 339/3/5 344/3/5
f 346/3/5 264/3/5 340/3/5
f 346/1/5 340/1/5 345/1/5
f 347/3/5 345/3/5 344/3/5
f 347/3/5 344/3/5 343/3/5
f 347/3/5 346/3/5 345/3/5
f 347/3/5 342/3/5 341/3/5
f 347/3/5 343/3/5 342/3/5
f 348/3/5 346/3/5 347/3/5
f 349/3/5 347/3/5 341/3/5
f 349/1/5 348/1/5 347/1/5
f 350/3/5 346/3/5 348/3/5
f 350/1/5 348/1/5 349/1/5
f 351/3/5 264/3/5 346/3/5
f 351/3/5 346/3/5 350/3/5
f 352/3/5 264/3/5 351/3/5
f 353/3/5 350/3/5 349/3/5
f 353/3/5 349/3/5 341/3/5
f 353/3/5 351/3/5 350/3/5
f 354/3/5 351/3/5 353/3/5
f 355/3/5 351/3/5 354/3/5
f 356/3/5 351/3/5 355/3/5
f 357/1/5 352/1/5 351/1/5
f 357/3/5 351/3/5 356/3/5
f 358/1/5 352/1/5 357/1/5
f 359/3/5 353/3/5 341/3/5
f 359/1/5 354/1/5 353/1/5
f 360/3/5 355/3/5 354/3/5
f 360/1/5 354/1/5 359/1/5
f 361/1/5 356/1/5 355/1/5
f 361/3/5 355/3/5 360/3/5
f 362/3/5 358/3/5 357/3/5
f 362/1/5 356/1/5 361/1/5
f 362/3/5 357/3/5 356/3/5
f 363/3/5 360/3/5 359/3/5
f 363/3/5 358/3/5 362/3/5
f 363/3/5 362/3/5 361/3/5
f 363/3/5 361/3/5 360/3/5
f 364/3/5 358/3/5 363/3/5
f 365/3/5 358/3/5 364/3/5
f 366/3/5 358/3/5 365/3/5
f 367/3/5 363/3/5 359/3/5
f 367/1/5 364/1/5 363/1/5
f 368/3/5 365/3/5 364/3/5
f 368/1/5 364/1/5 367/1/5
f 369/1/5 366/1/5 365/1/5
f 369/3/5 365/3/5 368/3/5
f 370/3/5 358/3/5 366/3/5
f 370/1/5 366/1/5 369/1/5
f 371/3/5 369/3/5 368/3/5
f 371/3/5 358/3/5 370/3/5
f 371/3/5 370/3/5 369/3/5
f 371/3/5 368/3/5 367/3/5
f 372/3/5 358/3/5 371/3/5
f 373/3/5 371/3/5 367/3/5
f 373/1/5 372/1/5 371/1/5
f 374/3/5 358/3/5 372/3/5
f 374/1/5 372/1/5 373/1/5
f 375/3/5 367/3/5 359/3/5
f 375/3/5 373/3/5 367/3/5
f 375/3/5 374/3/5 373/3/5
f 376/3/5 374/3/5 375/3/5
f 377/3/5 374/3/5 376/3/5
f 378/3/5 374/3/5 377/3/5
f 379/3/5 375/3/5 359/3/5
f 379/1/5 376/1/5 375/1/5
f 380/3/5 377/3/5 376/3/5
f 380/1/5 376/1/5 379/1/5
f 381/1/5 378/1/5 377/1/5
f 381/3/5 377/3/5 380/3/5
f 382/3/5 374/3/5 378/3/5
f 382/1/5 378/1/5 381/1/5
f 383/3/5 269/3/5 261/3/5
f 383/3/5 341/3/5 269/3/5
f 383/3/5 382/3/5 381/3/5
f 383/3/5 379/3/5 359/3/5
f 383/3/5 380/3/5 379/3/5
f 383/3/5 381/3/5 380/3/5
f 383/3/5 359/3/5 341/3/5
f 384/3/5 374/3/5 382/3/5
f 384/3/5 382/3/5 383/3/5
f 384/3/5 358/3/5 374/3/5
f 385/3/6 386/3/6 389/3/6
f 389/3/6 386/3/6 390/3/6
f 386/1/6 387/1/6 391/1/6
f 390/3/6 386/3/6 391/3/6
f 387/3/6 388/3/6 392/3/6
f 391/1/6 387/1/6 392/1/6
f 389/1/6 390/1/6 393/1/6
f 385/3/6 389/3/6 393/3/6
f 390/3/6 391/3/6 394/3/6
f 393/1/6 390/1/6 394/1/6
f 391/3/6 392/3/6 394/3/6
f 392/3/6 388/3/6 395/3/6
f 394/3/6 392/3/6 395/3/6
f 395/3/6 388/3/6 396/3/6
f 393/3/6 394/3/6 397/3/6
f 394/3/6 395/3/6 397/3/6
f 397/3/6 395/3/6 398/3/6
f 395/1/6 396/1/6 399/1/6
f 398/3/6 395/3/6 399/3/6
f 396/3/6 388/3/6 400/3/6
f 399/1/6 396/1/6 400/1/6
f 397/1/6 398/1/6 401/1/6
f 393/3/6 397/3/6 401/3/6
f 398/3/6 399/3/6 402/3/6
f 401/1/6 398/1/6 402/1/6
f 399/3/6 400/3/6 402/3/6
f 401/3/6 402/3/6 403/3/6
f 402/3/6 400/3/6 403/3/6
f 403/3/6 400/3/6 404/3/6
f 404/3/6 400/3/6 405/3/6
f 405/3/6 400/3/6 406/3/6
f 401/3/6 403/3/6 407/3/6
f 403/1/6 404/1/6 407/1/6
f 404/3/6 405/3/6 408/3/6
f 407/1/6 404/1/6 408/1/6
f 405/1/6 406/1/6 409/1/6
f 408/3/6 405/3/6 409/3/6
f 406/3/6 400/3/6 410/3/6
f 409/1/6 406/1/6 410/1/6
f 410/3/6 400/3/6 411/3/6
f 411/3/6 400/3/6 412/3/6
f 412/3/6 400/3/6 413/3/6
f 413/3/6 400/3/6 414/3/6
f 408/3/6 409/3/6 415/3/6
f 407/3/6 408/3/6 415/3/6
f 409/3/6 410/3/6 415/3/6
f 410/3/6 411/3/6 415/3/6
f 411/1/6 412/1/6 415/1/6
f 412/3/6 413/3/6 416/3/6
f 415/1/6 412/1/6 416/1/6
f 413/1/6 414/1/6 417/1/6
f 416/3/6 413/3/6 417/3/6
f 414/3/6 400/3/6 418/3/6
f 417/1/6 414/1/6 418/1/6
f 416/3/6 417/3/6 419/3/6
f 415/3/6 416/3/6 419/3/6
f 417/3/6 418/3/6 419/3/6
f 407/3/6 415/3/6 419/3/6
f 401/3/6 407/3/6 419/3/6
f 419/3/6 418/3/6 420/3/6
f 420/3/6 418/3/6 421/3/6
f 421/3/6 418/3/6 422/3/6
f 401/3/6 419/3/6 423/3/6
f 419/1/6 420/1/6 423/1/6
f 420/3/6 421/3/6 424/3/6
f 423/1/6 420/1/6 424/1/6
f 421/1/6 422/1/6 425/1/6
f 424/3/6 421/3/6 425/3/6
f 422/3/6 418/3/6 426/3/6
f 425/1/6 422/1/6 426/1/6
f 426/3/6 418/3/6 427/3/6
f 427/3/6 418/3/6 428/3/6
f 418/3/6 400/3/6 429/3/6
f 428/3/6 418/3/6 429/3/6
f 400/3/6 388/3/6 430/3/6
f 429/3/6 400/3/6 430/3/6
f 424/3/6 425/3/6 431/3/6
f 423/3/6 424/3/6 431/3/6
f 425/3/6 426/3/6 431/3/6
f 426/3/6 427/3/6 431/3/6
f 431/3/6 427/3/6 432/3/6
f 427/1/6 428/1/6 433/1/6
f 432/3/6 427/3/6 433/3/6
f 428/3/6 429/3/6 434/3/6
f 433/1/6 428/1/6 434/1/6
f 429/1/6 430/1/6 435/1/6
f 434/3/6 429/3/6 435/3/6
f 430/3/6 388/3/6 436/3/6
f 435/1/6 430/1/6 436/1/6
f 431/1/6 432/1/6 437/1/6
f 423/3/6 431/3/6 437/3/6
f 432/3/6 433/3/6 438/3/6
f 437/1/6 432/1/6 438/1/6
f 434/3/6 435/3/6 438/3/6
f 435/3/6 436/3/6 438/3/6
f 433/3/6 434/3/6 438/3/6
f 423/3/6 437/3/6 439/3/6
f 437/3/6 438/3/6 439/3/6
f 439/3/6 438/3/6 440/3/6
f 423/3/6 439/3/6 441/3/6
f 439/1/6 440/1/6 441/1/6
f 440/3/6 438/3/6 442/3/6
f 441/1/6 440/1/6 442/1/6
f 438/3/6 436/3/6 443/3/6
f 442/3/6 438/3/6 443/3/6
f 443/3/6 436/3/6 444/3/6
f 441/3/6 442/3/6 445/3/6
f 442/3/6 443/3/6 445/3/6
f 445/3/6 443/3/6 446/3/6
f 443/1/6 444/1/6 447/1/6
f 446/3/6 443/3/6 447/3/6
f 444/3/6 436/3/6 448/3/6
f 447/1/6 444/1/6 448/1/6
f 423/3/6 441/3/6 449/3/6
f 441/3/6 445/3/6 449/3/6
f 449/3/6 445/3/6 450/3/6
f 450/3/6 445/3/6 451/3/6
f 451/3/6 445/3/6 452/3/6
f 445/1/6 446/1/6 453/1/6
f 452/3/6 445/3/6 453/3/6
f 446/3/6 447/3/6 454/3/6
f 453/1/6 446/1/6 454/1/6
f 447/3/6 448/3/6 454/3/6
f 423/3/6 449/3/6 455/3/6
f 449/1/6 450/1/6 455/1/6
f 450/3/6 451/3/6 456/3/6
f 455/1/6 450/1/6 456/1/6
f 451/1/6 452/1/6 457/1/6
f 456/3/6 451/3/6 457/3/6
f 452/3/6 453/3/6 458/3/6
f 457/1/6 452/1/6 458/1/6
f 453/3/6 454/3/6 458/3/6
f 393/3/6 401/3/6 459/3/6
f 456/3/6 457/3/6 459/3/6
f 457/3/6 458/3/6 459/3/6
f 401/3/6 423/3/6 459/3/6
f 423/3/6 455/3/6 459/3/6
f 455/3/6 456/3/6 459/3/6
f 459/3/6 458/3/6 460/3/6
f 458/3/6 454/3/6 461/3/6
f 460/3/6 458/3/6 461/3/6
f 454/3/6 448/3/6 461/3/6
f 448/3/6 436/3/6 461/3/6
f 461/3/6 436/3/6 462/3/6
f 462/3/6 436/3/6 463/3/6
f 436/3/6 388/3/6 464/3/6
f 463/3/6 436/3/6 464/3/6
f 459/1/6 460/1/6 465/1/6
f 393/3/6 459/3/6 465/3/6
f 460/3/6 461/3/6 466/3/6
f 465/1/6 460/1/6 466/1/6
f 461/1/6 462/1/6 467/1/6
f 466/3/6 461/3/6 467/3/6
f 462/3/6 463/3/6 468/3/6
f 467/1/6 462/1/6 468/1/6
f 463/1/6 464/1/6 469/1/6
f 468/3/6 463/3/6 469/3/6
f 464/3/6 388/3/6 470/3/6
f 469/1/6 464/1/6 470/1/6
f 385/3/6 393/3/6 471/3/6
f 468/3/6 469/3/6 471/3/6
f 469/3/6 470/3/6 471/3/6
f 465/3/6 466/3/6 471/3/6
f 393/3/6 465/3/6 471/3/6
f 466/3/6 467/3/6 471/3/6
f 467/3/6 468/3/6 471/3/6
f 471/3/6 470/3/6 472/3/6
f 472/3/6 470/3/6 473/3/6
f 473/3/6 470/3/6 474/3/6
f 474/3/6 470/3/6 475/3/6
f 475/3/6 470/3/6 476/3/6
f 472/3/6 473/3/6 477/3/6
f 477/3/6 473/3/6 478/3/6
f 478/3/6 473/3/6 479/3/6
f 479/3/6 473/3/6 480/3/6
f 475/1/6 476/1/6 481/1/6
f 474/3/6 475/3/6 481/3/6
f 476/3/6 470/3/6 482/3/6
f 481/1/6 476/1/6 482/1/6
f 470/3/6 388/3/6 483/3/6
f 482/3/6 470/3/6 483/3/6
f 483/3/6 388/3/6 484/3/6
f 478/3/6 479/3/6 485/3/6
f 485/3/6 479/3/6 486/3/6
f 481/3/6 482/3/6 487/3/6
f 474/3/6 481/3/6 487/3/6
f 482/3/6 483/3/6 487/3/6
f 487/3/6 483/3/6 488/3/6
f 488/3/6 483/3/6 489/3/6
f 489/3/6 483/3/6 490/3/6
f 483/1/6 484/1/6 491/1/6
f 490/3/6 483/3/6 491/3/6
f 491/1/6 484/1/6 492/1/6
f 474/3/6 487/3/6 493/3/6
f 487/1/6 488/1/6 493/1/6
f 488/3/6 489/3/6 494/3/6
f 493/1/6 488/1/6 494/1/6
f 489/1/6 490/1/6 495/1/6
f 494/3/6 489/3/6 495/3/6
f 491/3/6 492/3/6 496/3/6
f 495/1/6 490/1/6 496/1/6
f 490/3/6 491/3/6 496/3/6
f 493/3/6 494/3/6 497/3/6
f 494/3/6 495/3/6 497/3/6
f 495/3/6 496/3/6 497/3/6
f 474/3/6 493/3/6 497/3/6
f 497/3/6 496/3/6 498/3/6
f 498/3/6 496/3/6 499/3/6
f 499/3/6 496/3/6 500/3/6
f 500/3/6 496/3/6 501/3/6
f 501/3/6 496/3/6 502/3/6
f 496/3/6 492/3/6 503/3/6
f 502/3/6 496/3/6 503/3/6
f 503/3/6 492/3/6 504/3/6
f 504/3/6 492/3/6 505/3/6
f 505/3/6 492/3/6 506/3/6
f 502/3/6 503/3/6 507/3/6
f 503/1/6 504/1/6 507/1/6
f 504/3/6 505/3/6 508/3/6
f 507/1/6 504/1/6 508/1/6
f 505/1/6 506/1/6 509/1/6
f 508/3/6 505/3/6 509/3/6
f 506/3/6 492/3/6 510/3/6
f 509/1/6 506/1/6 510/1/6
f 508/3/6 509/3/6 511/3/6
f 507/3/6 508/3/6 511/3/6
f 509/3/6 510/3/6 511/3/6
f 502/3/6 507/3/6 511/3/6
f 511/3/6 510/3/6 512/3/6
f 510/3/6 492/3/6 513/3/6
f 512/3/6 510/3/6 513/3/6
f 513/3/6 492/3/6 514/3/6
f 512/3/6 513/3/6 515/3/6
f 513/1/6 514/1/6 515/1/6
f 514/3/6 492/3/6 516/3/6
f 515/1/6 514/1/6 516/1/6
f 512/3/6 515/3/6 518/3/6
f 515/3/6 516/3/6 518/3/6
f 518/3/6 516/3/6 519/3/6
f 519/3/6 516/3/6 520/3/6
f 520/3/6 516/3/6 521/3/6
f 521/3/6 516/3/6 522/3/6
f 517/3/6 518/3/6 523/3/6
f 518/3/6 519/3/6 523/3/6
f 519/1/6 520/1/6 523/1/6
f 520/3/6 521/3/6 524/3/6
f 523/1/6 520/1/6 524/1/6
f 521/1/6 522/1/6 525/1/6
f 524/3/6 521/3/6 525/3/6
f 522/3/6 516/3/6 526/3/6
f 525/1/6 522/1/6 526/1/6
f 524/3/6 525/3/6 527/3/6
f 523/3/6 524/3/6 527/3/6
f 525/3/6 526/3/6 527/3/6
f 517/3/6 523/3/6 527/3/6
f 527/3/6 526/3/6 528/3/6
f 528/3/6 526/3/6 529/3/6
f 516/3/6 492/3/6 530/3/6
f 529/3/6 526/3/6 530/3/6
f 526/3/6 516/3/6 530/3/6
f 531/4/6 532/4/6 535/4/6
f 533/4/6 534/4/6 538/4/6
f 535/4/6 536/4/6 539/4/6
f 537/4/6 538/4/6 540/4/6
f 538/4/6 534/4/6 541/4/6
f 539/4/6 540/4/6 541/4/6
f 540/4/6 538/4/6 541/4/6
f 541/4/6 542/4/6 543/4/6
f 543/4/6 544/4/6 545/4/6
f 545/4/6 546/4/6 547/4/6
f 545/4/6 547/4/6 549/4/6
f 547/4/6 548/4/6 549/4/6
f 549/4/6 548/4/6 550/4/6
f 545/4/6 549/4/6 551/4/6
f 535/4/6 539/4/6 553/4/6
f 551/4/6 552/4/6 553/4/6
f 545/4/6 551/4/6 553/4/6
f 531/4/6 535/4/6 553/4/6
f 543/4/6 545/4/6 553/4/6
f 541/4/6 543/4/6 553/4/6
f 539/4/6 541/4/6 553/4/6
f 553/4/6 552/4/6 554/4/6
